<svg width="46" height="46" viewBox="0 0 46 46" fill="none" xmlns="http://www.w3.org/2000/svg">
<path d="M14.5296 13.7965H15.5352C15.9941 15.4205 16.9707 16.8503 18.3165 17.8686C19.6624 18.8869 21.3039 19.4379 22.9915 19.4379C24.6791 19.4379 26.3206 18.8869 27.6665 17.8686C29.0123 16.8503 29.9889 15.4205 30.4478 13.7965H31.4533C32.0144 13.7965 32.5525 13.5736 32.9492 13.1769C33.3459 12.7801 33.5688 12.2421 33.5688 11.681C33.5688 11.1199 33.3459 10.5819 32.9492 10.1851C32.5525 9.78842 32.0144 9.56554 31.4533 9.56554H30.4478C29.9889 7.94148 29.0123 6.51166 27.6665 5.4934C26.3206 4.47514 24.6791 3.92413 22.9915 3.92413C21.3039 3.92413 19.6624 4.47514 18.3165 5.4934C16.9707 6.51166 15.9941 7.94148 15.5352 9.56554H14.5296C13.9686 9.56554 13.4305 9.78842 13.0338 10.1851C12.6371 10.5819 12.4142 11.1199 12.4142 11.681C12.4142 12.2421 12.6371 12.7801 13.0338 13.1769C13.4305 13.5736 13.9686 13.7965 14.5296 13.7965ZM31.4533 10.9758C31.6404 10.9758 31.8197 11.0501 31.952 11.1824C32.0842 11.3146 32.1585 11.494 32.1585 11.681C32.1585 11.868 32.0842 12.0474 31.952 12.1796C31.8197 12.3119 31.6404 12.3862 31.4533 12.3862H30.7122C30.7334 12.1535 30.7482 11.9193 30.7482 11.681C30.7482 11.4427 30.7334 11.2085 30.7122 10.9758H31.4533ZM22.9915 5.33462C23.2271 5.33529 23.4626 5.34918 23.6966 5.37622V6.74492C23.6966 6.93194 23.6224 7.1113 23.4901 7.24354C23.3579 7.37578 23.1785 7.45008 22.9915 7.45008C22.8045 7.45008 22.6251 7.37578 22.4929 7.24354C22.3606 7.1113 22.2863 6.93194 22.2863 6.74492H20.876C20.876 7.30598 21.0989 7.84406 21.4956 8.24078C21.8924 8.63751 22.4304 8.86039 22.9915 8.86039C23.5526 8.86039 24.0906 8.63751 24.4874 8.24078C24.8841 7.84406 25.107 7.30598 25.107 6.74492V5.70482C26.5994 6.23906 27.8371 7.31393 28.5751 8.71686C29.3131 10.1198 29.4978 11.7486 29.0926 13.2811C28.6874 14.8137 27.7218 16.1383 26.3868 16.9931C25.0518 17.8479 23.4446 18.1706 21.8831 17.8974C20.3217 17.6241 18.9196 16.7748 17.9542 15.5174C16.9889 14.2601 16.5305 12.6862 16.6698 11.1072C16.8091 9.52808 17.536 8.05878 18.7066 6.98986C19.8772 5.92095 21.4063 5.33026 22.9915 5.33462ZM14.5296 10.9758H15.2708C15.2496 11.2085 15.2348 11.4427 15.2348 11.681C15.2348 11.9193 15.2496 12.1535 15.2708 12.3862H14.5296C14.3426 12.3862 14.1633 12.3119 14.031 12.1796C13.8988 12.0474 13.8245 11.868 13.8245 11.681C13.8245 11.494 13.8988 11.3146 14.031 11.1824C14.1633 11.0501 14.3426 10.9758 14.5296 10.9758Z" fill="#FCFCFC"/>
<path d="M19.4657 11.2686C19.6555 11.087 19.9081 10.9857 20.1708 10.9857C20.4335 10.9857 20.6861 11.087 20.876 11.2686L21.0826 11.4752L22.0797 10.4781L21.8731 10.2708C21.4141 9.83362 20.8046 9.58978 20.1708 9.58978C19.537 9.58978 18.9275 9.83362 18.4686 10.2708L18.262 10.4774L19.2591 11.4745L19.4657 11.2686ZM25.1069 11.2686C25.2968 11.087 25.5493 10.9857 25.812 10.9857C26.0747 10.9857 26.3273 11.087 26.5172 11.2686L26.7238 11.4752L27.7209 10.4781L27.5143 10.2708C27.0554 9.83362 26.4459 9.58978 25.812 9.58978C25.1782 9.58978 24.5687 9.83362 24.1098 10.2708L23.9032 10.4774L24.9003 11.4745L25.1069 11.2686ZM21.5811 14.3367L21.5071 14.1872L20.2449 14.8169L20.3196 14.9664C20.5677 15.4624 20.9491 15.8796 21.4209 16.1712C21.8927 16.4627 22.4364 16.6172 22.9911 16.6172C23.5457 16.6172 24.0894 16.4627 24.5613 16.1712C25.0331 15.8796 25.4144 15.4624 25.6626 14.9664L25.7373 14.8176L24.4751 14.1872L24.4046 14.336C24.2736 14.5979 24.0723 14.8182 23.8232 14.9721C23.5741 15.1261 23.2871 15.2077 22.9943 15.2077C22.7014 15.2077 22.4144 15.1261 22.1653 14.9721C21.9162 14.8182 21.7149 14.5979 21.5839 14.336L21.5811 14.3367Z" fill="#FCFCFC"/>
<path d="M36.3894 11.5618C36.3895 10.1883 36.1191 8.82827 35.5936 7.5593C35.068 6.29033 34.2976 5.13733 33.3264 4.16615C32.3552 3.19498 31.2021 2.42466 29.9331 1.8992C28.6641 1.37373 27.304 1.10342 25.9305 1.1037H20.0516C18.6782 1.10361 17.3183 1.37405 16.0494 1.89959C14.7805 2.42513 13.6276 3.19546 12.6564 4.16661C11.6853 5.13776 10.9149 6.29069 10.3894 7.55957C9.86386 8.82845 9.59341 10.1884 9.59351 11.5618V31.4253C9.59351 34.9787 11.0051 38.3865 13.5177 40.8991C16.0303 43.4117 19.4381 44.8232 22.9914 44.8232C26.5448 44.8232 29.9526 43.4117 32.4652 40.8991C34.9778 38.3865 36.3894 34.9787 36.3894 31.4253V11.5618ZM12.2935 6.90782C13.1008 5.57114 14.2386 4.46477 15.5974 3.69523C16.9561 2.9257 18.4901 2.5189 20.0516 2.51401H25.9305C27.1188 2.51373 28.2955 2.74756 29.3934 3.20215C30.4913 3.65674 31.4889 4.32318 32.3292 5.16339C33.1694 6.00361 33.836 7.00114 34.2906 8.099C34.7453 9.19686 34.9792 10.3735 34.9791 11.5618V16.2377L23.0619 21.831L11.0038 16.1023V11.5618C11.004 9.92194 11.4495 8.31286 12.2928 6.90641L12.2935 6.90782ZM34.9791 17.7954V27.4892L24.7155 22.6144L34.9791 17.7954ZM22.9914 43.4129C19.8132 43.4094 16.7662 42.1453 14.5188 39.8979C12.2715 37.6506 11.0074 34.6035 11.0038 31.4253V17.6635L34.9791 29.0504V31.4253C34.9753 34.6035 33.7111 37.6504 31.4638 39.8977C29.2165 42.145 26.1696 43.4092 22.9914 43.4129Z" fill="#FCFCFC"/>
</svg>
