<svg width="72" height="24" viewBox="0 0 72 24" fill="none" xmlns="http://www.w3.org/2000/svg">
<path d="M17.45 22.7499C16.32 22.7499 15.13 22.4799 13.9 21.9599C12.7 21.4499 11.49 20.7499 10.31 19.8999C9.14 19.0399 8.01 18.0799 6.94 17.0299C5.88 15.9599 4.92 14.8299 4.07 13.6699C3.21 12.4699 2.52 11.2699 2.03 10.1099C1.51 8.86994 1.25 7.66994 1.25 6.53994C1.25 5.75994 1.39 5.01994 1.66 4.32994C1.94 3.61994 2.39 2.95994 3 2.38994C3.77 1.62994 4.65 1.24994 5.59 1.24994C5.98 1.24994 6.38 1.33994 6.72 1.49994C7.11 1.67994 7.44 1.94994 7.68 2.30994L10 5.57994C10.21 5.86994 10.37 6.14994 10.48 6.42994C10.61 6.72994 10.68 7.02994 10.68 7.31994C10.68 7.69994 10.57 8.06994 10.36 8.41994C10.1762 8.73232 9.95081 9.01827 9.69 9.26994L9.01 9.97994C9.02 10.0099 9.03 10.0299 9.04 10.0499C9.16 10.2599 9.4 10.6199 9.86 11.1599C10.35 11.7199 10.81 12.2299 11.27 12.6999C11.86 13.2799 12.35 13.7399 12.81 14.1199C13.38 14.5999 13.75 14.8399 13.97 14.9499L13.95 14.9999L14.68 14.2799C14.99 13.9699 15.29 13.7399 15.58 13.5899C16.13 13.2499 16.83 13.1899 17.53 13.4799C17.79 13.5899 18.07 13.7399 18.37 13.9499L21.69 16.3099C22.06 16.5599 22.33 16.8799 22.49 17.2599C22.64 17.6399 22.71 17.9899 22.71 18.3399C22.71 18.8199 22.6 19.2999 22.39 19.7499C22.18 20.1999 21.92 20.5899 21.59 20.9499C21.02 21.5799 20.4 22.0299 19.68 22.3199C18.99 22.5999 18.24 22.7499 17.45 22.7499ZM5.59 2.74994C5.04 2.74994 4.53 2.98994 4.04 3.46994C3.58 3.89994 3.26 4.36994 3.06 4.87994C2.85 5.39994 2.75 5.94994 2.75 6.53994C2.75 7.46994 2.97 8.47994 3.41 9.51994C3.86 10.5799 4.49 11.6799 5.29 12.7799C6.09 13.8799 7 14.9499 8 15.9599C9 16.9499 10.08 17.8699 11.19 18.6799C12.27 19.4699 13.38 20.1099 14.48 20.5699C16.19 21.2999 17.79 21.4699 19.11 20.9199C19.62 20.7099 20.07 20.3899 20.48 19.9299C20.71 19.6799 20.89 19.4099 21.04 19.0899C21.16 18.8399 21.22 18.5799 21.22 18.3199C21.22 18.1599 21.19 17.9999 21.11 17.8199C21.0461 17.6961 20.9492 17.5923 20.83 17.5199L17.51 15.1599C17.31 15.0199 17.13 14.9199 16.96 14.8499C16.74 14.7599 16.65 14.6699 16.31 14.8799C16.11 14.9799 15.93 15.1299 15.73 15.3299L14.97 16.0799C14.58 16.4599 13.98 16.5499 13.52 16.3799L13.25 16.2599C12.84 16.0399 12.36 15.6999 11.83 15.2499C11.35 14.8399 10.83 14.3599 10.2 13.7399C9.71 13.2399 9.22 12.7099 8.71 12.1199C8.24 11.5699 7.9 11.0999 7.69 10.7099L7.57 10.4099C7.51 10.1799 7.49 10.0499 7.49 9.90994C7.49 9.54994 7.62 9.22994 7.87 8.97994L8.62 8.19994C8.82 7.99994 8.97 7.80994 9.07 7.63994C9.15 7.50994 9.18 7.39994 9.18 7.29994C9.18 7.21994 9.15 7.09994 9.1 6.97994C9.03 6.81994 8.92 6.63994 8.78 6.44994L6.46 3.16994C6.36638 3.03558 6.23868 2.92858 6.09 2.85994C5.93 2.78994 5.76 2.74994 5.59 2.74994ZM13.95 15.0099L13.79 15.6899L14.06 14.9899C14.01 14.9799 13.97 14.9899 13.95 15.0099Z" fill="#F9F9F9"/>
<path d="M45.7586 18.716C44.4866 18.716 43.3946 18.446 42.4826 17.906C41.5706 17.354 40.8686 16.592 40.3766 15.62C39.8846 14.636 39.6386 13.502 39.6386 12.218C39.6386 10.934 39.8846 9.8 40.3766 8.816C40.8686 7.832 41.5706 7.064 42.4826 6.512C43.3946 5.96 44.4866 5.684 45.7586 5.684C47.2706 5.684 48.5066 6.062 49.4666 6.818C50.4386 7.562 51.0446 8.612 51.2846 9.968H48.7466C48.5906 9.284 48.2546 8.75 47.7386 8.366C47.2346 7.97 46.5626 7.772 45.7226 7.772C44.5586 7.772 43.6466 8.168 42.9866 8.96C42.3266 9.752 41.9966 10.838 41.9966 12.218C41.9966 13.598 42.3266 14.684 42.9866 15.476C43.6466 16.256 44.5586 16.646 45.7226 16.646C46.5626 16.646 47.2346 16.466 47.7386 16.106C48.2546 15.734 48.5906 15.224 48.7466 14.576H51.2846C51.0446 15.872 50.4386 16.886 49.4666 17.618C48.5066 18.35 47.2706 18.716 45.7586 18.716ZM56.3481 18.716C55.5801 18.716 54.9501 18.596 54.4581 18.356C53.9661 18.104 53.6001 17.774 53.3601 17.366C53.1201 16.958 53.0001 16.508 53.0001 16.016C53.0001 15.188 53.3241 14.516 53.9721 14C54.6201 13.484 55.5921 13.226 56.8881 13.226H59.1561V13.01C59.1561 12.398 58.9821 11.948 58.6341 11.66C58.2861 11.372 57.8541 11.228 57.3381 11.228C56.8701 11.228 56.4621 11.342 56.1141 11.57C55.7661 11.786 55.5501 12.11 55.4661 12.542H53.2161C53.2761 11.894 53.4921 11.33 53.8641 10.85C54.2481 10.37 54.7401 10.004 55.3401 9.752C55.9401 9.488 56.6121 9.356 57.3561 9.356C58.6281 9.356 59.6301 9.674 60.3621 10.31C61.0941 10.946 61.4601 11.846 61.4601 13.01V18.5H59.4981L59.2821 17.06C59.0181 17.54 58.6461 17.936 58.1661 18.248C57.6981 18.56 57.0921 18.716 56.3481 18.716ZM56.8701 16.916C57.5301 16.916 58.0401 16.7 58.4001 16.268C58.7721 15.836 59.0061 15.302 59.1021 14.666H57.1401C56.5281 14.666 56.0901 14.78 55.8261 15.008C55.5621 15.224 55.4301 15.494 55.4301 15.818C55.4301 16.166 55.5621 16.436 55.8261 16.628C56.0901 16.82 56.4381 16.916 56.8701 16.916ZM63.6588 18.5V5.54H65.9628V18.5H63.6588ZM68.317 18.5V5.54H70.621V18.5H68.317Z" fill="#FDFDFD"/>
</svg>
