<svg width="89" height="25" viewBox="0 0 89 25" fill="none" xmlns="http://www.w3.org/2000/svg">
<path d="M12.1287 23.5028C11.4387 23.5028 10.7887 23.1528 10.3287 22.5428L8.82866 20.5428C8.77097 20.4939 8.70238 20.4596 8.62866 20.4428H8.12866C3.95866 20.4428 1.37866 19.3128 1.37866 13.6928V8.69281C1.37866 4.27281 3.70866 1.94281 8.12866 1.94281H16.1287C20.5487 1.94281 22.8787 4.27281 22.8787 8.69281V13.6928C22.8787 18.1128 20.5487 20.4428 16.1287 20.4428H15.6287C15.5487 20.4428 15.4787 20.4828 15.4287 20.5428L13.9287 22.5428C13.4687 23.1528 12.8187 23.5028 12.1287 23.5028ZM8.12866 3.44281C4.54866 3.44281 2.87866 5.11281 2.87866 8.69281V13.6928C2.87866 18.2128 4.42866 18.9428 8.12866 18.9428H8.62866C9.13866 18.9428 9.71866 19.2328 10.0287 19.6428L11.5287 21.6428C11.8787 22.1028 12.3787 22.1028 12.7287 21.6428L14.2287 19.6428C14.5587 19.2028 15.0787 18.9428 15.6287 18.9428H16.1287C19.7087 18.9428 21.3787 17.2728 21.3787 13.6928V8.69281C21.3787 5.11281 19.7087 3.44281 16.1287 3.44281H8.12866Z" fill="white"/>
<path d="M12.1287 12.6929C11.5687 12.6929 11.1287 12.2429 11.1287 11.6929C11.1287 11.1429 11.5787 10.6929 12.1287 10.6929C12.6787 10.6929 13.1287 11.1429 13.1287 11.6929C13.1287 12.2429 12.6887 12.6929 12.1287 12.6929ZM16.1287 12.6929C15.5687 12.6929 15.1287 12.2429 15.1287 11.6929C15.1287 11.1429 15.5787 10.6929 16.1287 10.6929C16.6787 10.6929 17.1287 11.1429 17.1287 11.6929C17.1287 12.2429 16.6887 12.6929 16.1287 12.6929ZM8.12866 12.6929C7.56866 12.6929 7.12866 12.2429 7.12866 11.6929C7.12866 11.1429 7.57866 10.6929 8.12866 10.6929C8.67866 10.6929 9.12866 11.1429 9.12866 11.6929C9.12866 12.2429 8.68866 12.6929 8.12866 12.6929Z" fill="white"/>
<path d="M52.0657 19.4089C50.7937 19.4089 49.7017 19.1389 48.7897 18.5989C47.8777 18.0469 47.1757 17.2849 46.6837 16.3129C46.1917 15.3289 45.9457 14.1949 45.9457 12.9109C45.9457 11.6269 46.1917 10.4929 46.6837 9.50887C47.1757 8.52487 47.8777 7.75687 48.7897 7.20487C49.7017 6.65287 50.7937 6.37687 52.0657 6.37687C53.5777 6.37687 54.8137 6.75487 55.7737 7.51087C56.7457 8.25487 57.3517 9.30487 57.5917 10.6609H55.0537C54.8977 9.97687 54.5617 9.44287 54.0457 9.05887C53.5417 8.66287 52.8697 8.46487 52.0297 8.46487C50.8657 8.46487 49.9537 8.86087 49.2937 9.65287C48.6337 10.4449 48.3037 11.5309 48.3037 12.9109C48.3037 14.2909 48.6337 15.3769 49.2937 16.1689C49.9537 16.9489 50.8657 17.3389 52.0297 17.3389C52.8697 17.3389 53.5417 17.1589 54.0457 16.7989C54.5617 16.4269 54.8977 15.9169 55.0537 15.2689H57.5917C57.3517 16.5649 56.7457 17.5789 55.7737 18.3109C54.8137 19.0429 53.5777 19.4089 52.0657 19.4089ZM59.5772 19.1929V6.23287H61.8812V11.6329C62.1812 11.1409 62.5832 10.7569 63.0872 10.4809C63.6032 10.1929 64.1912 10.0489 64.8512 10.0489C65.9552 10.0489 66.8072 10.3969 67.4072 11.0929C68.0192 11.7889 68.3252 12.8089 68.3252 14.1529V19.1929H66.0392V14.3689C66.0392 13.6009 65.8832 13.0129 65.5712 12.6049C65.2712 12.1969 64.7912 11.9929 64.1312 11.9929C63.4832 11.9929 62.9432 12.2209 62.5112 12.6769C62.0912 13.1329 61.8812 13.7689 61.8812 14.5849V19.1929H59.5772ZM73.6064 19.4089C72.8384 19.4089 72.2084 19.2889 71.7164 19.0489C71.2244 18.7969 70.8584 18.4669 70.6184 18.0589C70.3784 17.6509 70.2584 17.2009 70.2584 16.7089C70.2584 15.8809 70.5824 15.2089 71.2304 14.6929C71.8784 14.1769 72.8504 13.9189 74.1464 13.9189H76.4144V13.7029C76.4144 13.0909 76.2404 12.6409 75.8924 12.3529C75.5444 12.0649 75.1124 11.9209 74.5964 11.9209C74.1284 11.9209 73.7204 12.0349 73.3724 12.2629C73.0244 12.4789 72.8084 12.8029 72.7244 13.2349H70.4744C70.5344 12.5869 70.7504 12.0229 71.1224 11.5429C71.5064 11.0629 71.9984 10.6969 72.5984 10.4449C73.1984 10.1809 73.8704 10.0489 74.6144 10.0489C75.8864 10.0489 76.8884 10.3669 77.6204 11.0029C78.3524 11.6389 78.7184 12.5389 78.7184 13.7029V19.1929H76.7564L76.5404 17.7529C76.2764 18.2329 75.9044 18.6289 75.4244 18.9409C74.9564 19.2529 74.3504 19.4089 73.6064 19.4089ZM74.1284 17.6089C74.7884 17.6089 75.2984 17.3929 75.6584 16.9609C76.0304 16.5289 76.2644 15.9949 76.3604 15.3589H74.3984C73.7864 15.3589 73.3484 15.4729 73.0844 15.7009C72.8204 15.9169 72.6884 16.1869 72.6884 16.5109C72.6884 16.8589 72.8204 17.1289 73.0844 17.3209C73.3484 17.5129 73.6964 17.6089 74.1284 17.6089ZM84.772 19.1929C83.836 19.1929 83.086 18.9649 82.522 18.5089C81.958 18.0529 81.676 17.2429 81.676 16.0789V12.1909H80.146V10.2649H81.676L81.946 7.87087H83.98V10.2649H86.392V12.1909H83.98V16.0969C83.98 16.5289 84.07 16.8289 84.25 16.9969C84.442 17.1529 84.766 17.2309 85.222 17.2309H86.338V19.1929H84.772Z" fill="#FDFDFD"/>
</svg>
