<svg width="38" height="44" viewBox="0 0 38 44" fill="none" xmlns="http://www.w3.org/2000/svg">
<path d="M37.735 40.7206L37.1323 35.7306C37.1313 35.7223 37.1302 35.714 37.1288 35.7057C36.9633 34.6862 36.488 33.7423 35.7676 33.0022C35.0472 32.2621 34.1165 31.7615 33.1019 31.5684L26.9556 30.4123H26.9552L25.2906 30.0992C26.9038 29.7856 28.4919 29.3546 30.0423 28.8097C30.7346 28.5655 31.3207 28.0889 31.701 27.461C32.0813 26.8331 32.2322 26.0929 32.128 25.3662L31.169 18.7914H31.704C32.047 18.791 32.3758 18.6546 32.6183 18.4121C32.8609 18.1695 32.9973 17.8407 32.9976 17.4977V14.8712C32.9973 14.5282 32.8609 14.1994 32.6183 13.9569C32.3758 13.7143 32.047 13.5779 31.704 13.5775H30.6401C30.557 13.3792 30.4518 13.1909 30.3265 13.0161L29.7916 9.34827C29.4123 6.75116 28.1109 4.37732 26.1254 2.66084C24.1398 0.944359 21.6027 -7.16808e-05 18.978 0.00024422H18.4932C15.8319 0.0037571 13.2631 0.976805 11.2674 2.73733C9.27164 4.49785 7.98575 6.92522 7.65028 9.56526L7.14694 13.5775H6.09455C5.75155 13.5779 5.42271 13.7143 5.18017 13.9568C4.93763 14.1994 4.80121 14.5282 4.80085 14.8712V17.4977C4.80121 17.8407 4.93763 18.1696 5.18017 18.4121C5.42271 18.6546 5.75155 18.7911 6.09455 18.7914H6.49296L5.66194 25.4159C5.5752 26.131 5.73377 26.8544 6.1117 27.4676C6.48963 28.0809 7.06453 28.5477 7.74232 28.7916C9.34081 29.3569 10.9797 29.8005 12.6451 30.1188L11.2269 30.3976L11.2174 30.3995L5.14082 31.5945C4.19546 31.7818 3.32387 32.2369 2.62986 32.9056C1.93586 33.5743 1.44868 34.4284 1.22637 35.3661C1.22362 35.3774 1.22124 35.3887 1.21923 35.4001L0.299959 40.523C0.204616 40.9395 0.204373 41.3721 0.299248 41.7887C0.394124 42.2053 0.581677 42.5951 0.847965 42.9292C1.11425 43.2634 1.45243 43.5332 1.83734 43.7186C2.22226 43.904 2.64402 44.0003 3.07127 44.0002H34.9249C35.3352 44.0003 35.7406 43.9115 36.1134 43.74C36.4861 43.5685 36.8174 43.3184 37.0844 43.0068C37.3513 42.6953 37.5477 42.3296 37.66 41.935C37.7723 41.5403 37.7979 41.1261 37.735 40.7206ZM30.8605 14.8685L31.7087 14.8711L31.704 17.5024H30.8605V14.8685ZM30.0031 19.7298L30.8524 25.5524C30.914 25.9833 30.8242 26.4222 30.5985 26.7944C30.3728 27.1666 30.025 27.4491 29.6144 27.5937C27.8281 28.2217 25.9901 28.692 24.1217 28.9994V26.5142L24.5879 26.2225C25.2672 25.7994 25.8406 25.2262 26.2639 24.5469H26.3691C27.1133 24.5462 27.8268 24.2503 28.3531 23.7241C28.8794 23.198 29.1755 22.4846 29.1764 21.7404V20.2992C29.4832 20.1593 29.7631 19.9666 30.0031 19.7298ZM21.4017 26.6955C20.6502 27.1614 19.7835 27.4083 18.8993 27.4083C18.0151 27.4083 17.1485 27.1614 16.397 26.6955L15.0608 25.8595C15.0586 25.8581 15.0562 25.8568 15.054 25.8553L13.8938 25.1295C13.3242 24.7759 12.8546 24.2825 12.5297 23.6962C12.2047 23.1098 12.0352 22.45 12.0374 21.7796V13.0576C12.6708 12.9707 13.2771 12.7443 13.8126 12.3948C14.348 12.0453 14.7992 11.5813 15.1337 11.0364C15.5434 11.4414 15.9875 11.8101 16.4611 12.1381L16.5862 12.2233C19.5191 14.2111 22.6853 13.7478 25.7609 13.2207V21.7798C25.7616 22.2862 25.6651 22.7879 25.4768 23.2579H21.1552C21.0239 22.8864 20.7807 22.5646 20.4591 22.3368C20.1375 22.109 19.7533 21.9865 19.3592 21.986H18.2646C17.7597 21.9866 17.2756 22.1874 16.9186 22.5444C16.5616 22.9015 16.3608 23.3855 16.3602 23.8904V23.9145C16.3608 24.4194 16.5616 24.9034 16.9186 25.2604C17.2757 25.6175 17.7597 25.8183 18.2646 25.8189H19.3592C19.7533 25.8184 20.1375 25.6958 20.4591 25.4681C20.7807 25.2403 21.0239 24.9186 21.1552 24.547H24.6298C24.4116 24.7689 24.1681 24.9644 23.9043 25.1297L21.4017 26.6955ZM22.8326 27.3208V30.2554C22.8323 30.3287 22.8154 30.401 22.7831 30.4668C22.7509 30.5326 22.7041 30.5902 22.6464 30.6353L19.0061 33.4687L15.5223 30.6434C15.424 30.5642 15.361 30.4493 15.347 30.3239C15.3467 30.3192 15.3467 30.3144 15.3462 30.3098C15.3452 30.2966 15.344 30.2834 15.344 30.27V27.5574L15.7135 27.7886C16.6703 28.3817 17.7737 28.696 18.8994 28.696C20.0251 28.6959 21.1285 28.3816 22.0852 27.7884L22.8326 27.3208ZM19.9745 23.8904V23.9144C19.9743 24.0776 19.9094 24.234 19.7941 24.3493C19.6787 24.4647 19.5223 24.5295 19.3592 24.5297H18.2646C18.1015 24.5295 17.9451 24.4647 17.8297 24.3493C17.7143 24.234 17.6495 24.0776 17.6493 23.9144V23.8904C17.6495 23.7272 17.7143 23.5708 17.8297 23.4554C17.945 23.3401 18.1014 23.2752 18.2646 23.275H19.3592C19.5223 23.2752 19.6787 23.3401 19.7941 23.4554C19.9094 23.5708 19.9743 23.7272 19.9745 23.8904ZM26.8632 23.1736C26.9874 22.7194 27.0502 22.2506 27.05 21.7797V20.5568H27.8874V21.7404C27.8868 22.0561 27.7879 22.3638 27.6043 22.6207C27.4208 22.8776 27.1617 23.0709 26.8632 23.1737V23.1736ZM29.5714 14.6792V17.6897C29.5709 18.1081 29.4045 18.5092 29.1087 18.805C28.8129 19.1009 28.4118 19.2673 27.9934 19.2678H27.05V13.1012H27.9934C28.4118 13.1016 28.8129 13.2681 29.1087 13.5639C29.4045 13.8597 29.5709 14.2609 29.5714 14.6792ZM8.9292 9.72571C9.22516 7.3971 10.3594 5.2561 12.1198 3.70331C13.8801 2.15052 16.1459 1.29233 18.4933 1.28931H18.9781C21.2931 1.28897 23.5309 2.12193 25.2822 3.63586C27.0336 5.1498 28.1815 7.24354 28.516 9.53424L28.8683 11.9493C28.5856 11.8584 28.2905 11.8121 27.9935 11.8121H26.438C26.4348 11.812 26.4317 11.8123 26.4286 11.8121H26.4055L26.403 11.8123C26.3829 11.8123 26.3628 11.8134 26.3428 11.8154L26.3342 11.8163C26.3218 11.8177 26.3095 11.8185 26.2973 11.8206L25.8561 11.8963C22.7995 12.4229 19.9124 12.9202 17.3096 11.1562L17.1923 11.0763C16.5436 10.6269 15.9599 10.0905 15.4574 9.48216C15.3838 9.39307 15.2877 9.32539 15.179 9.28619C15.0704 9.24698 14.9532 9.2377 14.8397 9.25931C14.7262 9.28092 14.6207 9.33262 14.534 9.40902C14.4474 9.48541 14.3829 9.58369 14.3472 9.69356C14.1465 10.3152 13.752 10.8562 13.2216 11.2374C12.6912 11.6186 12.0527 11.82 11.3996 11.8122L11.3967 11.8123L11.3929 11.8121H9.80507C9.402 11.8122 9.00354 11.8979 8.63607 12.0635L8.9292 9.72571ZM8.22709 14.6791C8.22759 14.2608 8.39399 13.8598 8.6898 13.564C8.9856 13.2681 9.38666 13.1017 9.80499 13.1012H10.7483V19.2678H9.80499C9.38661 19.2673 8.98551 19.1009 8.68968 18.805C8.39386 18.5092 8.22746 18.1081 8.22701 17.6897L8.22709 14.6791ZM6.08983 17.4977L6.09447 14.8666H6.93794V17.5004L6.08983 17.4977ZM8.17226 27.5765C7.77086 27.4318 7.43045 27.1551 7.20675 26.7918C6.98305 26.4284 6.88931 25.9999 6.94087 25.5764L7.68818 19.619C7.95608 19.9143 8.28281 20.1503 8.64737 20.3119C9.01193 20.4734 9.40625 20.5568 9.80499 20.5568H10.7483V21.7797C10.7455 22.6688 10.9702 23.5438 11.4012 24.3214C11.8321 25.0991 12.4549 25.7535 13.2103 26.2224L14.055 26.751V29.054C12.0522 28.7467 10.0826 28.2521 8.17226 27.5765ZM14.2682 31.1133C14.3793 31.3177 14.5295 31.4983 14.7103 31.6447L18.2741 34.5347C18.4772 34.7009 18.7308 34.7928 18.9931 34.7954C19.2554 34.7979 19.5108 34.7109 19.717 34.5488L23.4379 31.6528C23.6162 31.5136 23.7661 31.3413 23.8794 31.1455L26.1116 31.5653C26.0286 31.8177 25.873 32.04 25.6642 32.2043L19.033 37.3653C19.0059 37.3865 18.9724 37.3978 18.9379 37.3975C18.9035 37.3971 18.8702 37.3851 18.8435 37.3633L12.491 32.2112C12.2804 32.0405 12.1271 31.8095 12.0517 31.5492L14.2682 31.1133ZM36.1082 42.165C35.9623 42.3364 35.781 42.474 35.5766 42.5683C35.3723 42.6626 35.1499 42.7113 34.9249 42.7112H3.07127C2.83691 42.7112 2.60557 42.6582 2.39458 42.5562C2.1836 42.4541 1.99843 42.3057 1.85294 42.1219C1.70746 41.9382 1.60542 41.7239 1.55448 41.4952C1.50353 41.2664 1.505 41.0291 1.55877 40.801C1.56141 40.7897 1.56373 40.7783 1.56573 40.7668L2.48475 35.6456C2.65239 34.9523 3.01502 34.3214 3.52979 33.8277C4.04455 33.3339 4.68992 32.9979 5.38961 32.8592L10.7827 31.7988C10.9184 32.3557 11.2335 32.8526 11.6795 33.2128L18.0319 38.3647C18.2844 38.5709 18.5996 38.6849 18.9256 38.6881C19.2516 38.6912 19.5689 38.5833 19.8254 38.3821L26.4567 33.2211C26.9151 32.8653 27.2422 32.3672 27.3865 31.8051L32.8632 32.8352C33.6153 32.9783 34.3053 33.3488 34.8402 33.8965C35.375 34.4442 35.7289 35.1428 35.8541 35.8981L36.4565 40.8867C36.4576 40.8949 36.4588 40.9031 36.4601 40.9113C36.4957 41.1333 36.4827 41.3604 36.422 41.5769C36.3612 41.7934 36.2541 41.994 36.1081 42.165H36.1082Z" fill="#F4F4F4"/>
</svg>
