<svg width="31" height="32" viewBox="0 0 31 32" fill="none" xmlns="http://www.w3.org/2000/svg">
<g clip-path="url(#clip0_1_22614)">
<path d="M26.6076 5.89547L30.8734 4.79099L15.8587 0.903442L0.786865 4.79127L6.30514 6.21453V13.2118L6.73601 13.3717C5.23489 15.3048 4.33756 17.7442 4.33756 20.393C4.33756 26.6509 9.34371 31.7422 15.4971 31.7422C21.6506 31.7422 26.6568 26.6509 26.6568 20.393C26.6568 17.7261 25.747 15.2717 24.2273 13.3324L24.5522 13.2037V6.42765L25.927 6.06918V8.56183L25.3021 9.79954V12.6131H27.3642V9.75447L26.6238 8.54797L26.6076 5.89547ZM15.8582 1.9526L26.8209 4.79099L15.8582 7.62937L4.85384 4.79121L15.8582 1.9526ZM9.6743 14.4622C9.02482 14.3687 8.35419 14.2584 7.6743 14.1315L7.36222 14.0732L7.56299 13.8233C7.59305 13.7859 7.62444 13.7497 7.65502 13.7128L9.6743 14.4622ZM5.28431 19.7196C5.38909 18.0676 5.88858 16.4464 6.72872 15.0303L6.79639 14.9165L6.92497 14.942C7.84579 15.1239 8.74597 15.2773 9.60051 15.3979L9.80811 15.4272L9.75642 15.6338C9.43537 16.9175 9.2507 18.2976 9.20756 19.7377L9.20201 19.9216H5.27143L5.28431 19.7196ZM6.79572 25.8683L6.72805 25.7542C5.88834 24.3383 5.38909 22.7232 5.28431 21.0716L5.27144 20.8748H9.20201L9.20757 21.0535C9.25071 22.4933 9.43531 23.8711 9.75625 25.1546L9.80794 25.3596L9.60033 25.3881C8.74225 25.5091 7.84195 25.662 6.92437 25.8433L6.79572 25.8683ZM11.6679 30.0438C10.0725 29.3846 8.65333 28.3194 7.56373 26.9634L7.36277 26.7133L7.67522 26.6552C8.44939 26.5113 9.20683 26.3885 9.92644 26.2904L10.0782 26.2697L10.1284 26.4168C10.5811 27.7431 11.1715 28.8632 11.8834 29.7463L12.3506 30.3259L11.6679 30.0438ZM15.0537 30.7719L14.8118 30.7127C13.3312 30.3367 11.9793 28.7599 11.1106 26.3867L11.0238 26.1557L11.2637 26.1305C12.4561 26.0061 13.6699 25.9332 14.8547 25.9137L15.0537 25.9105V30.7719H15.0537ZM15.0537 24.9709L14.8601 24.9738C13.5607 24.9946 12.2271 25.0794 10.9054 25.226L10.7433 25.2437L10.7006 25.0856C10.3698 23.8271 10.1782 22.4787 10.1321 21.0656L10.1251 20.8748H15.0537V24.9709ZM10.1251 19.9216L10.1315 19.7256C10.1776 18.3125 10.3687 16.9583 10.6994 15.6997L10.741 15.5419L10.9008 15.5597C11.6445 15.6421 12.3916 15.7041 13.1355 15.7468L15.0537 16.4587V19.9216H10.1251V19.9216ZM18.1818 15.7274C18.8181 15.6858 19.4567 15.6301 20.0936 15.5595L20.2534 15.5418L20.295 15.6998C20.6258 16.9582 20.817 18.312 20.8632 19.7256L20.8697 19.9216H15.9286V16.62L18.1818 15.7274ZM15.9286 20.8748H20.8697L20.8632 21.0656C20.817 22.4791 20.6259 23.8307 20.2951 25.089L20.2535 25.2454L20.0936 25.227C18.7714 25.0804 17.4272 24.995 16.1282 24.9742L15.9286 24.9709V20.8748H15.9286ZM16.1765 30.7128L15.9286 30.7719V25.9105L16.1342 25.9137C17.3185 25.9332 18.5314 26.0061 19.7243 26.1306L19.9692 26.1558L19.879 26.3868C19.0102 28.76 17.6571 30.3368 16.1765 30.7128ZM23.4306 26.9635C22.3411 28.3193 20.9221 29.3843 19.3268 30.0435L18.644 30.3257L19.1113 29.746C19.8232 28.863 20.4136 27.7429 20.8662 26.417L20.9164 26.2698L21.0682 26.2906C21.7887 26.3888 22.5461 26.5116 23.3191 26.6553L23.6315 26.7134L23.4306 26.9635ZM25.71 21.0716C25.6052 22.7232 25.1059 24.3415 24.2662 25.7573L24.1986 25.8699L24.0699 25.8437C23.1527 25.6625 22.2525 25.5089 21.3943 25.3878L21.1867 25.3583L21.2384 25.1517C21.5594 23.8684 21.744 22.4937 21.7871 21.0535L21.7926 20.8748H25.7228L25.71 21.0716ZM25.71 19.7196L25.7228 19.9216H21.7926L21.7871 19.7377C21.744 18.2975 21.5594 16.9171 21.2384 15.6339L21.1867 15.4275L21.3943 15.3985C22.2524 15.2775 23.1526 15.1243 24.0699 14.9431L24.1985 14.9176L24.2662 15.0317C25.1059 16.4476 25.6052 18.068 25.71 19.7196ZM23.4311 13.8231L23.6317 14.0729L23.3198 14.1313C22.6472 14.2573 22.015 14.3632 21.3972 14.4536L23.3212 13.6914C23.3578 13.7353 23.3952 13.7785 23.4311 13.8231ZM23.5524 12.5089L15.7041 15.6176L7.30498 12.5008V6.4724L15.8587 8.67853L23.5524 6.68652V12.5089Z" fill="#FCFCFC"/>
</g>
<defs>
<clipPath id="clip0_1_22614">
<rect width="30.0866" height="30.8387" fill="white" transform="translate(0.786865 0.903442)"/>
</clipPath>
</defs>
</svg>
