<svg width="87" height="23" viewBox="0 0 87 23" fill="none" xmlns="http://www.w3.org/2000/svg">
<g filter="url(#filter0_d_1_22450)">
<path d="M5.576 2.4V0.335999H9.432V12H7.128V2.4H5.576ZM11.6449 6.016C11.6449 4.17067 11.9755 2.72533 12.6369 1.68C13.3089 0.634666 14.4182 0.112 15.9649 0.112C17.5115 0.112 18.6155 0.634666 19.2769 1.68C19.9489 2.72533 20.2849 4.17067 20.2849 6.016C20.2849 7.872 19.9489 9.328 19.2769 10.384C18.6155 11.44 17.5115 11.968 15.9649 11.968C14.4182 11.968 13.3089 11.44 12.6369 10.384C11.9755 9.328 11.6449 7.872 11.6449 6.016ZM18.0769 6.016C18.0769 5.22667 18.0235 4.56533 17.9169 4.032C17.8209 3.488 17.6182 3.04533 17.3089 2.704C17.0102 2.36267 16.5622 2.192 15.9649 2.192C15.3675 2.192 14.9142 2.36267 14.6049 2.704C14.3062 3.04533 14.1035 3.488 13.9969 4.032C13.9009 4.56533 13.8529 5.22667 13.8529 6.016C13.8529 6.82667 13.9009 7.50933 13.9969 8.064C14.0929 8.608 14.2955 9.05067 14.6049 9.392C14.9142 9.72267 15.3675 9.888 15.9649 9.888C16.5622 9.888 17.0155 9.72267 17.3249 9.392C17.6342 9.05067 17.8369 8.608 17.9329 8.064C18.0289 7.50933 18.0769 6.82667 18.0769 6.016ZM30.6126 7.28H27.5886V10.384H25.4766V7.28H22.4526V5.328H25.4766V2.224H27.5886V5.328H30.6126V7.28ZM45.7184 0.832L41.9424 8.112V12H39.7024V8.112L35.9104 0.832H38.4384L40.8384 5.936L43.2224 0.832H45.7184ZM55.2503 7.376C55.2503 7.696 55.2289 7.984 55.1863 8.24H48.7063C48.7596 8.88 48.9836 9.38133 49.3783 9.744C49.7729 10.1067 50.2583 10.288 50.8343 10.288C51.6663 10.288 52.2583 9.93067 52.6103 9.216H55.0263C54.7703 10.0693 54.2796 10.7733 53.5543 11.328C52.8289 11.872 51.9383 12.144 50.8823 12.144C50.0289 12.144 49.2609 11.9573 48.5783 11.584C47.9063 11.2 47.3783 10.6613 46.9943 9.968C46.6209 9.27467 46.4342 8.47467 46.4342 7.568C46.4342 6.65067 46.6209 5.84533 46.9943 5.152C47.3676 4.45867 47.8903 3.92533 48.5623 3.552C49.2343 3.17867 50.0076 2.992 50.8823 2.992C51.7249 2.992 52.4769 3.17333 53.1383 3.536C53.8103 3.89867 54.3276 4.416 54.6903 5.088C55.0636 5.74933 55.2503 6.512 55.2503 7.376ZM52.9303 6.736C52.9196 6.16 52.7116 5.70133 52.3063 5.36C51.9009 5.008 51.4049 4.832 50.8183 4.832C50.2636 4.832 49.7943 5.00267 49.4103 5.344C49.0369 5.67467 48.8076 6.13867 48.7223 6.736H52.9303ZM56.3092 7.536C56.3092 6.64 56.4852 5.84533 56.8372 5.152C57.1999 4.45867 57.6853 3.92533 58.2933 3.552C58.9119 3.17867 59.5999 2.992 60.3573 2.992C61.0186 2.992 61.5946 3.12533 62.0853 3.392C62.5866 3.65867 62.9866 3.99467 63.2853 4.4V3.136H65.5413V12H63.2853V10.704C62.9973 11.12 62.5973 11.4667 62.0853 11.744C61.5839 12.0107 61.0026 12.144 60.3413 12.144C59.5946 12.144 58.9119 11.952 58.2933 11.568C57.6853 11.184 57.1999 10.6453 56.8372 9.952C56.4852 9.248 56.3092 8.44267 56.3092 7.536ZM63.2853 7.568C63.2853 7.024 63.1786 6.56 62.9653 6.176C62.7519 5.78133 62.4639 5.48267 62.1013 5.28C61.7386 5.06667 61.3493 4.96 60.9333 4.96C60.5173 4.96 60.1333 5.06133 59.7812 5.264C59.4293 5.46667 59.1413 5.76533 58.9173 6.16C58.7039 6.544 58.5973 7.00267 58.5973 7.536C58.5973 8.06933 58.7039 8.53867 58.9173 8.944C59.1413 9.33867 59.4293 9.64267 59.7812 9.856C60.1439 10.0693 60.5279 10.176 60.9333 10.176C61.3493 10.176 61.7386 10.0747 62.1013 9.872C62.4639 9.65867 62.7519 9.36 62.9653 8.976C63.1786 8.58133 63.2853 8.112 63.2853 7.568ZM69.969 4.512C70.257 4.04267 70.6303 3.67467 71.089 3.408C71.5583 3.14133 72.0917 3.008 72.689 3.008V5.36H72.097C71.393 5.36 70.8597 5.52533 70.497 5.856C70.145 6.18667 69.969 6.76267 69.969 7.584V12H67.729V3.136H69.969V4.512ZM77.5898 12.144C76.8644 12.144 76.2138 12.016 75.6378 11.76C75.0618 11.4933 74.6031 11.136 74.2618 10.688C73.9311 10.24 73.7498 9.744 73.7178 9.2H75.9738C76.0164 9.54133 76.1818 9.824 76.4698 10.048C76.7684 10.272 77.1364 10.384 77.5738 10.384C78.0004 10.384 78.3311 10.2987 78.5658 10.128C78.8111 9.95733 78.9338 9.73867 78.9338 9.472C78.9338 9.184 78.7844 8.97067 78.4858 8.832C78.1978 8.68267 77.7338 8.52267 77.0938 8.352C76.4324 8.192 75.8884 8.02667 75.4618 7.856C75.0458 7.68533 74.6831 7.424 74.3738 7.072C74.0751 6.72 73.9258 6.24533 73.9258 5.648C73.9258 5.15733 74.0644 4.70933 74.3418 4.304C74.6298 3.89867 75.0351 3.57867 75.5578 3.344C76.0911 3.10933 76.7151 2.992 77.4298 2.992C78.4858 2.992 79.3284 3.25867 79.9578 3.792C80.5871 4.31467 80.9338 5.024 80.9978 5.92H78.8538C78.8218 5.568 78.6724 5.29067 78.4058 5.088C78.1498 4.87467 77.8031 4.768 77.3658 4.768C76.9604 4.768 76.6458 4.84267 76.4218 4.992C76.2084 5.14133 76.1018 5.34933 76.1018 5.616C76.1018 5.91467 76.2511 6.144 76.5498 6.304C76.8484 6.45333 77.3124 6.608 77.9418 6.768C78.5818 6.928 79.1098 7.09333 79.5258 7.264C79.9418 7.43467 80.2991 7.70133 80.5978 8.064C80.9071 8.416 81.0671 8.88533 81.0778 9.472C81.0778 9.984 80.9338 10.4427 80.6458 10.848C80.3684 11.2533 79.9631 11.5733 79.4298 11.808C78.9071 12.032 78.2938 12.144 77.5898 12.144Z" fill="white"/>
</g>
<defs>
<filter id="filter0_d_1_22450" x="0.63307" y="0.112" width="85.3874" height="21.9177" filterUnits="userSpaceOnUse" color-interpolation-filters="sRGB">
<feFlood flood-opacity="0" result="BackgroundImageFix"/>
<feColorMatrix in="SourceAlpha" type="matrix" values="0 0 0 0 0 0 0 0 0 0 0 0 0 0 0 0 0 0 127 0" result="hardAlpha"/>
<feOffset dy="4.94286"/>
<feGaussianBlur stdDeviation="2.47143"/>
<feComposite in2="hardAlpha" operator="out"/>
<feColorMatrix type="matrix" values="0 0 0 0 0 0 0 0 0 0 0 0 0 0 0 0 0 0 0.8 0"/>
<feBlend mode="normal" in2="BackgroundImageFix" result="effect1_dropShadow_1_22450"/>
<feBlend mode="normal" in="SourceGraphic" in2="effect1_dropShadow_1_22450" result="shape"/>
</filter>
</defs>
</svg>
