<svg width="1232" height="111" viewBox="0 0 1232 111" fill="none" xmlns="http://www.w3.org/2000/svg">
<g filter="url(#filter0_d_1_21958)">
<path d="M1227.94 42.019C1228.12 29.396 1227.85 4.39605 1227.85 4.03102C1227.85 3.47789 1227.7 0.811788 1227.7 0.000552146C1171.35 0.000531635 168.005 0.0630909 4.54696 2.39083e-08C4.37138 12.623 4.19729 25.2697 4.02172 37.8919C4.0225 39.2546 3.97296 40.7095 4.02099 41.5023C4.22969 44.8656 4.07141 48.9697 4.02171 52.336C3.9654 56.3034 4.07803 59.427 4.02171 63.3944C3.98693 66.2784 4.05649 67.7929 4.02171 70.6768C10.6107 70.3184 20.0636 70.957 25.4765 69.6203C31.943 68.0228 38.3415 69.0169 43.5391 69.2912C49.507 69.606 54.375 69.4091 59.7433 68.6472C61.9313 68.3369 64.4043 68.4406 66.7464 68.3564C68.31 67.3367 70.6653 66.4057 71.2831 65.2794C72.9229 62.2888 78.2448 61.9085 83.3497 61.487C84.9912 61.3517 88.2807 61.9401 88.6004 62.4721C90.1855 65.1058 94.1757 65.3628 99.0901 65.232C102.621 65.1381 106.176 65.229 109.721 65.2365C111.203 64.8796 112.626 64.2898 114.179 64.2063C120.641 63.8592 127.134 63.5639 133.63 63.4534C137.294 63.3911 141.483 63.3017 144.507 64.0245C146.636 64.5332 152.243 64.522 150.253 66.9813C147.479 70.2672 149.316 72.8145 156.148 74.5631C160.162 77.9497 166.961 77.831 174.252 77.982C181.82 78.1383 189.292 79.2023 196.815 79.85C199.631 80.0927 202.632 80.7449 204.138 78.7627C204.449 78.3524 207.302 77.9437 208.529 78.1345C218.571 79.6945 224.531 76.5505 231.253 74.2497C234.474 72.4937 237.943 70.8165 240.848 68.9583C243.713 67.1248 247.14 66.1345 252.187 66.1706C264.585 66.2592 276.99 66.2006 289.382 66.3426C292.26 66.3757 295.107 66.9731 297.967 67.3104C302.928 67.0069 307.819 65.9789 312.899 65.2065C316.126 64.7158 319.666 64.3101 323.012 64.3814C331.658 64.564 340.267 65.087 348.91 65.3463C350.938 65.4071 353.268 65.1524 355.065 64.7121C362.878 62.7997 370.788 62.7817 379.033 64.0193C380.504 64.2402 382.38 63.9396 384.057 63.8382C389.259 63.5233 394.694 62.5916 399.603 62.9928C408.463 63.7172 416.288 63.3272 424.086 61.2992C428.27 60.2111 432.558 60.3764 436.565 62.0528C438.495 62.8598 441.638 63.2423 444.367 63.4399C447.658 63.6789 451.116 63.4106 454.449 63.5782C455.963 63.6548 458.363 64.1395 458.628 64.6317C460.223 67.587 462.071 70.6392 456.547 73.2691C454.78 76.5716 452.7 79.9109 462.078 81.7255C462.525 81.8119 462.726 82.1659 463.03 82.398C465.276 84.1105 468.203 85.3593 472.619 85.953C478.247 86.7096 481.31 88.6378 482.716 91.1723C484.575 94.5191 491.028 95.8393 496.991 96.5103C508.383 97.7938 521.286 96.8815 529.873 101.774C530.194 101.957 530.934 102.051 531.501 102.074C537.404 102.309 543.312 102.711 549.217 102.703C563.083 102.682 576.956 102.557 590.805 102.271C595.231 102.179 599.576 101.409 603.988 101.023C609.482 100.542 615.013 100.149 620.519 99.6963C625.259 99.3071 630.157 99.1177 634.679 98.4264C640.731 97.5015 647.1 95.9693 652.895 97.5804C662.84 100.346 673.742 99.4754 684.025 99.5859C696.701 99.7226 709.47 98.5452 722.151 97.7705C724.801 97.6082 727.233 96.7192 729.777 96.1775C732.251 95.6515 734.786 94.6618 737.217 94.7077C747.664 94.903 758.076 95.686 768.513 95.7349C787.536 95.8235 806.566 95.5215 825.594 95.4403C828.118 95.4298 831.027 95.4509 833.112 95.9798C843.161 98.5316 854.03 97.5248 864.593 97.6187C868.813 97.6563 873.295 96.448 877.26 96.7809C895.843 98.3423 911.946 95.5402 927.711 91.6374C929.962 91.0799 932.979 91.1084 935.667 90.9874C936.975 90.9288 938.411 91.3196 939.673 91.2166C946.756 90.638 953.748 89.7183 960.878 89.3899C972.653 88.8474 984.514 88.6964 996.331 88.3244C1007.79 87.9638 1018.55 89.7108 1029.63 90.4104C1045.25 91.3955 1061.19 91.3143 1076.96 91.8388C1086.69 92.1627 1096.36 92.8209 1106.07 93.2297C1120.7 93.8443 1134.21 97.6134 1149.5 96.3714C1150.41 96.2977 1151.43 96.5284 1152.4 96.6013C1163.84 97.4602 1175.29 98.2807 1186.7 99.1884C1192.11 99.6182 1198.06 99.7016 1202.68 100.848C1209.86 102.632 1219.85 103.087 1227.94 102.987C1227.94 83.705 1227.94 65.0657 1227.94 45.2327C1227.96 44.2032 1227.53 43.0454 1227.94 42.019Z" fill="#FFEFE3"/>
</g>
<defs>
<filter id="filter0_d_1_21958" x="0" y="0" width="1232" height="111" filterUnits="userSpaceOnUse" color-interpolation-filters="sRGB">
<feFlood flood-opacity="0" result="BackgroundImageFix"/>
<feColorMatrix in="SourceAlpha" type="matrix" values="0 0 0 0 0 0 0 0 0 0 0 0 0 0 0 0 0 0 127 0" result="hardAlpha"/>
<feOffset dy="4"/>
<feGaussianBlur stdDeviation="2"/>
<feComposite in2="hardAlpha" operator="out"/>
<feColorMatrix type="matrix" values="0 0 0 0 0 0 0 0 0 0 0 0 0 0 0 0 0 0 0.25 0"/>
<feBlend mode="normal" in2="BackgroundImageFix" result="effect1_dropShadow_1_21958"/>
<feBlend mode="normal" in="SourceGraphic" in2="effect1_dropShadow_1_21958" result="shape"/>
</filter>
</defs>
</svg>
