<svg width="1230" height="83" viewBox="0 0 1230 83" fill="none" xmlns="http://www.w3.org/2000/svg">
<g filter="url(#filter0_d_1_22537)">
<path d="M1225.94 30.5964C1226.12 21.4049 1225.85 3.20102 1225.85 2.93522C1225.85 2.53246 1225.7 0.591122 1225.7 0.000416501C1169.45 0.000400901 167.737 0.0459419 4.54606 2.38692e-08C4.37078 9.19147 4.19697 18.4003 4.02168 27.5912C4.02246 28.5835 3.973 29.6429 4.02096 30.2201C4.22932 32.6691 4.07129 35.6575 4.02168 38.1087C3.96546 40.9976 4.0779 43.2721 4.02168 46.161C3.98695 48.2609 4.0564 49.3638 4.02168 51.4637C10.5999 51.2027 20.0373 51.6677 25.4414 50.6944C31.8973 49.5311 38.2854 50.255 43.4745 50.4547C49.4326 50.684 54.2927 50.5406 59.6522 49.9858C61.8367 49.7599 64.3056 49.8354 66.6438 49.7741C68.2049 49.0316 70.5564 48.3537 71.1732 47.5335C72.8103 45.3559 78.1235 45.079 83.2201 44.7721C84.8588 44.6736 88.143 45.102 88.4621 45.4894C90.0447 47.4071 94.0283 47.5943 98.9347 47.4991C102.46 47.4307 106.009 47.4969 109.548 47.5023C111.028 47.2424 112.448 46.8129 113.999 46.7522C120.45 46.4994 126.933 46.2844 133.418 46.204C137.076 46.1585 141.258 46.0934 144.278 46.6198C146.403 46.9902 152 46.982 150.014 48.7728C147.244 51.1655 149.078 53.0203 155.9 54.2935C159.906 56.7595 166.695 56.673 173.974 56.783C181.53 56.8968 188.989 57.6716 196.5 58.1432C199.311 58.3199 202.308 58.7948 203.811 57.3515C204.122 57.0527 206.969 56.7551 208.195 56.8941C218.221 58.0299 224.171 55.7407 230.881 54.0653C234.098 52.7867 237.56 51.5654 240.461 50.2123C243.322 48.8773 246.743 48.1562 251.782 48.1824C264.159 48.247 276.543 48.2043 288.916 48.3077C291.788 48.3318 294.631 48.7668 297.487 49.0125C302.44 48.7914 307.323 48.0429 312.395 47.4805C315.616 47.1232 319.15 46.8277 322.49 46.8797C331.122 47.0126 339.718 47.3935 348.347 47.5822C350.371 47.6265 352.697 47.4411 354.492 47.1204C362.292 45.728 370.188 45.7148 378.42 46.616C379.888 46.7768 381.762 46.558 383.436 46.4841C388.63 46.2549 394.055 45.5764 398.957 45.8686C407.802 46.396 415.614 46.112 423.399 44.6353C427.576 43.843 431.858 43.9634 435.858 45.1841C437.785 45.7717 440.923 46.0502 443.647 46.1941C446.933 46.3681 450.385 46.1728 453.713 46.2948C455.224 46.3506 457.62 46.7035 457.885 47.0619C459.477 49.2138 461.323 51.4363 455.808 53.3513C454.043 55.756 451.966 58.1875 461.329 59.5089C461.776 59.5718 461.976 59.8295 462.28 59.9986C464.523 61.2455 467.445 62.1549 471.853 62.5871C477.472 63.1381 480.53 64.5421 481.934 66.3876C483.789 68.8246 490.232 69.7859 496.185 70.2745C507.559 71.209 520.441 70.5448 529.013 74.1072C529.334 74.2407 530.073 74.3091 530.639 74.3255C536.532 74.4968 542.431 74.7895 548.326 74.7835C562.169 74.7687 576.02 74.6773 589.846 74.4689C594.265 74.4021 598.602 73.8413 603.008 73.5601C608.493 73.2099 614.014 72.9238 619.511 72.5944C624.244 72.311 629.134 72.1731 633.648 71.6697C639.691 70.9962 646.049 69.8806 651.835 71.0537C661.764 73.0672 672.648 72.4335 682.914 72.514C695.569 72.6136 708.317 71.7562 720.978 71.1921C723.623 71.0739 726.051 70.4266 728.591 70.0321C731.062 69.6491 733.592 68.9285 736.019 68.9619C746.449 69.1042 756.844 69.6743 767.263 69.7098C786.255 69.7744 805.254 69.5545 824.251 69.4954C826.772 69.4877 829.675 69.503 831.757 69.8882C841.79 71.7463 852.641 71.0132 863.187 71.0816C867.4 71.1089 871.875 70.2291 875.833 70.4715C894.386 71.6085 910.462 69.5681 926.202 66.7263C928.449 66.3203 931.461 66.3411 934.144 66.253C935.451 66.2103 936.884 66.4948 938.145 66.4199C945.216 65.9986 952.196 65.3289 959.315 65.0898C971.07 64.6947 982.912 64.5847 994.709 64.3139C1006.15 64.0513 1016.89 65.3234 1027.96 65.8328C1043.55 66.5501 1059.46 66.491 1075.21 66.8729C1084.92 67.1087 1094.57 67.588 1104.27 67.8857C1118.87 68.3332 1132.36 71.0777 1147.63 70.1733C1148.53 70.1197 1149.55 70.2877 1150.52 70.3407C1161.94 70.9661 1173.37 71.5636 1184.77 72.2246C1190.17 72.5375 1196.11 72.5983 1200.72 73.4332C1207.88 74.7321 1217.86 75.0633 1225.94 74.9905C1225.94 60.9502 1225.94 47.3779 1225.94 32.9364C1225.96 32.1868 1225.53 31.3438 1225.94 30.5964Z" fill="#F2D2BA"/>
</g>
<defs>
<filter id="filter0_d_1_22537" x="0" y="0" width="1230" height="83" filterUnits="userSpaceOnUse" color-interpolation-filters="sRGB">
<feFlood flood-opacity="0" result="BackgroundImageFix"/>
<feColorMatrix in="SourceAlpha" type="matrix" values="0 0 0 0 0 0 0 0 0 0 0 0 0 0 0 0 0 0 127 0" result="hardAlpha"/>
<feOffset dy="4"/>
<feGaussianBlur stdDeviation="2"/>
<feComposite in2="hardAlpha" operator="out"/>
<feColorMatrix type="matrix" values="0 0 0 0 0 0 0 0 0 0 0 0 0 0 0 0 0 0 0.25 0"/>
<feBlend mode="normal" in2="BackgroundImageFix" result="effect1_dropShadow_1_22537"/>
<feBlend mode="normal" in="SourceGraphic" in2="effect1_dropShadow_1_22537" result="shape"/>
</filter>
</defs>
</svg>
