<svg width="39" height="39" viewBox="0 0 39 39" fill="none" xmlns="http://www.w3.org/2000/svg">
<circle cx="19.2728" cy="19.4073" r="18.9297" transform="rotate(-1 19.2728 19.4073)" fill="#F9F9F9"/>
<g clip-path="url(#clip0_1_22802)">
<path d="M33.5494 19.1583C33.4206 11.7823 26.9244 5.91444 19.0397 6.05207C11.155 6.1897 4.86756 12.2807 4.9963 19.6567C5.11266 26.3228 10.4298 31.7569 17.2724 32.6396L17.1095 23.307L13.4846 23.3703L13.4172 19.5098L17.0421 19.4465L16.9908 16.5041C16.9323 13.1569 19.0315 11.2708 22.2925 11.2139C23.8545 11.1866 25.4929 11.4189 25.4929 11.4189L25.5502 14.7056L23.75 14.7371C21.9765 14.768 21.4414 15.8071 21.4598 16.8633L21.5035 19.3686L25.4631 19.2995L24.8975 23.1711L21.5709 23.2292L21.7338 32.5618C28.5415 31.4408 33.6657 25.8244 33.5494 19.1583Z" fill="#1877F2"/>
<path d="M24.8975 23.1712L25.463 19.2996L21.5035 19.3687L21.4598 16.8634C21.4414 15.8072 21.9765 14.7681 23.7499 14.7371L25.5502 14.7057L25.4928 11.419C25.4928 11.419 23.8545 11.1867 22.2925 11.2139C19.0314 11.2709 16.9323 13.157 16.9907 16.5042L17.0421 19.4466L13.4172 19.5098L13.4846 23.3704L17.1095 23.3071L17.2724 32.6397C18.7543 32.8303 20.2594 32.8041 21.7338 32.5618L21.5709 23.2292L24.8975 23.1712Z" fill="#F8F8F8"/>
</g>
<defs>
<clipPath id="clip0_1_22802">
<rect width="28.5574" height="26.715" fill="white" transform="translate(4.76318 6.30127) rotate(-1)"/>
</clipPath>
</defs>
</svg>
