<svg width="38" height="37" viewBox="0 0 38 37" fill="none" xmlns="http://www.w3.org/2000/svg">
<g clip-path="url(#clip0_1_22645)">
<path d="M33.0573 21.728L30.1392 21.0929V19.9281C30.7891 19.6544 31.3876 19.2655 31.9047 18.7693C32.7163 17.9902 33.2559 17.0199 33.4793 15.9641C34.4401 15.8456 35.1852 15.0559 35.1852 14.1018C35.1852 13.6024 34.9797 13.1295 34.6167 12.7791V8.47262C34.6167 5.79613 32.3485 3.61876 29.5606 3.61876V3.63315C29.2274 3.24439 28.723 2.99562 28.1591 2.99463H28.1505C28.144 2.99463 28.1375 2.99463 28.131 2.99463C26.2651 2.99463 24.4954 3.70521 23.1464 4.9967C21.7639 6.32035 21.0025 8.07026 21.0025 9.92418V12.8019C20.6541 13.1499 20.4566 13.6147 20.4566 14.1019C20.4566 14.438 20.5496 14.7535 20.7113 15.0267C20.2032 14.8982 19.6742 14.8319 19.1343 14.8348C18.1281 14.842 17.18 15.0943 16.3491 15.5317V14.8335C16.3491 12.6782 14.9116 10.7951 12.7721 10.1479L12.5513 10.8204C14.3834 11.3747 15.6145 12.9874 15.6145 14.8335V15.9882C14.3606 16.8989 13.4852 18.2752 13.2623 19.8468C12.4606 20.356 11.5304 20.6249 10.5611 20.6249C9.25072 20.6249 8.01832 20.1349 7.09097 19.2453C6.16413 18.3549 5.6537 17.1718 5.6537 15.9138V15.0139C5.6537 13.4722 6.58774 12.0576 8.03698 11.3979L8.07804 11.3798C9.80956 10.6142 10.9284 8.93633 10.9284 7.10518V6.50192H10.1939V7.10518C10.1939 8.64686 9.2613 10.0607 7.8136 10.7201L7.77005 10.7393C6.03823 11.5058 4.91917 13.1836 4.91917 15.0139V20.5071C4.91917 21.2571 5.03581 21.9974 5.26491 22.7129C4.12499 23.1228 3.18464 23.9213 2.62213 24.96C2.07975 24.3226 1.77543 23.5183 1.77543 22.6874C1.77543 21.5731 2.30084 20.5408 3.21725 19.8547C3.75228 19.4533 4.0591 18.8521 4.0591 18.2054V10.9832C4.0591 9.31034 4.73774 7.73757 5.96999 6.5546C7.18918 5.38489 8.80919 4.73361 10.5318 4.72078C12.2576 4.70766 13.8909 5.35407 15.1368 6.54085C16.4086 7.75202 17.1089 9.3578 17.1089 11.0622V14.1233H17.8434V11.0622C17.8434 9.16839 17.066 7.38485 15.6543 6.04026C14.2682 4.72014 12.4483 4.00236 10.526 4.01569C8.60955 4.03008 6.80707 4.75462 5.4506 6.05598C4.07959 7.37215 3.32456 9.12207 3.32456 10.9833V18.2055C3.32456 18.6337 3.12066 19.0323 2.76529 19.2989C1.66944 20.1192 1.04089 21.3543 1.04089 22.6875C1.04089 23.8045 1.49968 24.8823 2.30687 25.6804C2.14593 26.1529 2.0641 26.6455 2.0641 27.1482V33.8868H11.0746V33.1816H2.79842V27.1482C2.79842 26.6531 2.89104 26.1697 3.07394 25.7112C3.57622 24.4476 4.69638 23.5145 6.0704 23.2153L9.22479 22.5289V21.1772C9.65722 21.2776 10.1048 21.33 10.5609 21.33C11.032 21.33 11.4951 21.2738 11.9426 21.1658V22.5289L13.2049 22.8037V24.4943C13.2049 25.9799 14.4639 27.1885 16.0114 27.1885H16.1135V26.4833H16.0114C14.869 26.4833 13.9395 25.5911 13.9395 24.4943V20.6377C13.9395 17.8471 16.2723 15.5603 19.1397 15.5399C20.5504 15.5294 21.8723 16.0484 22.8708 16.9998C23.8695 17.9514 24.4195 19.2194 24.4195 20.5701V24.4943C24.4195 25.5911 23.49 26.4833 22.3476 26.4833V27.1885C23.895 27.1885 25.154 25.9799 25.154 24.4943V21.9019L25.5479 21.816V25.0277C25.5479 25.2301 25.6819 25.4101 25.8816 25.4754C25.9339 25.4926 25.9875 25.5008 26.0406 25.5008C26.1904 25.5008 26.3356 25.435 26.4308 25.3168L27.8436 23.4286L29.2487 25.307L29.2564 25.3169C29.3852 25.4771 29.6059 25.5408 29.8056 25.4755C30.0052 25.4101 30.1393 25.2302 30.1393 25.0277V21.8158L32.895 22.4157C35.0671 22.8881 36.5842 24.7115 36.5842 26.85V33.1816H33.4626V27.2896H32.728V33.1816H26.8255V33.8868H37.3187V26.85C37.3187 25.6634 36.8939 24.4991 36.1226 23.5721C35.3511 22.6451 34.2625 21.9901 33.0573 21.728ZM6.57143 19.7439C6.59185 19.7635 6.6133 19.7818 6.63409 19.8011V20.4879C6.63409 21.1066 6.71459 21.7204 6.87127 22.3181L5.96941 22.5143C5.75999 21.8633 5.65356 21.1896 5.65356 20.5071V18.5874C5.90139 19.0054 6.20776 19.3945 6.57143 19.7439ZM8.49033 21.9659L7.58766 22.1623C7.44274 21.6157 7.36862 21.054 7.36862 20.4879V20.3798C7.72039 20.6125 8.09633 20.8044 8.49033 20.9536V21.9659ZM12.6772 21.9659V20.9366C12.857 20.8667 13.0329 20.7868 13.205 20.6989V22.0808L12.6772 21.9659ZM33.5814 15.2247C33.59 15.1001 33.5959 14.975 33.5959 14.849V14.702C33.9636 14.5707 34.2659 14.3112 34.4436 13.9792C34.448 14.0198 34.4506 14.0607 34.4506 14.1019C34.4506 14.631 34.0837 15.079 33.5814 15.2247ZM33.882 8.47276V13.2962C33.882 13.5356 33.7708 13.7502 33.5959 13.8962V13.5029C33.5959 12.9114 33.4129 12.3405 33.0663 11.8514C32.9368 11.6696 32.8361 11.4687 32.7673 11.2549C32.6992 11.0419 32.6646 10.8211 32.6646 10.5984V9.86784C32.6646 8.76279 31.7281 7.86379 30.5798 7.86379L29.7346 7.85779C29.8926 7.42455 29.974 6.97078 29.974 6.50214V4.73925C29.974 4.60182 29.9568 4.46826 29.9253 4.33992C32.138 4.5184 33.882 6.30314 33.882 8.47276ZM21.7369 9.92425C21.7369 8.25903 22.4216 6.68639 23.665 5.49609C24.8754 4.33731 26.4607 3.69985 28.132 3.69985C28.1377 3.69985 28.1436 3.69985 28.1493 3.69985H28.1582C28.7543 3.70091 29.2393 4.16716 29.2393 4.73925V6.50214C29.2393 7.0456 29.1099 7.56523 28.8549 8.04635C28.2446 9.19554 27.0319 9.90944 25.6901 9.90944C24.7158 9.90944 23.8005 10.2735 23.1129 10.9343C22.4245 11.5953 22.0454 12.4737 22.0454 13.4077V13.8338C21.8531 13.6598 21.7369 13.4138 21.7369 13.1447V9.92425ZM21.2065 13.9264C21.3883 14.2522 21.6809 14.5148 22.0454 14.6638V14.849C22.0454 14.9746 22.0502 15.0997 22.059 15.2243C21.5574 15.0781 21.1912 14.6305 21.1912 14.1019C21.1911 14.0426 21.1974 13.9842 21.2065 13.9264ZM22.9585 16.1278C22.8405 15.7143 22.7799 15.2848 22.7799 14.849V13.4077C22.7799 12.662 23.0826 11.9607 23.6325 11.4328C24.1815 10.9052 24.9122 10.6146 25.6901 10.6146C27.2323 10.6146 28.6327 9.83293 29.3987 8.56062L30.577 8.56894C31.323 8.56894 31.93 9.15161 31.93 9.86784V10.5984C31.93 10.8913 31.9755 11.182 32.0654 11.4627C32.1562 11.7445 32.2888 12.0091 32.4593 12.2486C32.7224 12.6197 32.8614 13.0534 32.8614 13.5029V14.849C32.8614 16.1418 32.3372 17.357 31.3854 18.2707C30.4327 19.1845 29.1669 19.6878 27.821 19.6878C27.2082 19.6878 26.6106 19.5837 26.044 19.3782C25.6176 19.2244 25.2164 19.0153 24.849 18.7569C24.5577 17.9148 24.064 17.1433 23.3883 16.4995C23.2505 16.3681 23.1069 16.2444 22.9585 16.1278ZM25.154 21.1789V20.5702C25.154 20.288 25.1325 20.009 25.0911 19.7347C25.2399 19.8114 25.3922 19.8821 25.5477 19.9458V21.093L25.154 21.1789ZM26.2824 24.3068V22.0987L27.3398 22.8935L26.2824 24.3068ZM27.8435 22.3766L26.2822 21.2029V20.1938C26.7804 20.326 27.2961 20.3929 27.821 20.3929C28.3644 20.3929 28.8958 20.3198 29.4047 20.1813V21.203L27.8435 22.3766ZM29.4047 24.3068L28.3474 22.8934L29.4047 22.0987V24.3068Z" fill="#FCFCFC"/>
<path d="M20.6882 23.2618C20.8828 23.2618 21.0407 23.1103 21.0407 22.9234V22.6909C21.0407 22.5041 20.8829 22.3525 20.6882 22.3525C20.4936 22.3525 20.3358 22.504 20.3358 22.6909V22.9234C20.3358 23.1103 20.4936 23.2618 20.6882 23.2618ZM17.7727 23.2618C17.9673 23.2618 18.1252 23.1103 18.1252 22.9234V22.6909C18.1252 22.5041 17.9674 22.3525 17.7727 22.3525C17.578 22.3525 17.4202 22.504 17.4202 22.6909V22.9234C17.4202 23.1103 17.5779 23.2618 17.7727 23.2618ZM20.869 24.5455L20.2063 24.2413C20.024 24.6073 19.6335 24.8438 19.2114 24.8438C18.789 24.8438 18.3986 24.6074 18.2167 24.2416L17.5538 24.5453C17.8569 25.155 18.5076 25.549 19.2114 25.549C19.9147 25.549 20.5653 25.1551 20.869 24.5455Z" fill="#FCFCFC"/>
<path d="M14.7321 19.3359L16.0425 20.5939L16.5619 20.0953L15.2515 18.8373L14.7321 19.3359Z" fill="#FCFCFC"/>
<path d="M17.3517 19.3366L16.0414 18.0786L15.522 18.5772L16.8323 19.8352L17.3517 19.3366Z" fill="#FCFCFC"/>
<path d="M26.1535 31.4687C26.1535 29.6316 24.8501 28.065 22.9838 27.6589L20.9456 27.2155V26.6682C22.6176 26.0252 23.8697 24.4948 24.0952 22.6166C24.1473 22.1821 23.9552 21.7474 23.5938 21.482C23.2183 21.2061 22.5721 20.6132 22.463 19.742C22.4224 19.4169 22.202 19.1461 21.8882 19.0352L21.8536 19.0229C21.4899 18.8944 21.0865 19.0046 20.8497 19.2973C19.4997 20.9658 16.9099 21.4584 15.4862 21.6036C15.1191 21.6411 14.7842 21.8274 14.5674 22.1148C14.3509 22.4017 14.271 22.7647 14.3483 23.1105C14.5904 24.194 15.1981 25.1786 16.0595 25.8826C16.4678 26.2163 16.9262 26.4793 17.4133 26.6664V27.2155L15.375 27.6589C13.5088 28.065 12.2054 29.6317 12.2054 31.4687V33.8869H26.1535V31.4687H26.1535ZM15.0665 22.9625C15.0324 22.8097 15.0665 22.6555 15.1624 22.5284C15.2586 22.4009 15.4013 22.3214 15.564 22.3049C17.1036 22.1478 19.9131 21.6045 21.4298 19.7298C21.4583 19.6947 21.5016 19.6754 21.5465 19.6754C21.5642 19.6754 21.5822 19.6784 21.5997 19.6846L21.6343 19.6968C21.6881 19.7159 21.7262 19.7654 21.7338 19.826V19.8261C21.8749 20.9543 22.6801 21.6987 23.1475 22.042C23.3046 22.1575 23.3882 22.3467 23.3655 22.5358C23.1085 24.6764 21.3089 26.2907 19.1796 26.2907C17.1957 26.2906 15.5044 24.9221 15.0665 22.9625ZM19.1795 26.9957C19.5326 26.9957 19.8775 26.9569 20.2111 26.8856V27.3446C19.9246 27.5831 19.5636 27.7134 19.1795 27.7134C18.7954 27.7134 18.4343 27.5829 18.1478 27.3446V26.8855C18.4854 26.9581 18.8312 26.9957 19.1795 26.9957ZM17.6716 27.8823C18.0908 28.2294 18.6186 28.4187 19.1795 28.4187C19.7404 28.4187 20.2681 28.2293 20.6871 27.8823L21.9802 28.1636V30.1949H16.4807V28.1415L17.6716 27.8823ZM15.5374 28.3467L15.7462 28.3012V30.9H22.7148V28.3234L22.8215 28.3466C23.0723 28.4011 23.3103 28.4818 23.5337 28.5843V33.1817H14.8892V28.5557C15.0939 28.4669 15.3105 28.396 15.5374 28.3467ZM12.94 31.4687C12.94 30.4781 13.4026 29.5835 14.1547 28.9926V33.1818H12.94V31.4687ZM25.4189 33.1818H24.2682V29.0449C24.9822 29.6356 25.4189 30.5066 25.4189 31.4687V33.1818Z" fill="#FCFCFC"/>
<path d="M10.5838 18.2744C10.3026 18.2744 10.0426 18.117 9.92159 17.8734L9.25867 18.1771C9.50092 18.6645 10.0211 18.9795 10.5838 18.9795C11.146 18.9795 11.666 18.6647 11.9087 18.1774L11.2461 17.8733C11.1247 18.1169 10.8647 18.2744 10.5838 18.2744Z" fill="#FCFCFC"/>
<path d="M12.5726 25.233H4.29456V25.9382H12.5726V25.233Z" fill="#FCFCFC"/>
<path d="M13.2166 14.7973C13.4405 14.7973 13.6228 14.9723 13.6228 15.1873H14.3573C14.3573 14.5834 13.8456 14.0922 13.2166 14.0922C12.5876 14.0922 12.0758 14.5834 12.0758 15.1873H12.8104C12.8104 14.9723 12.9926 14.7973 13.2166 14.7973ZM6.81018 15.1873H7.54472C7.54472 14.9723 7.72695 14.7973 7.95091 14.7973C8.17495 14.7973 8.35711 14.9723 8.35711 15.1873H9.09165C9.09165 14.5834 8.5799 14.0922 7.95091 14.0922C7.32193 14.0922 6.81018 14.5834 6.81018 15.1873Z" fill="#FCFCFC"/>
<path d="M27.8442 17.9567C28.417 17.9567 28.947 17.6359 29.1943 17.1394L28.5317 16.8352C28.4056 17.0882 28.1358 17.2516 27.8442 17.2516C27.5523 17.2516 27.2826 17.0883 27.157 16.8355L26.4941 17.1392C26.7407 17.6358 27.2708 17.9567 27.8442 17.9567ZM30.477 13.8901C30.7011 13.8901 30.8832 14.065 30.8832 14.28H31.6178C31.6178 13.6762 31.106 13.1849 30.477 13.1849C29.848 13.1849 29.3363 13.6762 29.3363 14.28H30.0708C30.0708 14.065 30.253 13.8901 30.477 13.8901ZM25.2114 13.8901C25.4353 13.8901 25.6175 14.065 25.6175 14.28H26.352C26.352 13.6762 25.8403 13.1849 25.2114 13.1849C24.5823 13.1849 24.0706 13.6762 24.0706 14.28H24.8051C24.8051 14.065 24.9873 13.8901 25.2114 13.8901Z" fill="#FCFCFC"/>
<path d="M28.2107 25.1486H27.4762V32.3851H28.2107V25.1486Z" fill="#FCFCFC"/>
</g>
<defs>
<clipPath id="clip0_1_22645">
<rect width="37.6082" height="36.1039" fill="white" transform="translate(0.375488 0.388794)"/>
</clipPath>
</defs>
</svg>
