<svg width="40" height="40" viewBox="0 0 40 40" fill="none" xmlns="http://www.w3.org/2000/svg">
<g clip-path="url(#clip0_1_22628)">
<path d="M20.2952 0.871948C14.0365 0.871948 8.15403 3.89141 4.47684 8.95831C4.23254 8.85939 3.96701 8.80209 3.68772 8.80209C2.52229 8.80209 1.57434 9.75004 1.57434 10.9151C1.57434 11.5934 1.90107 12.1913 2.39922 12.5782C1.30949 15.0486 0.751221 17.6826 0.751221 20.4159C0.751221 31.1927 9.51839 39.9599 20.2952 39.9599C31.072 39.9599 39.8392 31.1927 39.8392 20.4159C39.8392 9.63912 31.072 0.871948 20.2952 0.871948ZM3.68772 9.61651C4.40381 9.61651 4.98638 10.199 4.98638 10.9152C4.98638 11.6313 4.40389 12.2142 3.68772 12.2142C2.97155 12.2142 2.38868 11.6313 2.38868 10.9152C2.38868 10.1991 2.97155 9.61651 3.68772 9.61651ZM20.2952 39.1456C9.96773 39.1456 1.56556 30.7434 1.56556 20.4159C1.56556 17.8101 2.09503 15.2996 3.12792 12.9437C3.30736 12.9933 3.49261 13.0285 3.68764 13.0285C4.85269 13.0285 5.80064 12.0805 5.80064 10.9151C5.80064 10.3227 5.55389 9.78823 5.15979 9.40414C8.68526 4.56778 14.3108 1.68628 20.2952 1.68628C30.6227 1.68628 39.0248 10.0885 39.0248 20.4159C39.0248 30.7434 30.6227 39.1456 20.2952 39.1456Z" fill="#FCFCFC"/>
<path d="M20.2952 9.01538C14.0087 9.01538 8.89453 14.1296 8.89453 20.416C8.89453 22.8767 9.71444 25.2867 11.1952 27.2509C10.923 27.6102 10.7673 28.0511 10.7673 28.5108C10.7673 29.6671 11.7081 30.6075 12.8644 30.6075C13.3868 30.6075 13.8767 30.4141 14.2574 30.0722C16.0681 31.2101 18.1457 31.8167 20.2952 31.8167C26.5816 31.8167 31.6958 26.7025 31.6958 20.4161C31.6958 14.1297 26.5816 9.01538 20.2952 9.01538ZM12.8644 29.7932C12.157 29.7932 11.5816 29.2178 11.5816 28.5108C11.5816 27.7953 12.1714 27.2241 12.8644 27.2241C13.5714 27.2241 14.1467 27.8015 14.1467 28.5108C14.1467 29.1861 13.599 29.7932 12.8644 29.7932ZM20.2952 31.0023C18.3246 31.0023 16.4155 30.4591 14.7495 29.4281C14.8887 29.145 14.961 28.8341 14.961 28.5108C14.961 27.3521 14.0206 26.4098 12.8644 26.4098C12.4819 26.4098 12.1133 26.5131 11.7928 26.706C10.4464 24.8936 9.70879 22.6753 9.70879 20.416C9.70879 14.5785 14.4576 9.82972 20.2951 9.82972C26.1325 9.82972 30.8814 14.5785 30.8814 20.416C30.8814 26.2535 26.1326 31.0023 20.2952 31.0023Z" fill="#FCFCFC"/>
<path d="M20.2959 15.3832C17.5217 15.3832 15.2648 17.6402 15.2648 20.4144C15.2648 23.1886 17.5217 25.4455 20.2959 25.4455C23.0702 25.4455 25.3271 23.1886 25.3271 20.4144C25.3271 17.6402 23.0702 15.3832 20.2959 15.3832ZM20.2959 24.6311C17.9706 24.6311 16.0791 22.7397 16.0791 20.4143C16.0791 18.089 17.9706 16.1975 20.2959 16.1975C22.6213 16.1975 24.5127 18.089 24.5127 20.4143C24.5127 22.7396 22.6213 24.6311 20.2959 24.6311Z" fill="#FCFCFC"/>
<path d="M37.5393 19.2052C37.5393 17.9993 36.577 17.0159 35.3802 16.9774C33.784 9.98445 27.4978 4.94366 20.2952 4.94366C11.7637 4.94366 4.82288 11.8845 4.82288 20.416C4.82288 28.9474 11.7637 35.8883 20.2952 35.8883C28.5137 35.8883 35.2257 29.5479 35.7323 21.3908C36.7603 21.1923 37.5393 20.2882 37.5393 19.2052ZM20.2952 35.0739C12.2127 35.0739 5.63721 28.4984 5.63721 20.416C5.63721 12.3335 12.2127 5.758 20.2952 5.758C27.0992 5.758 33.0399 10.5057 34.5735 17.1006C33.7036 17.4054 33.0768 18.2326 33.0768 19.2052C33.0768 20.2995 33.8727 21.2101 34.9164 21.3958C34.4093 29.0961 28.0625 35.0739 20.2952 35.0739ZM35.3082 20.6179C34.5269 20.6179 33.8911 19.9841 33.8911 19.2052C33.8911 18.4238 34.5269 17.788 35.3082 17.788C36.0895 17.788 36.725 18.4238 36.725 19.2052C36.725 19.9841 36.0895 20.6179 35.3082 20.6179Z" fill="#FCFCFC"/>
</g>
<defs>
<clipPath id="clip0_1_22628">
<rect width="39.1125" height="39.1125" fill="white" transform="translate(0.738892 0.859619)"/>
</clipPath>
</defs>
</svg>
