<svg width="39" height="40" viewBox="0 0 39 40" fill="none" xmlns="http://www.w3.org/2000/svg">
<path d="M32.4568 29.4616L37.5036 23.4688C37.8216 23.0935 38.0414 22.6424 38.1425 22.1572C38.2437 21.6721 38.2229 21.1688 38.0821 20.694L35.1714 10.7964C35.0499 10.3851 34.7876 10.032 34.4324 9.80135C34.0771 9.5707 33.6525 9.47782 33.2357 9.53963C32.819 9.60143 32.4379 9.81381 32.1617 10.1381C31.8856 10.4624 31.7328 10.877 31.7311 11.3066C31.7311 11.3485 31.7324 11.3905 31.7353 11.4289L32.1409 17.462C31.9429 17.4447 31.7436 17.4703 31.556 17.5373C31.3684 17.6043 31.1969 17.711 31.0527 17.8505L26.0711 22.6958C25.5083 23.2448 25.06 23.9041 24.7531 24.6342C24.4462 25.3643 24.287 26.1501 24.2851 26.9444V31.5783C23.973 31.766 23.7142 32.0334 23.5343 32.3542C23.3543 32.675 23.2595 33.0381 23.259 33.4077V38.6368C23.259 38.7859 23.3521 39.0934 23.4555 39.1988C23.5588 39.3041 32.1359 39.1988 32.282 39.1988C32.4281 39.1988 31.6278 38.7422 31.7311 38.6368C31.8344 38.5315 24.3608 38.7859 24.3608 38.6368V34.7596H31.7311V38.6368C31.7311 38.7859 31.7892 38.9288 31.8925 39.0342C31.9958 39.1396 32.1359 39.1988 32.282 39.1988C32.4281 39.1988 32.5683 39.1396 32.6716 39.0342C32.7749 38.9288 32.8329 38.7859 32.8329 38.6368V33.4077C32.8325 33.0469 32.7421 32.6922 32.5701 32.3769C32.3982 32.0616 32.1504 31.7961 31.8501 31.6054V31.1304C31.8504 30.518 32.0657 29.9261 32.4568 29.4616ZM31.7311 33.6358H24.3608V33.4077C24.3621 33.1406 24.4671 32.885 24.6529 32.6968C24.8388 32.5087 25.0901 32.4034 25.352 32.404H30.7398C31.0016 32.4034 31.253 32.5087 31.4388 32.6968C31.6247 32.885 31.7297 33.1406 31.731 33.4077L31.7311 33.6358ZM31.6209 28.7295C31.0582 29.3977 30.7486 30.2494 30.7482 31.1304V31.2804C30.7455 31.2804 30.7427 31.2802 30.7398 31.2802H25.3869V26.9444C25.3885 26.3021 25.5173 25.6667 25.7655 25.0764C26.0137 24.4861 26.3763 23.953 26.8314 23.5091L31.8133 18.6637C31.8716 18.6074 31.9491 18.5764 32.0294 18.5774C32.1096 18.5785 32.1864 18.6114 32.2432 18.6691L32.2843 18.7117C32.2999 18.7276 32.3149 18.7439 32.3294 18.7604C32.3342 18.7664 32.3391 18.7722 32.3441 18.778C32.6172 19.0931 32.7615 19.503 32.7473 19.9233C32.7331 20.3436 32.5614 20.7424 32.2677 21.0375L29.5036 23.8172C29.4023 23.9224 29.3456 24.064 29.3457 24.2115C29.3458 24.3589 29.4028 24.5005 29.5043 24.6055C29.6058 24.7105 29.7438 24.7706 29.8883 24.7728C30.0329 24.775 30.1726 24.7192 30.2771 24.6173L33.0413 21.8377C33.5113 21.365 33.7963 20.7338 33.8428 20.0622C33.8894 19.3906 33.6944 18.7247 33.2942 18.1893L32.8342 11.3473C32.8333 11.3337 32.8329 11.3201 32.8329 11.3066C32.8347 11.147 32.8924 10.9933 32.9956 10.8733C33.0988 10.7532 33.2407 10.6748 33.3956 10.6522C33.5505 10.6295 33.7082 10.6641 33.8403 10.7497C33.9724 10.8353 34.0702 10.9662 34.1159 11.1189L37.0268 21.0169C37.114 21.3111 37.1268 21.623 37.0641 21.9236C37.0014 22.2242 36.8651 22.5038 36.668 22.7362L31.6209 28.7295ZM14.41 31.5783V26.8365C14.4081 26.0422 14.249 25.2564 13.9421 24.5263C13.6352 23.7962 13.1869 23.1369 12.6241 22.5878L7.64262 17.7427C7.49843 17.6032 7.32686 17.4964 7.13924 17.4295C6.95162 17.3626 6.75222 17.337 6.55419 17.3544L6.95936 11.3272C6.96252 11.2868 6.96406 11.2448 6.96406 11.1987C6.96231 10.7692 6.80949 10.3547 6.53339 10.0305C6.25729 9.70631 5.87627 9.49397 5.45964 9.43213C5.043 9.37029 4.61845 9.46306 4.26322 9.69356C3.90798 9.92406 3.64567 10.277 3.52401 10.6881L0.612972 20.5861C0.472209 21.0608 0.451428 21.5641 0.552563 22.0492C0.653698 22.5343 0.873464 22.9854 1.19142 23.3606L6.23834 29.3536C6.62948 29.8182 6.8447 30.4101 6.84507 31.0225V31.6055C6.54481 31.7962 6.29706 32.0616 6.12515 32.3769C5.95324 32.6922 5.86282 33.0469 5.8624 33.4077V38.6368C5.8624 38.7859 5.89758 39.0934 6.00089 39.1988C6.10421 39.3041 14.701 39.1974 14.8472 39.1974C14.9933 39.1974 14.2311 38.7422 14.3344 38.6368C14.4377 38.5315 6.96421 38.7859 6.96421 38.6368V34.7596H14.3344V38.6368C14.3344 38.7859 14.3924 38.9288 14.4957 39.0342C14.5991 39.1396 14.7392 39.1988 14.8853 39.1988C15.0314 39.1988 15.1715 39.1396 15.2748 39.0342C15.3782 38.9288 15.4362 38.7859 15.4362 38.6368V33.4077C15.4357 33.0381 15.3408 32.675 15.1609 32.3542C14.981 32.0334 14.7222 31.766 14.41 31.5783ZM2.02703 22.6281C1.82998 22.3957 1.69376 22.1162 1.63104 21.8157C1.56831 21.5151 1.58112 21.2033 1.66828 20.9091L4.57946 11.0106C4.62519 10.8579 4.72295 10.7269 4.85507 10.6413C4.9872 10.5558 5.14498 10.5212 5.2999 10.5439C5.45482 10.5667 5.59666 10.6451 5.69979 10.7652C5.80293 10.8853 5.86056 11.0391 5.86226 11.1987C5.86226 11.2117 5.86211 11.2247 5.86057 11.2442L5.40097 18.0807C5.00078 18.6163 4.8057 19.2823 4.85227 19.954C4.89883 20.6257 5.18385 21.2571 5.65394 21.7299L8.418 24.5095C8.46952 24.5613 8.53054 24.6023 8.59758 24.63C8.66461 24.6578 8.73635 24.6718 8.8087 24.6713C8.88105 24.6708 8.95259 24.6557 9.01923 24.627C9.08588 24.5983 9.14632 24.5564 9.19712 24.5039C9.24792 24.4513 9.28807 24.3891 9.31528 24.3207C9.3425 24.2523 9.35624 24.1792 9.35573 24.1054C9.35522 24.0316 9.34046 23.9586 9.3123 23.8906C9.28414 23.8227 9.24313 23.761 9.19161 23.7092L6.42763 20.9296C6.13368 20.6342 5.962 20.235 5.94795 19.8143C5.9339 19.3935 6.07856 18.9834 6.35212 18.6682C6.37092 18.6464 6.39009 18.6249 6.41448 18.6001L6.45077 18.5622C6.50772 18.5041 6.58464 18.4709 6.6652 18.4698C6.74575 18.4686 6.82358 18.4995 6.88216 18.5559L11.8636 23.401C12.3188 23.8449 12.6814 24.378 12.9296 24.9684C13.1779 25.5588 13.3066 26.1942 13.3082 26.8365V31.2802H7.95539C7.95245 31.2802 7.94973 31.2803 7.94687 31.2804V31.0225C7.94646 30.1415 7.63691 29.2898 7.07424 28.6214L2.02703 22.6281ZM14.3344 33.6358H6.96421V33.4077C6.96547 33.1406 7.07053 32.885 7.25635 32.6968C7.44216 32.5087 7.69356 32.4034 7.95539 32.404H13.3431C13.605 32.4034 13.8564 32.5086 14.0422 32.6968C14.2281 32.885 14.3331 33.1406 14.3344 33.4077V33.6358ZM21.1117 21.2765C22.8358 20.736 24.2094 20.1749 24.4578 19.1269C24.5003 18.9545 24.5073 18.775 24.4784 18.5998C24.4495 18.4245 24.3854 18.2572 24.29 18.1084C23.9157 17.5122 23.0484 17.1187 21.9096 16.7973C23.7723 16.3507 25.1786 15.7988 25.4509 14.7348C25.4924 14.5788 25.5021 14.4157 25.4793 14.2556C25.4565 14.0956 25.4018 13.9421 25.3185 13.8045C24.9733 13.2231 24.1563 12.8178 22.5863 12.4491C22.5158 12.4326 22.4428 12.4304 22.3714 12.4426C22.3001 12.4548 22.2318 12.4813 22.1705 12.5204C22.0466 12.5995 21.9586 12.7255 21.9258 12.8707C21.8931 13.0159 21.9182 13.1685 21.9957 13.2948C22.0732 13.4212 22.1967 13.5109 22.3391 13.5444C23.9509 13.9229 24.3005 14.2595 24.376 14.3866C24.383 14.3956 24.3874 14.4063 24.389 14.4176C24.3905 14.4289 24.3891 14.4404 24.3848 14.4509C24.3507 14.5843 24.1396 14.9387 22.9193 15.3481C22.0591 15.6366 20.9485 15.8705 19.8456 16.0932V11.234H25.1797L25.1806 11.2341L25.1822 11.234H28.4228C28.5845 11.234 28.7429 11.1867 28.879 11.0976C29.0152 11.0085 29.1233 10.8813 29.1907 10.7313C29.2581 10.5814 29.2818 10.4148 29.2591 10.2514C29.2364 10.0881 29.1682 9.93481 29.0626 9.80985L25.393 5.46808C24.9086 4.89188 24.2473 4.49984 23.5167 4.35574C22.7861 4.21164 22.0292 4.32396 21.3691 4.67443L19.8456 5.4782V4.49836C20.2641 4.3641 20.6217 4.08145 20.8536 3.70155C21.0855 3.32166 21.1764 2.86964 21.1098 2.42731C21.0432 1.98499 20.8236 1.5816 20.4906 1.29016C20.1577 0.998722 19.7334 0.838501 19.2947 0.838501C18.856 0.838501 18.4317 0.998722 18.0988 1.29016C17.7659 1.5816 17.5462 1.98499 17.4796 2.42731C17.4131 2.86964 17.5039 3.32166 17.7358 3.70155C17.9677 4.08145 18.3253 4.3641 18.7438 4.49836V5.47834L17.2203 4.67443C16.5602 4.32397 15.8033 4.21166 15.0727 4.35576C14.3421 4.49986 13.6808 4.8919 13.1964 5.46808L9.52685 9.80985C9.42124 9.93481 9.35301 10.0881 9.33029 10.2514C9.30758 10.4148 9.33132 10.5814 9.3987 10.7313C9.46608 10.8813 9.57426 11.0085 9.71039 11.0976C9.84653 11.1867 10.0049 11.234 10.1666 11.234H13.4072L13.4088 11.2341L13.4097 11.234H18.7438V16.0932C17.641 15.8705 16.5303 15.6366 15.6701 15.3481C14.4499 14.9386 14.2388 14.5843 14.2046 14.4509C14.2003 14.4403 14.1989 14.4288 14.2004 14.4175C14.202 14.4062 14.2065 14.3956 14.2134 14.3866C14.2889 14.2595 14.6384 13.9229 16.2499 13.5444C16.321 13.5285 16.3883 13.4983 16.4478 13.4556C16.5074 13.413 16.5581 13.3587 16.597 13.296C16.6359 13.2332 16.6622 13.1633 16.6745 13.0901C16.6867 13.0169 16.6846 12.942 16.6683 12.8696C16.6519 12.7973 16.6217 12.7289 16.5793 12.6686C16.537 12.6082 16.4833 12.557 16.4214 12.5179C16.3595 12.4788 16.2907 12.4527 16.2188 12.4409C16.1469 12.4291 16.0735 12.432 16.0027 12.4493C14.433 12.8179 13.616 13.2232 13.271 13.8046C13.1877 13.9421 13.1329 14.0957 13.1101 14.2557C13.0873 14.4157 13.097 14.5788 13.1385 14.7348C13.4109 15.7987 14.8171 16.3508 16.6798 16.7974C15.541 17.1187 14.6737 17.5121 14.2994 18.1084C14.204 18.2572 14.1399 18.4245 14.111 18.5998C14.0821 18.775 14.0892 18.9545 14.1317 19.1269C14.38 20.1749 15.7537 20.736 17.4777 21.2766C16.6511 21.6169 16.0228 22.0093 15.7393 22.5463C15.6549 22.7036 15.6027 22.8768 15.5858 23.0552C15.5689 23.2337 15.5876 23.4138 15.6408 23.5847C15.8964 24.438 16.8105 24.9736 17.9017 25.4598C16.7696 26.0406 15.8915 26.7797 16.1491 27.9465C16.1812 28.0919 16.2686 28.2183 16.3921 28.298C16.5156 28.3776 16.6651 28.404 16.8076 28.3712C16.9501 28.3385 17.0741 28.2493 17.1522 28.1233C17.2303 27.9973 17.2561 27.8449 17.224 27.6995C17.1121 27.193 17.7548 26.7573 18.7438 26.2966V27.823C18.7438 27.972 18.8018 28.1149 18.9052 28.2203C19.0085 28.3257 19.1486 28.3849 19.2947 28.3849C19.4408 28.3849 19.5809 28.3257 19.6843 28.2203C19.7876 28.1149 19.8456 27.972 19.8456 27.823V26.2966C20.8346 26.7573 21.4773 27.1929 21.3654 27.6995C21.349 27.7717 21.3466 27.8465 21.3586 27.9196C21.3706 27.9927 21.3967 28.0627 21.4353 28.1255C21.4739 28.1883 21.5243 28.2427 21.5837 28.2855C21.643 28.3284 21.71 28.3588 21.7809 28.3751C21.8518 28.3914 21.9252 28.3932 21.9968 28.3805C22.0684 28.3677 22.1368 28.3406 22.1981 28.3008C22.2594 28.2609 22.3123 28.2091 22.3539 28.1483C22.3955 28.0875 22.4248 28.0189 22.4403 27.9464C22.698 26.7797 21.8198 26.0406 20.6878 25.4598C21.7789 24.9736 22.6931 24.4379 22.9487 23.5848C23.0019 23.4139 23.0206 23.2338 23.0036 23.0553C22.9867 22.8768 22.9345 22.7037 22.8502 22.5464C22.5666 22.0092 21.9383 21.6168 21.1117 21.2765ZM18.7438 24.6037C17.8123 24.2073 16.8399 23.7418 16.6945 23.2565C16.6836 23.2278 16.6793 23.1969 16.6819 23.1662C16.6845 23.1355 16.6939 23.1058 16.7094 23.0793C16.9114 22.6965 17.7738 22.3333 18.7438 22.0082V24.6037ZM18.7438 20.4895C17.8523 20.2218 16.9312 19.9449 16.2416 19.6358C15.3774 19.2484 15.2271 18.9662 15.2026 18.8628C15.195 18.8378 15.1933 18.8114 15.1976 18.7856C15.2019 18.7599 15.2121 18.7355 15.2274 18.7145C15.552 18.1971 17.1625 17.7949 18.7438 17.4634V20.4895ZM18.7438 10.1103H15.8001C15.8974 10.0204 15.9904 9.92573 16.0788 9.8267C16.4221 9.43825 16.6932 8.98922 16.8787 8.50162C16.9319 8.36282 16.9288 8.20814 16.8702 8.07163C16.8116 7.93512 16.7022 7.82796 16.5661 7.77371C16.43 7.71946 16.2784 7.72258 16.1445 7.78237C16.0107 7.84217 15.9056 7.95374 15.8525 8.09255C15.7154 8.45332 15.5151 8.7856 15.2613 9.07313C14.6267 9.78932 13.8147 10.0297 13.3616 10.1103H10.7277L14.0309 6.20202C14.3539 5.81779 14.7948 5.55635 15.282 5.46024C15.7692 5.36413 16.274 5.43901 16.7141 5.67269L18.7438 6.74356V10.1103ZM23.362 18.7144C23.3773 18.7354 23.3875 18.7598 23.3918 18.7856C23.3961 18.8114 23.3944 18.8378 23.3868 18.8628C23.3623 18.9662 23.2121 19.2484 22.3478 19.6358C21.6581 19.9449 20.7371 20.2217 19.8456 20.4895V17.4634C21.4269 17.7949 23.0373 18.197 23.362 18.7144ZM21.8753 5.67277C22.3154 5.43906 22.8202 5.36416 23.3074 5.46026C23.7946 5.55635 24.2355 5.81779 24.5585 6.20202L27.8617 10.1103H25.2278C24.7746 10.0297 23.9627 9.78932 23.3281 9.07321C23.0743 8.78562 22.874 8.45328 22.737 8.09247C22.7111 8.02313 22.6719 7.95972 22.6219 7.90588C22.5718 7.85204 22.5118 7.80885 22.4453 7.7788C22.3788 7.74874 22.3071 7.73242 22.2344 7.73077C22.1617 7.72913 22.0893 7.74219 22.0216 7.7692C21.9538 7.79621 21.892 7.83665 21.8397 7.88816C21.7873 7.93968 21.7455 8.00127 21.7166 8.06936C21.6877 8.13745 21.6723 8.21071 21.6713 8.2849C21.6703 8.35909 21.6838 8.43275 21.7108 8.50162C21.8963 8.98923 22.1674 9.43828 22.5107 9.82678C22.5991 9.92578 22.692 10.0204 22.7893 10.1103H19.8456V6.74356L21.8753 5.67277ZM19.2947 3.46068C19.1494 3.46068 19.0074 3.41674 18.8866 3.33441C18.7658 3.25209 18.6717 3.13507 18.6161 2.99817C18.5605 2.86127 18.5459 2.71062 18.5743 2.56529C18.6026 2.41995 18.6726 2.28645 18.7753 2.18167C18.878 2.07689 19.0089 2.00553 19.1514 1.97662C19.2939 1.94771 19.4416 1.96255 19.5758 2.01926C19.71 2.07596 19.8247 2.172 19.9055 2.2952C19.9862 2.41841 20.0292 2.56327 20.0292 2.71145C20.029 2.91009 19.9515 3.10052 19.8138 3.24097C19.6761 3.38143 19.4894 3.46044 19.2947 3.46068ZM21.895 23.2564C21.7495 23.7417 20.7771 24.2073 19.8456 24.6035V22.0082C20.8156 22.3332 21.678 22.6964 21.8801 23.0792C21.8955 23.1057 21.9049 23.1354 21.9075 23.1661C21.9101 23.1968 21.9058 23.2277 21.895 23.2564Z" fill="#FCFCFC"/>
</svg>
