<svg width="40" height="39" viewBox="0 0 40 39" fill="none" xmlns="http://www.w3.org/2000/svg">
<circle cx="20.1488" cy="19.2815" r="18.9297" transform="rotate(-1 20.1488 19.2815)" fill="#F9F9F9"/>
<g clip-path="url(#clip0_1_22807)">
<path d="M23.936 8.62005L15.9917 8.75871C14.236 8.78936 12.5643 9.51623 11.3444 10.7794C10.1246 12.0426 9.45649 13.7387 9.48714 15.4944L9.6258 23.4386C9.65645 25.1944 10.3833 26.8661 11.6465 28.086C12.9097 29.3058 14.6057 29.9739 16.3615 29.9432L24.3057 29.8046C26.0615 29.7739 27.7332 29.0471 28.953 27.7839C30.1729 26.5207 30.841 24.8246 30.8103 23.0689L30.6717 15.1247C30.641 13.3689 29.9142 11.6972 28.651 10.4773C27.3878 9.25749 25.6917 8.5894 23.936 8.62005V8.62005ZM28.8243 23.1035C28.8689 25.6589 26.8264 27.7739 24.2711 27.8185L16.3269 27.9572C13.7715 28.0018 11.6565 25.9594 11.6119 23.404L11.4732 15.4598C11.4286 12.9044 13.471 10.7894 16.0264 10.7448L23.9706 10.6061C26.526 10.5615 28.641 12.6039 28.6856 15.1593L28.8243 23.1035Z" fill="url(#paint0_linear_1_22807)"/>
<path d="M20.0564 13.9854C18.6518 14.01 17.3144 14.5915 16.3385 15.602C15.3627 16.6126 14.8282 17.9694 14.8527 19.374C14.8772 20.7786 15.4587 22.116 16.4693 23.0919C17.4798 24.0678 18.8367 24.6022 20.2413 24.5777C21.6459 24.5532 22.9833 23.9717 23.9591 22.9611C24.935 21.9506 25.4695 20.5937 25.445 19.1891C25.4204 17.7845 24.839 16.4472 23.8284 15.4713C22.8178 14.4954 21.461 13.9609 20.0564 13.9854ZM20.2066 22.5917C19.329 22.6059 18.4816 22.2715 17.8502 21.6618C17.2189 21.0521 16.8551 20.2169 16.8387 19.3393C16.8069 17.5135 18.2665 16.0033 20.0911 15.9715C21.9156 15.9396 23.427 17.398 23.4589 19.2238C23.4908 21.0483 22.0311 22.5598 20.2066 22.5917Z" fill="url(#paint1_linear_1_22807)"/>
<path d="M25.755 14.1948C26.1448 14.188 26.4552 13.8665 26.4484 13.4767C26.4416 13.087 26.1201 12.7765 25.7304 12.7833C25.3406 12.7901 25.0302 13.1116 25.037 13.5014C25.0438 13.8911 25.3653 14.2016 25.755 14.1948Z" fill="url(#paint2_linear_1_22807)"/>
</g>
<defs>
<linearGradient id="paint0_linear_1_22807" x1="11.6459" y1="28.0866" x2="28.6516" y2="10.4767" gradientUnits="userSpaceOnUse">
<stop stop-color="#FFC107"/>
<stop offset="0.507" stop-color="#F44336"/>
<stop offset="0.99" stop-color="#9C27B0"/>
</linearGradient>
<linearGradient id="paint1_linear_1_22807" x1="16.4698" y1="23.0913" x2="23.8278" y2="15.4718" gradientUnits="userSpaceOnUse">
<stop stop-color="#FFC107"/>
<stop offset="0.507" stop-color="#F44336"/>
<stop offset="0.99" stop-color="#9C27B0"/>
</linearGradient>
<linearGradient id="paint2_linear_1_22807" x1="25.2522" y1="13.9969" x2="26.2331" y2="12.9812" gradientUnits="userSpaceOnUse">
<stop stop-color="#FFC107"/>
<stop offset="0.507" stop-color="#F44336"/>
<stop offset="0.99" stop-color="#9C27B0"/>
</linearGradient>
<clipPath id="clip0_1_22807">
<rect width="21.1878" height="21.1878" fill="white" transform="translate(9.37158 8.87427) rotate(-1)"/>
</clipPath>
</defs>
</svg>
