<svg width="38" height="39" viewBox="0 0 38 39" fill="none" xmlns="http://www.w3.org/2000/svg">
<path d="M27.6386 26.4989C28.1455 26.4989 28.6411 26.3455 29.0626 26.0581C29.4841 25.7708 29.8126 25.3623 30.0066 24.8844C30.2006 24.4064 30.2514 23.8806 30.1525 23.3732C30.0536 22.8659 29.8095 22.3998 29.451 22.0341C29.0925 21.6683 28.6358 21.4192 28.1386 21.3183C27.6414 21.2173 27.1261 21.2691 26.6577 21.4671C26.1894 21.6651 25.7891 22.0003 25.5074 22.4304C25.2258 22.8605 25.0754 23.3662 25.0754 23.8835C25.0762 24.5769 25.3465 25.2417 25.827 25.732C26.3075 26.2223 26.959 26.4981 27.6386 26.4989ZM27.6386 22.4433C27.9177 22.4433 28.1906 22.5277 28.4227 22.686C28.6548 22.8442 28.8357 23.0692 28.9426 23.3323C29.0494 23.5955 29.0773 23.8851 29.0229 24.1644C28.9684 24.4438 28.834 24.7004 28.6366 24.9018C28.4392 25.1033 28.1877 25.2404 27.9139 25.296C27.6402 25.3516 27.3564 25.323 27.0985 25.214C26.8406 25.105 26.6201 24.9204 26.4651 24.6836C26.31 24.4468 26.2272 24.1683 26.2272 23.8835C26.2276 23.5016 26.3764 23.1355 26.641 22.8655C26.9056 22.5955 27.2644 22.4436 27.6386 22.4431V22.4433Z" fill="#FCFCFC"/>
<path d="M29.5606 26.4843C29.4694 26.4868 29.38 26.5109 29.2995 26.5546C29.219 26.5984 29.1495 26.6607 29.0966 26.7366C28.9883 26.8893 28.8579 27.0245 28.71 27.1375C28.3219 27.4254 27.8377 27.5445 27.3637 27.4688C26.8896 27.3931 26.4643 27.1286 26.181 26.7335C26.128 26.6579 26.0584 26.596 25.9777 26.5528C25.8971 26.5095 25.8077 26.4861 25.7167 26.4843C24.4133 26.4843 23.3651 27.5927 23.3651 28.9225V31.6969C23.3637 31.7736 23.3772 31.8498 23.4049 31.921C23.4325 31.9923 23.4738 32.0573 23.5262 32.1122C23.5787 32.1671 23.6413 32.2108 23.7104 32.2408C23.7795 32.2709 23.8538 32.2866 23.9289 32.2871H31.3482C31.5019 32.2868 31.6493 32.2247 31.7585 32.1142C31.8676 32.0037 31.9297 31.8538 31.9312 31.6969V28.9225C31.9312 27.5927 30.8638 26.4843 29.5606 26.4843ZM30.7795 31.1119H24.5168V28.9225C24.5159 28.6391 24.6106 28.3641 24.7849 28.1435C24.9592 27.923 25.2026 27.7704 25.4742 27.7114C25.7519 28.0151 26.0879 28.2573 26.4612 28.4229C26.8345 28.5885 27.2373 28.674 27.6443 28.674C28.0514 28.674 28.4542 28.5885 28.8275 28.4229C29.2008 28.2573 29.5368 28.0151 29.8145 27.7114C30.0868 27.7701 30.3312 27.9224 30.5069 28.1428C30.6825 28.3632 30.7787 28.6384 30.7795 28.9225V31.1119Z" fill="#FCFCFC"/>
<path d="M31.4994 20.003V17.5964H32.6531C32.7277 17.5984 32.8019 17.5852 32.8713 17.5575C32.9408 17.5298 33.0042 17.4881 33.0576 17.4351C33.1111 17.382 33.1537 17.3186 33.1827 17.2485C33.2118 17.1784 33.2269 17.1031 33.227 17.027V12.1406C33.227 10.0611 31.6596 8.34125 29.7305 8.34125H23.2932V7.36623C23.2932 5.28669 21.7438 3.56677 19.8147 3.56677H14.8312C12.9021 3.56677 11.3437 5.28669 11.3437 7.36623V8.34125H5.33959C3.41055 8.34125 1.8418 10.0611 1.8418 12.1406V17.027C1.84209 17.1032 1.85729 17.1785 1.88652 17.2486C1.91575 17.3187 1.9584 17.3822 2.01199 17.4352C2.06558 17.4883 2.12901 17.5298 2.19856 17.5575C2.26812 17.5852 2.34239 17.5984 2.41702 17.5964H3.56942V26.742C3.56942 28.8216 5.14588 30.5242 7.07507 30.5242H20.0632C21.2839 33.5358 24.2194 35.7167 27.6386 35.7167C29.4627 35.7167 31.2345 35.0948 32.6727 33.9497C34.1109 32.8047 35.1329 31.2022 35.5765 29.3967C36.0201 27.5912 35.8598 25.6863 35.1212 23.9844C34.3825 22.2824 33.1078 20.8811 31.4994 20.003V20.003ZM12.4955 7.36623C12.4955 5.93469 13.5373 4.74203 14.8312 4.74203H19.8147C21.1086 4.74203 22.1414 5.93469 22.1414 7.36623V8.34125H12.4955V7.36623ZM2.99355 12.1407C2.99355 10.7091 4.0456 9.51651 5.33959 9.51651H29.7305C31.0243 9.51651 32.0753 10.7091 32.0753 12.1406V16.4211H21.2776V14.3137C21.273 14.153 21.2083 14.0002 21.0967 13.8866C20.9852 13.7731 20.8352 13.7075 20.6777 13.7034H13.9294C13.775 13.7087 13.6289 13.7757 13.5223 13.8898C13.4157 14.0039 13.3572 14.1561 13.3593 14.3137V16.4211H2.99355V12.1407ZM20.1259 14.8786V19.1389H14.5111V14.8786H20.1259ZM7.07507 29.349C5.78086 29.349 4.72118 28.1737 4.72118 26.742V17.5964H13.3593V19.7402C13.3589 19.8164 13.3735 19.8918 13.4021 19.9621C13.4307 20.0324 13.4728 20.0962 13.5259 20.1497C13.579 20.2032 13.6421 20.2453 13.7114 20.2735C13.7807 20.3018 13.8548 20.3156 13.9294 20.3142H20.6777C20.9957 20.3142 21.2776 20.0644 21.2776 19.7402V17.5964H30.3476V19.4852C29.4777 19.1756 28.563 19.0172 27.6417 19.0164C23.1309 19.0164 19.4596 22.7664 19.4596 27.3692C19.4606 28.0361 19.5379 28.7005 19.69 29.349H7.07507ZM27.6389 34.5361C26.2487 34.5361 24.8898 34.1155 23.7339 33.3274C22.578 32.5393 21.6771 31.4191 21.1451 30.1086C20.6131 28.798 20.4739 27.3559 20.7451 25.9647C21.0164 24.5734 21.6858 23.2954 22.6688 22.2924C23.6518 21.2893 24.9042 20.6062 26.2676 20.3295C27.6311 20.0527 29.0443 20.1948 30.3287 20.7376C31.613 21.2805 32.7108 22.1997 33.4831 23.3792C34.2554 24.5587 34.6677 25.9454 34.6677 27.3639C34.6656 29.2655 33.9243 31.0886 32.6066 32.4332C31.2888 33.7778 29.5021 34.5341 27.6386 34.5361H27.6389Z" fill="#FCFCFC"/>
</svg>
