<svg width="39" height="46" viewBox="0 0 39 46" fill="none" xmlns="http://www.w3.org/2000/svg">
<path d="M19.3002 45.3201C14.94 45.3201 10.5687 45.2759 6.20851 45.3423C4.22256 45.3755 2.91339 43.9817 2.93558 42.068C2.97996 38.7494 2.93558 35.4308 2.95777 32.1123C2.96886 30.5526 3.83425 29.4243 5.24327 29.1145C5.50954 29.0592 5.79801 29.0482 6.06428 29.0482C14.9067 29.0482 23.7381 29.0482 32.5805 29.0482C34.3446 29.0482 35.6094 30.1875 35.6316 31.9353C35.676 35.4419 35.676 38.9375 35.6316 42.4441C35.6094 44.1587 34.3446 45.3091 32.6138 45.3091C28.176 45.3202 23.7381 45.3201 19.3002 45.3201ZM26.5339 34.6012C27.6767 34.6012 28.7862 34.568 29.8845 34.6123C30.4836 34.6344 30.4836 34.3136 30.4726 33.8822C30.4615 33.484 30.528 33.1189 29.9067 33.13C28.3868 33.1632 26.8779 33.1521 25.3579 33.13C24.903 33.1189 24.781 33.2959 24.7921 33.7163C24.8032 36.0392 24.8032 38.3622 24.7921 40.6852C24.7921 41.0835 24.9141 41.2383 25.3357 41.2383C26.8668 41.2273 28.4089 41.2162 29.94 41.2494C30.528 41.2604 30.4836 40.9175 30.4836 40.5304C30.4836 40.1432 30.5724 39.745 29.9289 39.7671C28.9526 39.8113 27.9652 39.7892 26.9888 39.7671C26.8224 39.7671 26.5339 39.6012 26.5228 39.4906C26.4674 38.9817 26.5007 38.4729 26.5007 37.8866C27.2662 37.8866 27.9652 37.8755 28.6641 37.8866C29.0191 37.8976 29.1856 37.7649 29.1523 37.4109C29.1412 37.2671 29.1412 37.1122 29.1523 36.9684C29.1967 36.5592 29.0191 36.4154 28.6086 36.4264C27.9319 36.4485 27.244 36.4375 26.5339 36.4375C26.5339 35.807 26.5339 35.2317 26.5339 34.6012ZM17.3254 33.1521C17.3808 33.3844 17.403 33.495 17.4363 33.5946C18.102 35.7959 18.7677 37.9972 19.4444 40.1985C19.8328 41.4485 19.5887 41.183 20.8535 41.2383C21.3084 41.2604 21.5413 41.1277 21.6745 40.6631C22.3513 38.4065 23.0613 36.1609 23.7603 33.9154C23.8268 33.6941 23.8712 33.4729 23.96 33.1521C23.4496 33.1521 23.028 33.1189 22.6175 33.1742C22.44 33.1964 22.1959 33.3844 22.1405 33.5503C21.9186 34.2251 21.7521 34.9331 21.5635 35.6189C21.2862 36.6255 21.0199 37.6211 20.7425 38.6277C20.5761 38.4618 20.5095 38.2959 20.4652 38.1299C20.0547 36.6366 19.6552 35.1432 19.2336 33.6609C19.1782 33.4729 19.0229 33.2074 18.8786 33.1853C18.3905 33.1189 17.9023 33.1521 17.3254 33.1521ZM8.12789 37.1897C8.12789 38.3733 8.12789 39.5459 8.12789 40.7295C8.12789 41.0171 8.15007 41.2383 8.52729 41.2383C10.1582 41.2273 11.778 41.2383 13.4089 41.2162C13.531 41.2162 13.6974 41.006 13.7529 40.8512C13.8084 40.6852 13.7529 40.4861 13.7751 40.3091C13.8195 39.8998 13.6419 39.7671 13.2314 39.7671C12.2884 39.7892 11.3453 39.756 10.4023 39.7782C9.98069 39.7892 9.82537 39.6675 9.83647 39.2251C9.85866 37.5658 9.85865 35.9065 9.84756 34.2472C9.83646 33.0194 10.0362 33.1632 8.7159 33.13C8.28321 33.1189 8.12789 33.2627 8.13898 33.6941C8.13898 34.8667 8.12789 36.0282 8.12789 37.1897ZM16.3712 37.1897C16.3712 36.172 16.3823 35.1654 16.3712 34.1477C16.3601 33.0083 16.5266 33.1853 15.3727 33.141C14.8291 33.1189 14.6848 33.307 14.6959 33.8269C14.7181 35.9286 14.6959 38.0304 14.707 40.1321C14.7181 41.3711 14.5184 41.2162 15.8276 41.2604C16.2825 41.2715 16.3934 41.1056 16.3823 40.6852C16.3601 39.5016 16.3712 38.3401 16.3712 37.1897Z" fill="white"/>
<path d="M19.2668 27.234C15.6056 27.234 11.9444 27.223 8.28312 27.2451C7.85043 27.2451 7.61744 27.1013 7.41774 26.7363C2.55827 18.1965 7.77277 7.64349 17.5361 6.28289C25.0694 5.23201 32.181 10.8293 32.9355 18.3846C33.235 21.3602 32.6581 24.1367 31.1936 26.7363C30.9828 27.1013 30.7498 27.2451 30.3171 27.2451C26.6226 27.234 22.9503 27.234 19.2668 27.234ZM16.2713 18.639C16.2602 20.0438 16.2491 21.4376 16.2602 22.8425C16.2713 23.7938 16.7705 24.0814 17.5805 23.5947C19.8438 22.2009 22.096 20.796 24.3482 19.3801C25.0139 18.9598 25.025 18.4288 24.3482 18.0085C22.0849 16.5925 19.8105 15.1766 17.525 13.7718C16.7816 13.3182 16.2713 13.6169 16.2602 14.4908C16.2713 15.8846 16.2713 17.2673 16.2713 18.639Z" fill="white"/>
<path d="M0.228516 19.889C0.228516 10.9732 6.34168 3.1967 15.0843 1.36043C22.4511 -0.188227 28.8749 1.82503 33.7677 7.5772C38.9489 13.6723 39.6923 20.5749 36.6301 27.92C36.6079 27.9753 36.5857 28.0195 36.5636 28.0748C36.386 28.4399 36.0976 28.6279 35.7093 28.4288C35.321 28.2297 35.3099 27.8978 35.4874 27.5328C36.7411 24.9664 37.318 22.2342 37.207 19.3913C37.0406 14.8891 35.4319 10.94 32.3143 7.66569C29.0636 4.25864 25.0695 2.356 20.3542 2.09052C15.173 1.80291 10.6575 3.45112 6.9186 7.03517C3.05765 10.7188 1.27141 15.2984 1.40455 20.597C1.46002 22.9753 2.03695 25.2651 3.06875 27.4222C3.25736 27.8204 3.35721 28.1633 2.91343 28.4177C2.5473 28.639 2.24774 28.462 1.98147 27.92C0.827626 25.5195 0.228516 22.7873 0.228516 19.889Z" fill="white"/>
</svg>
