<svg width="38" height="39" viewBox="0 0 38 39" fill="none" xmlns="http://www.w3.org/2000/svg">
<path d="M9.9998 17.2293C11.9471 17.2293 13.5257 15.6507 13.5257 13.7034C13.5257 11.7561 11.9471 10.1775 9.9998 10.1775C8.05249 10.1775 6.47388 11.7561 6.47388 13.7034C6.47388 15.6507 8.05249 17.2293 9.9998 17.2293Z" stroke="#FCFCFC" stroke-width="0.752353" stroke-linecap="round" stroke-linejoin="round"/>
<path d="M29.979 17.2293C31.9264 17.2293 33.505 15.6507 33.505 13.7034C33.505 11.7561 31.9264 10.1775 29.979 10.1775C28.0317 10.1775 26.4531 11.7561 26.4531 13.7034C26.4531 15.6507 28.0317 17.2293 29.979 17.2293Z" stroke="#FCFCFC" stroke-width="0.752353" stroke-linecap="round" stroke-linejoin="round"/>
<path d="M8.87222 30.1572V33.9592C8.87222 34.6139 8.3457 35.1415 7.69108 35.1415C7.53569 35.142 7.38175 35.1117 7.23809 35.0524C7.09444 34.9932 6.96392 34.9062 6.85404 34.7963C6.74416 34.6864 6.65707 34.5559 6.59781 34.4122C6.53856 34.2686 6.50833 34.1146 6.50879 33.9592V30.1572M13.538 30.1572V33.9592C13.538 34.6139 13.0115 35.1415 12.3569 35.1415C12.2016 35.1418 12.0478 35.1115 11.9043 35.0521C11.7607 34.9928 11.6303 34.9057 11.5206 34.7958C11.4108 34.686 11.3239 34.5555 11.2647 34.4119C11.2055 34.2684 11.1753 34.1145 11.1757 33.9592V30.1572" stroke="#FCFCFC" stroke-width="0.752164" stroke-linecap="round" stroke-linejoin="round"/>
<path d="M29.9809 31.3419V34.5293C29.9809 35.1839 29.4543 35.7104 28.7997 35.7104C28.6444 35.7109 28.4906 35.6806 28.347 35.6214C28.2034 35.5623 28.073 35.4753 27.9631 35.3655C27.8532 35.2557 27.7661 35.1254 27.7068 34.9819C27.6475 34.8384 27.6171 34.6845 27.6174 34.5293V31.3419M32.3654 31.3231V34.5105C32.3654 35.1651 31.8378 35.6916 31.1832 35.6916C31.028 35.6919 30.8743 35.6615 30.7308 35.6023C30.5874 35.543 30.457 35.456 30.3473 35.3463C30.2375 35.2365 30.1506 35.1062 30.0913 34.9628C30.0321 34.8194 30.0017 34.6657 30.002 34.5105V31.3231" stroke="#FCFCFC" stroke-width="0.752164" stroke-linecap="round" stroke-linejoin="round"/>
<path d="M17.9579 3.72924C16.4231 3.72924 15.1785 4.79285 15.1785 6.72849C15.1785 8.66414 17.7722 10.5281 19.997 12.5272C22.2206 10.5281 24.8273 8.68765 24.8273 6.72849C24.8273 4.76934 23.5815 3.72809 22.0467 3.72809C21.2381 3.72809 20.5047 4.33334 19.997 4.92802C19.4893 4.33687 18.7653 3.72924 17.9579 3.72924Z" stroke="#FCFCFC" stroke-width="0.752164" stroke-linecap="round" stroke-linejoin="round"/>
<path d="M24.1035 21.0291V25.0273C24.1035 25.2647 24.2798 25.4562 24.4972 25.4562H26.0603C26.2777 25.4562 26.454 25.2647 26.454 25.0273V18.5093" stroke="#FCFCFC" stroke-width="0.752164" stroke-linecap="round" stroke-linejoin="round"/>
<path d="M24.1128 21.0902C24.1761 20.3573 24.5119 19.6749 25.0539 19.1776C25.596 18.6804 26.3048 18.4046 27.0403 18.4047" stroke="#FCFCFC" stroke-width="0.751819" stroke-linecap="round" stroke-linejoin="round"/>
<path d="M35.8561 21.0562V25.0273C35.8561 25.2647 35.6798 25.4563 35.4612 25.4563H33.8981C33.6807 25.4563 33.5056 25.2647 33.5056 25.0273V18.5552" stroke="#FCFCFC" stroke-width="0.752164" stroke-linecap="round" stroke-linejoin="round"/>
<path d="M35.8443 21.0902C35.7811 20.3573 35.4453 19.6749 34.9032 19.1776C34.3612 18.6804 33.6523 18.4046 32.9167 18.4047" stroke="#FCFCFC" stroke-width="0.751819" stroke-linecap="round" stroke-linejoin="round"/>
<path d="M26.4517 18.4859V30.1573C26.4517 30.8119 26.9723 31.3325 27.6269 31.3325H32.3279C32.4827 31.334 32.6361 31.3045 32.7794 31.246C32.9226 31.1874 33.0527 31.1009 33.1621 30.9915C33.2715 30.882 33.3581 30.7519 33.4166 30.6087C33.4752 30.4655 33.5046 30.312 33.5032 30.1573L33.4115 18.594M32.932 18.4059H27.0229M26.454 26.6751H33.6466M29.9857 30.8824V29.5991" stroke="#FCFCFC" stroke-width="0.752164"/>
<path d="M8.23742 18.4047C4.13343 28.9726 8.23977 18.4047 4.12402 28.982C4.12402 29.6366 4.59178 30.1572 5.18881 30.1572H14.813C15.4088 30.1572 16.0634 29.6754 15.8777 28.982C11.7808 18.4481 15.9142 28.982 11.7643 18.4047H8.23742V18.4047Z" stroke="#FCFCFC" stroke-width="0.752164" stroke-linecap="round" stroke-linejoin="round"/>
<path d="M4.71064 17.2294C3.73697 17.2294 2.94765 16.4401 2.94765 15.4664C2.94765 14.4927 3.73697 13.7034 4.71064 13.7034C5.68431 13.7034 6.47363 14.4927 6.47363 15.4664C6.47363 16.4401 5.68431 17.2294 4.71064 17.2294Z" stroke="#FCFCFC" stroke-width="0.752132"/>
</svg>
