<svg width="37" height="37" viewBox="0 0 37 37" fill="none" xmlns="http://www.w3.org/2000/svg">
<path d="M25.6934 19.4976H12.414C11.8783 19.4946 11.3655 19.2801 10.9872 18.9008C10.609 18.5215 10.3959 18.0081 10.3944 17.4724V4.19857C10.3944 3.66093 10.6076 3.14523 10.9872 2.76454C11.3669 2.38384 11.882 2.16922 12.4196 2.16772H25.6934C26.2311 2.16922 26.7462 2.38384 27.1258 2.76454C27.5054 3.14523 27.7186 3.66093 27.7186 4.19857V17.4724C27.7171 18.009 27.5033 18.5233 27.1238 18.9028C26.7443 19.2823 26.2301 19.4961 25.6934 19.4976ZM12.414 3.29597C12.1765 3.29894 11.9499 3.39534 11.783 3.56429C11.6162 3.73324 11.5226 3.96113 11.5227 4.19857V17.4724C11.5241 17.7089 11.6183 17.9353 11.785 18.103C11.9517 18.2708 12.1775 18.3664 12.414 18.3693H25.6934C25.9318 18.3679 26.16 18.2721 26.328 18.103C26.4961 17.9339 26.5904 17.7052 26.5904 17.4667V4.19857C26.5904 3.96016 26.4961 3.73143 26.328 3.56232C26.16 3.39321 25.9318 3.29746 25.6934 3.29597H12.414Z" fill="#FCFCFC"/>
<path d="M25.6934 19.4976H12.414C11.8783 19.4946 11.3655 19.2801 10.9872 18.9008C10.609 18.5215 10.3959 18.0081 10.3944 17.4724V4.19857C10.3944 3.66093 10.6076 3.14523 10.9872 2.76454C11.3669 2.38384 11.882 2.16922 12.4196 2.16772H25.6934C26.2311 2.16922 26.7462 2.38384 27.1258 2.76454C27.5054 3.14523 27.7186 3.66093 27.7186 4.19857V17.4724C27.7171 18.009 27.5033 18.5233 27.1238 18.9028C26.7443 19.2823 26.2301 19.4961 25.6934 19.4976ZM12.414 3.29597C12.1765 3.29894 11.9499 3.39534 11.783 3.56429C11.6162 3.73324 11.5226 3.96113 11.5227 4.19857V17.4724C11.5241 17.7089 11.6183 17.9353 11.785 18.103C11.9517 18.2708 12.1775 18.3664 12.414 18.3693H25.6934C25.9318 18.3679 26.16 18.2721 26.328 18.103C26.4961 17.9339 26.5904 17.7052 26.5904 17.4667V4.19857C26.5904 3.96016 26.4961 3.73143 26.328 3.56232C26.16 3.39321 25.9318 3.29746 25.6934 3.29597H12.414Z" fill="#FCFCFC"/>
<path d="M33.0835 35.6993H19.8097C19.271 35.6993 18.7545 35.4853 18.3736 35.1045C17.9928 34.7236 17.7788 34.207 17.7788 33.6684V20.3946C17.7788 19.856 17.9928 19.3394 18.3736 18.9586C18.7545 18.5777 19.271 18.3638 19.8097 18.3638H33.0835C33.6211 18.3653 34.1362 18.5799 34.5158 18.9606C34.8955 19.3413 35.1087 19.857 35.1087 20.3946V33.6684C35.1087 34.2061 34.8955 34.7218 34.5158 35.1025C34.1362 35.4832 33.6211 35.6978 33.0835 35.6993ZM19.8097 19.4977C19.5703 19.4977 19.3407 19.5928 19.1714 19.762C19.0021 19.9313 18.9071 20.1609 18.9071 20.4003V33.6684C18.9071 33.787 18.9304 33.9043 18.9758 34.0138C19.0211 34.1234 19.0876 34.2229 19.1714 34.3067C19.2552 34.3905 19.3547 34.457 19.4642 34.5023C19.5738 34.5477 19.6911 34.571 19.8097 34.571H33.0835C33.3219 34.5695 33.55 34.4738 33.7181 34.3047C33.8861 34.1356 33.9804 33.9068 33.9804 33.6684V20.3946C33.9789 20.1572 33.884 19.9299 33.7161 19.762C33.5482 19.5941 33.3209 19.4991 33.0835 19.4977H19.8097Z" fill="#FCFCFC"/>
<path d="M16.7747 35.6994H3.50091C2.96328 35.6979 2.44817 35.4833 2.06853 35.1026C1.68889 34.7219 1.47571 34.2062 1.47571 33.6685V20.3947C1.4772 19.8581 1.69104 19.3438 2.07052 18.9643C2.45 18.5848 2.96425 18.371 3.50091 18.3695H16.7747C17.3133 18.3695 17.8299 18.5835 18.2108 18.9643C18.5916 19.3452 18.8056 19.8617 18.8056 20.4004V33.6685C18.8056 34.2071 18.5916 34.7237 18.2108 35.1046C17.8299 35.4854 17.3133 35.6994 16.7747 35.6994ZM3.50091 19.4978C3.26251 19.4992 3.03437 19.595 2.86632 19.7641C2.69827 19.9332 2.60395 20.1619 2.60395 20.4004V33.6685C2.60395 33.9069 2.69827 34.1357 2.86632 34.3048C3.03437 34.4739 3.26251 34.5696 3.50091 34.5711H16.7747C16.8933 34.5711 17.0106 34.5478 17.1201 34.5024C17.2296 34.4571 17.3291 34.3906 17.413 34.3068C17.4968 34.223 17.5633 34.1234 17.6086 34.0139C17.654 33.9044 17.6773 33.7871 17.6773 33.6685V20.3947C17.6773 20.2762 17.654 20.1588 17.6086 20.0493C17.5633 19.9398 17.4968 19.8403 17.413 19.7565C17.3291 19.6727 17.2296 19.6062 17.1201 19.5608C17.0106 19.5155 16.8933 19.4921 16.7747 19.4921L3.50091 19.4978ZM20.7292 17.2751H17.6435C17.0783 17.2807 16.5303 17.0807 16.1017 16.7122C15.6731 16.3438 15.393 15.8321 15.3137 15.2725C15.2574 14.7439 15.3895 14.2125 15.6867 13.7718C15.9839 13.3311 16.4272 13.0095 16.9383 12.8637V10.7764C16.3546 10.6897 15.8281 10.3779 15.4716 9.90766C15.16 9.45719 15.0179 8.91095 15.0706 8.36575C15.1233 7.82054 15.3672 7.31159 15.7593 6.92909L17.5984 5.0562C17.9847 4.67453 18.4958 4.44502 19.0377 4.40979C19.5797 4.37455 20.1162 4.53597 20.5487 4.8644C20.8296 5.08914 21.055 5.37542 21.2076 5.70115C21.3602 6.02687 21.4358 6.38331 21.4287 6.74293V12.8637C21.9399 13.0095 22.3831 13.3311 22.6804 13.7718C22.9776 14.2125 23.1097 14.7439 23.0534 15.2725C22.9753 15.8316 22.6964 16.3432 22.2687 16.7118C21.841 17.0803 21.2938 17.2805 20.7292 17.2751ZM19.1835 5.52442C18.8868 5.52717 18.603 5.64675 18.3938 5.85725L16.5491 7.6963C16.346 7.88702 16.217 8.14349 16.185 8.42023C16.153 8.69697 16.22 8.9761 16.3742 9.20815C16.4747 9.34587 16.605 9.45904 16.7555 9.53916C16.9059 9.61928 17.0726 9.66426 17.243 9.67073C17.4659 9.68093 17.6763 9.77713 17.8299 9.93911C17.9834 10.1011 18.0683 10.3163 18.0666 10.5395V13.0668C18.0696 13.2694 18.0003 13.4665 17.871 13.6226C17.7418 13.7788 17.5611 13.8837 17.3614 13.9186C17.0802 13.9684 16.8283 14.123 16.6566 14.3513C16.4849 14.5795 16.4062 14.8643 16.4363 15.1484C16.4826 15.4327 16.6304 15.6906 16.8524 15.8742C17.0744 16.0578 17.3555 16.1547 17.6435 16.1469H20.7292C21.0175 16.1559 21.2992 16.0595 21.5215 15.8757C21.7437 15.6918 21.8913 15.4332 21.9365 15.1484C21.9665 14.8643 21.8878 14.5795 21.7161 14.3513C21.5444 14.123 21.2925 13.9684 21.0113 13.9186C20.8121 13.8826 20.6321 13.7774 20.5031 13.6215C20.374 13.4656 20.3043 13.2691 20.3061 13.0668V6.74293C20.3139 6.55695 20.2788 6.37169 20.2035 6.20147C20.1281 6.03126 20.0146 5.88067 19.8718 5.76135C19.6748 5.60851 19.4328 5.5252 19.1835 5.52442Z" fill="#FCFCFC"/>
<path d="M13.153 33.5217H8.17176C8.07595 33.5276 7.97987 33.5276 7.88406 33.5217H7.73175C7.30339 33.4435 6.90562 33.2466 6.58376 32.9533C6.2619 32.6601 6.02889 32.2823 5.91128 31.863C5.79368 31.4438 5.79622 30.9999 5.91861 30.5821C6.04099 30.1642 6.2783 29.7891 6.6035 29.4995L10.2759 25.8214C10.3376 25.7591 10.3722 25.675 10.3722 25.5873C10.3722 25.4997 10.3376 25.4155 10.2759 25.3532C10.2493 25.316 10.2142 25.2856 10.1735 25.2646C10.1328 25.2437 10.0876 25.2327 10.0418 25.2327C9.99604 25.2327 9.9509 25.2437 9.91019 25.2646C9.86947 25.2856 9.83434 25.316 9.80772 25.3532L9.20975 25.9173C8.7664 26.326 8.18219 26.5474 7.57935 26.5351C6.97652 26.5228 6.40178 26.2779 5.97543 25.8515C5.54907 25.4252 5.30413 24.8505 5.29187 24.2476C5.2796 23.6448 5.50096 23.0606 5.90963 22.6172L6.51888 22.008C7.44241 21.0794 8.69349 20.5504 10.003 20.5348C11.3126 20.5191 12.5759 21.0181 13.5214 21.9244C14.4668 22.8306 15.0188 24.0718 15.0585 25.3808C15.0983 26.6898 14.6227 27.9621 13.734 28.9241C14.2836 29.0651 14.763 29.4013 15.0827 29.87C15.4025 30.3386 15.5408 30.9076 15.4717 31.4707C15.4026 32.0339 15.1309 32.5526 14.7073 32.93C14.2837 33.3074 13.7372 33.5178 13.1699 33.5217H13.153ZM7.95175 32.3935H8.00817C8.06264 32.3971 8.11729 32.3971 8.17176 32.3935H13.153C13.4731 32.3935 13.7802 32.2663 14.0066 32.0399C14.233 31.8135 14.3602 31.5064 14.3602 31.1863C14.3602 30.8661 14.233 30.559 14.0066 30.3326C13.7802 30.1062 13.4731 29.979 13.153 29.979H12.4535C12.3426 29.9786 12.2343 29.9454 12.1421 29.8838C12.0499 29.8221 11.978 29.7346 11.9352 29.6323C11.8925 29.53 11.8809 29.4173 11.9018 29.3084C11.9227 29.1995 11.9753 29.0992 12.0529 29.02L12.7919 28.281C13.5183 27.5554 13.9267 26.5709 13.9272 25.5442C13.9277 24.5175 13.5204 23.5326 12.7948 22.8062C12.0691 22.0798 11.0847 21.6714 10.0579 21.6709C9.0312 21.6704 8.04632 22.0778 7.31994 22.8034L6.70504 23.4465C6.52722 23.6789 6.43985 23.9679 6.45918 24.2599C6.47851 24.5518 6.60323 24.8269 6.81013 25.0338C7.01704 25.2407 7.29205 25.3654 7.58402 25.3847C7.87598 25.404 8.16504 25.3167 8.39741 25.1389L9.01231 24.5296C9.28956 24.2733 9.65528 24.1342 10.0328 24.1416C10.4103 24.149 10.7703 24.3023 11.0373 24.5693C11.3043 24.8363 11.4576 25.1963 11.465 25.5738C11.4724 25.9513 11.3333 26.317 11.077 26.5943L7.38763 30.2724C7.25633 30.386 7.1507 30.5262 7.07776 30.6838C7.00481 30.8414 6.96622 31.0126 6.96454 31.1863C6.96506 31.4664 7.06344 31.7375 7.24268 31.9528C7.42191 32.1681 7.67072 32.314 7.94611 32.3653L7.95175 32.3935ZM26.4437 33.5217C25.1999 33.5202 24.0075 33.0251 23.1286 32.145C22.2496 31.265 21.7558 30.072 21.7558 28.8282C21.7558 28.2612 21.9811 27.7174 22.3821 27.3164C22.783 26.9154 23.3268 26.6902 23.8939 26.6902C24.0495 26.6897 24.2047 26.7068 24.3565 26.741V26.6338C24.3509 26.5549 24.3509 26.4757 24.3565 26.3968C24.3532 26.3574 24.3532 26.3178 24.3565 26.2784C24.3538 26.2446 24.3538 26.2106 24.3565 26.1768C24.3525 26.1111 24.3525 26.0452 24.3565 25.9794C24.3626 25.9128 24.3739 25.8468 24.3903 25.782C24.4039 25.7184 24.4228 25.6562 24.4467 25.5958C24.4705 25.5227 24.4988 25.4511 24.5313 25.3814C24.529 25.3608 24.529 25.34 24.5313 25.3194L24.7796 24.8286H24.1647C23.8743 24.8435 23.5839 24.7992 23.3112 24.6983C23.0385 24.5975 22.7891 24.4422 22.5783 24.2419C22.3675 24.0417 22.1996 23.8006 22.0849 23.5334C21.9702 23.2662 21.9111 22.9785 21.9111 22.6877C21.9111 22.397 21.9702 22.1092 22.0849 21.8421C22.1996 21.5749 22.3675 21.3338 22.5783 21.1336C22.7891 20.9333 23.0385 20.778 23.3112 20.6772C23.5839 20.5763 23.8743 20.532 24.1647 20.5469H28.2658C28.6314 20.5461 28.9911 20.6392 29.3106 20.8171C29.63 20.995 29.8984 21.2518 30.0902 21.5631C30.2821 21.8743 30.3909 22.2296 30.4063 22.5949C30.4217 22.9601 30.3432 23.3233 30.1782 23.6496L29.3941 25.1896C30.1476 25.7993 30.6936 26.6277 30.9569 27.5605C31.2201 28.4934 31.1878 29.4849 30.8643 30.3986C30.5407 31.3123 29.9419 32.1033 29.1502 32.6626C28.3586 33.2219 27.413 33.522 26.4437 33.5217ZM23.8939 27.8184C23.6261 27.8184 23.3692 27.9248 23.1799 28.1142C22.9905 28.3036 22.8841 28.5604 22.8841 28.8282C22.8814 29.448 23.0403 30.0578 23.3452 30.5974C23.65 31.137 24.0903 31.5878 24.6225 31.9054C25.1547 32.223 25.7606 32.3963 26.3802 32.4083C26.9999 32.4203 27.612 32.2706 28.1561 31.9739C28.7002 31.6772 29.1576 31.2438 29.4832 30.7164C29.8087 30.189 29.9911 29.5858 30.0125 28.9664C30.0338 28.347 29.8933 27.7327 29.6048 27.1842C29.3163 26.6357 28.8898 26.1718 28.3674 25.8384C28.2583 25.7629 28.1792 25.6515 28.1441 25.5235C28.1091 25.3956 28.1202 25.2594 28.1756 25.1389L29.1684 23.1701C29.2454 23.0155 29.2821 22.844 29.2752 22.6714C29.2683 22.4988 29.218 22.3308 29.1289 22.1828C29.0382 22.0357 28.9111 21.9144 28.76 21.8304C28.6089 21.7464 28.4387 21.7027 28.2658 21.7033H24.1647C24.0253 21.6929 23.8853 21.7114 23.7535 21.7576C23.6216 21.8037 23.5007 21.8766 23.3983 21.9717C23.2959 22.0667 23.2142 22.1819 23.1583 22.3099C23.1024 22.438 23.0736 22.5762 23.0736 22.7159C23.0736 22.8557 23.1024 22.9939 23.1583 23.1219C23.2142 23.25 23.2959 23.3652 23.3983 23.4602C23.5007 23.5553 23.6216 23.6282 23.7535 23.6743C23.8853 23.7205 24.0253 23.739 24.1647 23.7285H25.6991C25.7949 23.7284 25.8893 23.7526 25.9732 23.799C26.0571 23.8454 26.1278 23.9124 26.1786 23.9937C26.2281 24.0794 26.2542 24.1767 26.2542 24.2757C26.2542 24.3748 26.2281 24.472 26.1786 24.5578L25.5298 25.8384V25.9061C25.5298 25.9061 25.5298 25.9568 25.496 25.9963C25.4943 26.0264 25.4943 26.0565 25.496 26.0866C25.496 26.0866 25.496 26.1317 25.496 26.1543C25.496 26.1768 25.496 26.2558 25.496 26.2897V26.2671C25.4944 26.2821 25.4944 26.2972 25.496 26.3122C25.4924 26.3516 25.4924 26.3913 25.496 26.4307C25.4928 26.4626 25.4928 26.4947 25.496 26.5266C25.5028 26.5593 25.5122 26.5913 25.5242 26.6225C25.535 26.6517 25.5482 26.68 25.5637 26.7071L25.6088 26.7974C25.6243 26.8259 25.6433 26.8524 25.6652 26.8764L25.7273 26.9497C25.7469 26.975 25.7697 26.9977 25.795 27.0174L25.8683 27.0794L25.9642 27.1415H26.0093C26.0619 27.1671 26.1166 27.1878 26.1729 27.2035H26.235C26.2986 27.2125 26.3632 27.2125 26.4268 27.2035H26.4776C26.7811 27.2091 27.0763 27.3043 27.3259 27.4771C27.5756 27.6499 27.7686 27.8927 27.8806 28.1748C27.9927 28.457 28.0189 28.766 27.9559 29.063C27.8928 29.3601 27.7434 29.6318 27.5264 29.8441C27.3094 30.0565 27.0344 30.1999 26.7361 30.2565C26.4378 30.313 26.1294 30.2801 25.8498 30.1619C25.5701 30.0437 25.3316 29.8454 25.1643 29.5921C24.997 29.3387 24.9082 29.0416 24.9093 28.738C24.8854 28.4856 24.7679 28.2513 24.58 28.0812C24.3921 27.911 24.1474 27.8173 23.8939 27.8184ZM25.9868 28.3826C26.021 28.5325 26.038 28.6858 26.0375 28.8395C26.0375 28.9478 26.0802 29.0517 26.1562 29.1287C26.2322 29.2058 26.3355 29.2498 26.4437 29.2513C26.5529 29.2513 26.6577 29.2079 26.7349 29.1307C26.8121 29.0535 26.8555 28.9487 26.8555 28.8395C26.854 28.7313 26.81 28.628 26.7329 28.5519C26.6559 28.4759 26.552 28.4333 26.4437 28.4333H26.376C26.2449 28.4224 26.1148 28.4017 25.9868 28.3713V28.3826Z" fill="#FCFCFC"/>
</svg>
