<svg width="40" height="40" viewBox="0 0 40 40" fill="none" xmlns="http://www.w3.org/2000/svg">
<path d="M25.2245 12.9435C24.6042 12.9445 23.9849 12.9946 23.3724 13.0934C21.671 11.3635 19.5031 10.166 17.1329 9.64693L20.2736 6.15253C20.3493 6.06987 20.4002 5.96752 20.4203 5.85725C20.4405 5.74699 20.4291 5.63327 20.3875 5.52918L19.1887 2.53227C19.1443 2.42075 19.0674 2.32513 18.9681 2.25781C18.8687 2.19048 18.7514 2.15455 18.6313 2.15466H10.24C10.1199 2.15455 10.0026 2.19048 9.90324 2.25781C9.80386 2.32513 9.72698 2.42075 9.68256 2.53227L8.4838 5.52918C8.44222 5.63327 8.43085 5.74699 8.45099 5.85725C8.47114 5.96752 8.52198 6.06987 8.59768 6.15253L11.7384 9.64693C8.70704 10.3108 6.02788 12.0714 4.21572 14.5906C2.40357 17.1098 1.58623 20.2097 1.92077 23.2949C2.2553 26.38 3.71811 29.2328 6.02812 31.3049C8.33814 33.3771 11.3324 34.5226 14.4357 34.5212C15.056 34.5202 15.6753 34.4701 16.2877 34.3714C17.4503 35.5628 18.8405 36.5084 20.3757 37.1519C21.9109 37.7955 23.5599 38.1238 25.2245 38.1175C28.5628 38.1175 31.7643 36.7914 34.1249 34.4309C36.4854 32.0704 37.8115 28.8688 37.8115 25.5305C37.8115 22.1922 36.4854 18.9907 34.1249 16.6302C31.7643 14.2696 28.5628 12.9435 25.2245 12.9435V12.9435ZM17.8401 3.35343H18.2237L18.943 5.15157H17.1209L17.8401 3.35343ZM18.4875 6.35033L15.7723 9.36522L16.6773 6.35033H18.4875ZM16.5455 3.35343L15.8262 5.15157H13.0451L12.3258 3.35343H16.5455ZM15.4306 6.35033L14.5256 9.35323H14.3457L13.4407 6.35033H15.4306ZM10.6476 3.35343H11.0312L11.7504 5.15157H9.92831L10.6476 3.35343ZM10.3838 6.35033H12.194L13.099 9.36522L10.3838 6.35033ZM14.4357 33.3225C11.5084 33.3307 8.69046 32.2115 6.56658 30.1971C4.44271 28.1827 3.17606 25.4279 3.02954 22.5043C2.88301 19.5808 3.86787 16.7131 5.77968 14.4964C7.6915 12.2798 10.3835 10.8844 13.2968 10.5999C14.0543 10.528 14.817 10.528 15.5745 10.5999C18.3077 10.8736 20.8486 12.1302 22.7251 14.1363C24.7204 16.2416 25.8299 19.0336 25.8239 21.9342C25.8316 23.9905 25.2781 26.0099 24.2229 27.7748C23.1678 29.5397 21.651 30.9833 19.8361 31.9499C19.3555 31.5502 18.9212 31.0978 18.5414 30.6013C20.1772 29.8174 21.5591 28.5887 22.5291 27.0559C23.499 25.5231 24.0177 23.7481 24.0257 21.9342C24.0229 19.3917 23.0116 16.954 21.2137 15.1562C19.4158 13.3583 16.9782 12.347 14.4357 12.3441C11.9149 12.3406 9.49411 13.3301 7.69762 15.0985C5.90113 16.8668 4.87349 19.2716 4.83723 21.7922C4.80098 24.3127 5.75902 26.7461 7.50391 28.5654C9.2488 30.3846 11.6401 31.4434 14.1599 31.5123C14.4962 32.1345 14.8831 32.7279 15.3167 33.2865C15.029 33.3045 14.7353 33.3225 14.4357 33.3225V33.3225ZM26.0876 17.1811C28.232 17.3963 30.2113 18.4282 31.6155 20.0631C33.0197 21.6979 33.7411 23.8104 33.6301 25.9626C33.5192 28.1149 32.5844 30.1419 31.0195 31.6237C29.4546 33.1055 27.3796 33.9284 25.2245 33.9219C23.705 33.9268 22.2137 33.512 20.915 32.7231C23.4919 31.1779 25.4304 28.761 26.3793 25.91C27.3281 23.059 27.2247 19.9624 26.0876 17.1811V17.1811ZM17.8821 29.5823C17.1919 28.3436 16.8308 26.9486 16.8332 25.5305C16.8411 23.9166 17.311 22.3387 18.1873 20.9834C19.0636 19.6281 20.3096 18.552 21.7781 17.8824C22.4682 19.1212 22.8294 20.5162 22.827 21.9342C22.8191 23.5481 22.3492 25.126 21.4729 26.4814C20.5966 27.8367 19.3506 28.9127 17.8821 29.5823V29.5823ZM13.5725 30.2836C11.4282 30.0685 9.44883 29.0365 8.04463 27.4017C6.64044 25.7668 5.91907 23.6544 6.03004 21.5021C6.141 19.3499 7.07579 17.3228 8.64067 15.841C10.2055 14.3593 12.2805 13.5364 14.4357 13.5429C15.9552 13.538 17.4465 13.9528 18.7452 14.7417C16.1682 16.2869 14.2298 18.7038 13.2809 21.5548C12.332 24.4058 12.4355 27.5023 13.5725 30.2836V30.2836ZM25.2245 36.9188C22.6894 36.9202 20.2264 36.0752 18.226 34.5177C16.2257 32.9603 14.8026 30.7796 14.1824 28.3216C13.5622 25.8635 13.7804 23.2687 14.8024 20.9487C15.8244 18.6287 17.5917 16.7163 19.8241 15.5149C20.3047 15.9146 20.739 16.367 21.1187 16.8635C19.483 17.6474 18.101 18.8761 17.1311 20.4089C16.1612 21.9417 15.6425 23.7166 15.6344 25.5305C15.6373 28.0731 16.6486 30.5107 18.4464 32.3086C20.2443 34.1065 22.6819 35.1178 25.2245 35.1206C27.7453 35.1242 30.166 34.1346 31.9625 32.3663C33.759 30.5979 34.7867 28.1931 34.8229 25.6726C34.8592 23.1521 33.9011 20.7187 32.1562 18.8994C30.4114 17.0801 28.0201 16.0214 25.5002 15.9524C25.164 15.3303 24.7771 14.7369 24.3434 14.1782C24.6311 14.1603 24.9248 14.1423 25.2245 14.1423C28.2449 14.1423 31.1415 15.3421 33.2772 17.4778C35.4129 19.6135 36.6127 22.5102 36.6127 25.5305C36.6127 28.5509 35.4129 31.4475 33.2772 33.5832C31.1415 35.7189 28.2449 36.9188 25.2245 36.9188V36.9188Z" fill="#FCFCFC"/>
</svg>
