<svg width="41" height="38" viewBox="0 0 41 38" fill="none" xmlns="http://www.w3.org/2000/svg">
<path d="M26.7201 20.886C26.844 20.886 26.9628 20.8405 27.0505 20.7595C27.1381 20.6785 27.1873 20.5687 27.1873 20.4541C27.1873 20.3396 27.1381 20.2297 27.0505 20.1487C26.9628 20.0677 26.844 20.0222 26.7201 20.0222H22.3116C22.1877 20.0222 22.0689 20.0677 21.9813 20.1487C21.8937 20.2297 21.8445 20.3396 21.8445 20.4541C21.8445 20.5687 21.8937 20.6785 21.9813 20.7595C22.0689 20.8405 22.1877 20.886 22.3116 20.886H23.573C23.866 20.8843 24.1525 20.9664 24.3931 21.121C24.6337 21.2757 24.8167 21.4953 24.917 21.7498H22.3116C22.1877 21.7498 22.0689 21.7953 21.9813 21.8763C21.8937 21.9573 21.8445 22.0672 21.8445 22.1818C21.8445 22.2963 21.8937 22.4062 21.9813 22.4872C22.0689 22.5682 22.1877 22.6137 22.3116 22.6137H24.9171C24.8168 22.8682 24.6338 23.0879 24.3932 23.2425C24.1526 23.3972 23.8661 23.4792 23.5731 23.4775H22.3117C22.2178 23.479 22.1264 23.5063 22.0493 23.5559C21.9721 23.6055 21.9126 23.6751 21.8782 23.756C21.8439 23.8369 21.8362 23.9253 21.8563 24.0102C21.8763 24.0951 21.9232 24.1725 21.9909 24.2328L25.1434 26.9889C25.1879 27.028 25.2403 27.0587 25.2976 27.079C25.3549 27.0994 25.4159 27.1091 25.4773 27.1076C25.5386 27.1061 25.599 27.0934 25.6551 27.0703C25.7111 27.0472 25.7617 27.014 25.8039 26.9728C25.8891 26.8884 25.9349 26.7764 25.9314 26.6609C25.9279 26.5455 25.8754 26.436 25.7852 26.3561L23.4862 24.3413H23.5731C24.1157 24.3473 24.6437 24.178 25.0657 23.8626C25.4878 23.5472 25.7776 23.1055 25.8851 22.6137H26.7201C26.844 22.6137 26.9628 22.5682 27.0505 22.4872C27.1381 22.4062 27.1873 22.2963 27.1873 22.1818C27.1873 22.0672 27.1381 21.9573 27.0505 21.8763C26.9628 21.7953 26.844 21.7498 26.7201 21.7498H25.8851C25.8309 21.4301 25.6807 21.1308 25.4515 20.886H26.7201Z" fill="#FCFCFC"/>
<path d="M24.7121 14.9166C24.5689 14.3988 24.2337 13.9439 23.765 13.6311C24.0811 13.4208 24.3387 13.144 24.5164 12.8236C24.6941 12.5032 24.7869 12.1483 24.7871 11.7882C24.7873 11.4281 24.6949 11.0731 24.5175 10.7526C24.3401 10.432 24.0828 10.155 23.7668 9.94445C24.1888 9.66447 24.5035 9.26772 24.6655 8.81152C24.8276 8.35532 24.8285 7.8633 24.6682 7.40657C24.5079 6.94984 24.1947 6.55205 23.7739 6.27069C23.353 5.98933 22.8463 5.83897 22.327 5.84134H10.2632C9.7437 5.83957 9.23702 5.99043 8.81627 6.27216C8.39552 6.55389 8.08246 6.95191 7.92227 7.40881C7.76207 7.8657 7.76301 8.35783 7.92496 8.8142C8.08691 9.27056 8.4015 9.66756 8.82333 9.94791C8.50746 10.158 8.25018 10.4346 8.07272 10.7548C7.89526 11.075 7.80271 11.4296 7.80271 11.7894C7.80271 12.1492 7.89526 12.5038 8.07272 12.824C8.25018 13.1441 8.50746 13.4207 8.82333 13.6308C8.50745 13.8412 8.25017 14.118 8.07273 14.4383C7.89528 14.7587 7.80275 15.1134 7.80275 15.4734C7.80275 15.8333 7.89528 16.188 8.07273 16.5084C8.25017 16.8287 8.50745 17.1055 8.82333 17.3159C8.50741 17.5263 8.25012 17.8031 8.07265 18.1235C7.89519 18.4439 7.80265 18.7987 7.80265 19.1587C7.80265 19.5186 7.89519 19.8735 8.07265 20.1939C8.25012 20.5143 8.50741 20.7911 8.82333 21.0015C8.50746 21.2119 8.2502 21.4887 8.07277 21.8091C7.89534 22.1295 7.80281 22.4843 7.80281 22.8443C7.80281 23.2042 7.89534 23.559 8.07277 23.8794C8.2502 24.1998 8.50746 24.4767 8.82333 24.6871C8.50744 24.8975 8.25017 25.1743 8.07273 25.4947C7.89529 25.8151 7.80276 26.1699 7.80276 26.5299C7.80276 26.8899 7.89529 27.2447 8.07273 27.5651C8.25017 27.8855 8.50744 28.1623 8.82333 28.3727C8.40134 28.6526 8.08656 29.0494 7.9245 29.5056C7.76244 29.9618 7.76148 30.4539 7.92176 30.9106C8.08205 31.3674 8.39527 31.7652 8.81617 32.0465C9.23706 32.3279 9.74382 32.4782 10.2632 32.4758H22.327C22.7852 32.4792 23.2352 32.363 23.6251 32.1404C23.9184 32.1662 24.2155 32.1836 24.516 32.1836C26.9769 32.185 29.3389 31.2883 31.0886 29.6885C32.8383 28.0886 33.8344 25.915 33.8602 23.64C33.886 21.365 32.9396 19.1724 31.2266 17.539C29.5136 15.9056 27.1725 14.9632 24.7121 14.9168V14.9166ZM31.5756 23.2616C31.5056 21.776 30.8873 20.3575 29.8237 19.2421L30.7729 18.3649C32.0864 19.7142 32.8452 21.4474 32.9167 23.2616H31.5756ZM18.9069 29.3351L19.8558 28.4579C20.9756 29.3704 22.3802 29.9302 23.8666 30.0563V31.3003C22.0242 31.1691 20.2804 30.4781 18.9069 29.3351ZM16.1319 24.1254H17.4767C17.6075 25.5031 18.2096 26.8064 19.1958 27.8463L18.247 28.7236C17.0117 27.4491 16.2679 25.8321 16.1319 24.1254ZM29.1623 18.632C27.9507 17.6498 26.4112 17.0817 24.801 17.0229V15.783C26.7666 15.8433 28.6465 16.5413 30.1111 17.7548L29.1623 18.632ZM23.8666 15.801V17.0449C22.3675 17.1722 20.952 17.7405 19.8279 18.6663L18.8748 17.7926C20.2529 16.634 22.0095 15.9332 23.8666 15.801ZM18.2185 18.4075L19.1716 19.2808C18.1301 20.3906 17.5255 21.7937 17.4564 23.2616H16.1153C16.186 21.467 16.9296 19.7509 18.2185 18.4075ZM24.801 30.0785C26.3957 30.0203 27.9216 29.4625 29.1283 28.4969L30.0774 29.3743C28.6174 30.571 26.7511 31.2586 24.801 31.3183V30.0785ZM24.516 29.2205C23.3031 29.2205 22.1174 28.888 21.1088 28.2651C20.1003 27.6421 19.3142 26.7566 18.85 25.7206C18.3858 24.6846 18.2643 23.5446 18.5009 22.4447C18.7375 21.3449 19.3215 20.3346 20.1792 19.5416C21.0368 18.7487 22.1295 18.2086 23.3192 17.9898C24.5088 17.7711 25.7419 17.8833 26.8625 18.3124C27.9831 18.7416 28.9409 19.4683 29.6148 20.4007C30.2886 21.3331 30.6483 22.4293 30.6483 23.5507C30.6465 25.0538 29.9998 26.4949 28.8502 27.5578C27.7006 28.6207 26.1418 29.2186 24.516 29.2204V29.2205ZM8.73706 8.10885C8.73743 7.924 8.77722 7.74104 8.85414 7.57043C8.93106 7.39981 9.04361 7.24489 9.18535 7.11452C9.32708 6.98415 9.49523 6.88089 9.68016 6.81064C9.8651 6.7404 10.0632 6.70455 10.2631 6.70515H22.3269C22.7295 6.70515 23.1157 6.85304 23.4005 7.11628C23.6852 7.37953 23.8452 7.73656 23.8452 8.10885C23.8452 8.48113 23.6852 8.83817 23.4005 9.10141C23.1157 9.36466 22.7295 9.51254 22.3269 9.51254H10.2632C10.0633 9.51315 9.86516 9.47731 9.68021 9.40707C9.49527 9.33683 9.32712 9.23358 9.18537 9.1032C9.04363 8.97283 8.93108 8.81791 8.85415 8.64729C8.77722 8.47667 8.73743 8.2937 8.73706 8.10885ZM8.73706 11.7801C8.73743 11.5952 8.77722 11.4123 8.85414 11.2416C8.93106 11.071 9.04361 10.9161 9.18535 10.7857C9.32708 10.6554 9.49523 10.5521 9.68016 10.4819C9.8651 10.4116 10.0632 10.3758 10.2631 10.3764H22.3269C22.7295 10.3764 23.1157 10.5242 23.4005 10.7875C23.6852 11.0507 23.8452 11.4078 23.8452 11.7801C23.8452 12.1523 23.6852 12.5094 23.4005 12.7726C23.1157 13.0359 22.7295 13.1838 22.3269 13.1838H10.2632C10.0633 13.1844 9.86516 13.1485 9.68021 13.0783C9.49527 13.008 9.32712 12.9048 9.18537 12.7744C9.04363 12.644 8.93108 12.4891 8.85415 12.3185C8.77722 12.1479 8.73743 11.9649 8.73706 11.7801ZM8.73706 15.4513C8.73743 15.2664 8.77722 15.0835 8.85414 14.9128C8.93106 14.7422 9.04361 14.5873 9.18535 14.4569C9.32708 14.3266 9.49523 14.2233 9.68016 14.1531C9.8651 14.0828 10.0632 14.047 10.2631 14.0476H22.3269C22.6298 14.0473 22.926 14.1303 23.1778 14.2862C23.4295 14.442 23.6253 14.6636 23.7404 14.9228C21.8494 15.0681 20.051 15.742 18.5843 16.855H10.2632C10.0633 16.8556 9.86516 16.8197 9.68021 16.7495C9.49527 16.6793 9.32712 16.576 9.18537 16.4456C9.04363 16.3153 8.93108 16.1603 8.85415 15.9897C8.77722 15.8191 8.73743 15.6361 8.73706 15.4513ZM8.73706 19.1585C8.73706 18.3805 9.42169 17.7188 10.2631 17.7188H17.6034C16.8027 18.5826 16.1679 19.5184 15.7483 20.5982H10.2632C9.42169 20.5982 8.73706 19.9365 8.73706 19.1585ZM8.73706 22.8657C8.73743 22.6808 8.77722 22.4979 8.85414 22.3272C8.93106 22.1566 9.04361 22.0017 9.18535 21.8713C9.32708 21.741 9.49523 21.6377 9.68016 21.5675C9.8651 21.4972 10.0632 21.4614 10.2631 21.462H15.4589C15.2676 22.1514 15.172 22.8605 15.1744 23.5722C15.1744 23.8097 15.1852 24.0534 15.2056 24.2694H10.2632C10.0633 24.27 9.86516 24.2341 9.68021 24.1639C9.49527 24.0937 9.32712 23.9904 9.18537 23.86C9.04363 23.7297 8.93108 23.5747 8.85415 23.4041C8.77722 23.2335 8.73743 23.0505 8.73706 22.8657ZM8.73706 26.5369C8.73743 26.352 8.77722 26.1691 8.85414 25.9985C8.93106 25.8278 9.04361 25.6729 9.18535 25.5425C9.32708 25.4122 9.49523 25.3089 9.68016 25.2387C9.8651 25.1684 10.0632 25.1326 10.2631 25.1332H15.3292C15.5302 26.1238 15.9179 27.074 16.4745 27.9406H10.2632C10.0633 27.9412 9.86516 27.9053 9.68021 27.8351C9.49527 27.7649 9.32712 27.6616 9.18537 27.5312C9.04363 27.4009 8.93108 27.2459 8.85415 27.0753C8.77722 26.9047 8.73743 26.7217 8.73706 26.5369ZM10.2631 31.6118C9.86045 31.6118 9.47427 31.4639 9.18954 31.2006C8.9048 30.9374 8.74484 30.5804 8.74484 30.2081C8.74484 29.8358 8.9048 29.4788 9.18954 29.2155C9.47427 28.9523 9.86045 28.8044 10.2631 28.8044H17.1071C18.1558 30.1001 19.5718 31.0359 21.206 31.6118H10.2631ZM30.7426 28.7676L29.7938 27.8902C30.8045 26.8436 31.4224 25.5231 31.5552 24.1254H32.9001C32.7626 25.8523 32.003 27.4868 30.7427 28.7676H30.7426Z" fill="#FCFCFC"/>
</svg>
