<svg width="86" height="30" viewBox="0 0 86 30" fill="none" xmlns="http://www.w3.org/2000/svg">
<rect width="86" height="29.1786" rx="6.14286" fill="black" fill-opacity="0.5"/>
<path d="M35.9524 18.0935C34.9724 18.0935 34.1138 17.8789 33.3764 17.4495C32.6484 17.0202 32.0744 16.4275 31.6544 15.6715C31.2438 14.9062 31.0384 14.0242 31.0384 13.0255C31.0384 12.0269 31.2438 11.1495 31.6544 10.3935C32.0744 9.6282 32.6484 9.03087 33.3764 8.60154C34.1138 8.1722 34.9724 7.95754 35.9524 7.95754C36.9231 7.95754 37.7771 8.1722 38.5144 8.60154C39.2518 9.03087 39.8258 9.6282 40.2364 10.3935C40.6471 11.1495 40.8524 12.0269 40.8524 13.0255C40.8524 14.0242 40.6471 14.9062 40.2364 15.6715C39.8258 16.4275 39.2518 17.0202 38.5144 17.4495C37.7771 17.8789 36.9231 18.0935 35.9524 18.0935ZM35.9524 16.4835C36.8858 16.4835 37.6278 16.1755 38.1784 15.5595C38.7384 14.9435 39.0184 14.0989 39.0184 13.0255C39.0184 11.9522 38.7384 11.1075 38.1784 10.4915C37.6278 9.87554 36.8858 9.56754 35.9524 9.56754C35.0191 9.56754 34.2724 9.87554 33.7124 10.4915C33.1524 11.1075 32.8724 11.9522 32.8724 13.0255C32.8724 14.0989 33.1524 14.9435 33.7124 15.5595C34.2724 16.1755 35.0191 16.4835 35.9524 16.4835ZM42.3927 17.9255V10.9815H43.9747L44.1147 12.1575C44.3293 11.7469 44.6373 11.4202 45.0387 11.1775C45.4493 10.9349 45.93 10.8135 46.4807 10.8135C47.3393 10.8135 48.0067 11.0842 48.4827 11.6255C48.9587 12.1669 49.1967 12.9602 49.1967 14.0055V17.9255H47.4047V14.1735C47.4047 13.5762 47.2833 13.1189 47.0407 12.8015C46.798 12.4842 46.42 12.3255 45.9067 12.3255C45.4027 12.3255 44.9873 12.5029 44.6607 12.8575C44.3433 13.2122 44.1847 13.7069 44.1847 14.3415V17.9255H42.3927ZM50.9102 17.9255V7.84554H52.7022V17.9255H50.9102ZM55.4993 9.90354C55.1726 9.90354 54.902 9.80554 54.6873 9.60954C54.482 9.41354 54.3793 9.1662 54.3793 8.86754C54.3793 8.56887 54.482 8.3262 54.6873 8.13954C54.902 7.94354 55.1726 7.84554 55.4993 7.84554C55.826 7.84554 56.092 7.94354 56.2973 8.13954C56.512 8.3262 56.6193 8.56887 56.6193 8.86754C56.6193 9.1662 56.512 9.41354 56.2973 9.60954C56.092 9.80554 55.826 9.90354 55.4993 9.90354ZM54.6033 17.9255V10.9815H56.3953V17.9255H54.6033ZM58.2657 17.9255V10.9815H59.8477L59.9877 12.1575C60.2024 11.7469 60.5104 11.4202 60.9117 11.1775C61.3224 10.9349 61.803 10.8135 62.3537 10.8135C63.2124 10.8135 63.8797 11.0842 64.3557 11.6255C64.8317 12.1669 65.0697 12.9602 65.0697 14.0055V17.9255H63.2777V14.1735C63.2777 13.5762 63.1564 13.1189 62.9137 12.8015C62.671 12.4842 62.293 12.3255 61.7797 12.3255C61.2757 12.3255 60.8604 12.5029 60.5337 12.8575C60.2164 13.2122 60.0577 13.7069 60.0577 14.3415V17.9255H58.2657ZM70.1573 18.0935C69.4573 18.0935 68.8366 17.9442 68.2953 17.6455C67.754 17.3469 67.3293 16.9269 67.0213 16.3855C66.7133 15.8442 66.5593 15.2189 66.5593 14.5095C66.5593 13.7909 66.7086 13.1515 67.0073 12.5915C67.3153 12.0315 67.7353 11.5975 68.2673 11.2895C68.8086 10.9722 69.4433 10.8135 70.1713 10.8135C70.8526 10.8135 71.4546 10.9629 71.9773 11.2615C72.5 11.5602 72.906 11.9709 73.1953 12.4935C73.494 13.0069 73.6433 13.5809 73.6433 14.2155C73.6433 14.3182 73.6386 14.4255 73.6293 14.5375C73.6293 14.6495 73.6246 14.7662 73.6153 14.8875H68.3373C68.3746 15.4289 68.5613 15.8535 68.8973 16.1615C69.2426 16.4695 69.658 16.6235 70.1433 16.6235C70.5073 16.6235 70.8106 16.5442 71.0533 16.3855C71.3053 16.2175 71.492 16.0029 71.6133 15.7415H73.4333C73.3026 16.1802 73.0833 16.5815 72.7753 16.9455C72.4766 17.3002 72.1033 17.5802 71.6553 17.7855C71.2166 17.9909 70.7173 18.0935 70.1573 18.0935ZM70.1713 12.2695C69.7326 12.2695 69.3453 12.3955 69.0093 12.6475C68.6733 12.8902 68.4586 13.2635 68.3653 13.7675H71.8233C71.7953 13.3102 71.6273 12.9462 71.3193 12.6755C71.0113 12.4049 70.6286 12.2695 70.1713 12.2695Z" fill="white"/>
<circle cx="14.7636" cy="14.2207" r="5.41131" fill="#2CDC00"/>
</svg>
