<svg width="131" height="51" viewBox="0 0 131 51" fill="none" xmlns="http://www.w3.org/2000/svg">
<rect width="131" height="51" rx="8" fill="#FEFEFE"/>
<path d="M88.146 17.5555C88.4819 17.2902 88.6499 17.1575 88.8179 17.0249C91.1526 15.0684 94.1425 15.284 96.1413 17.6052C96.3429 17.8373 96.4437 17.8539 96.6452 17.6549C96.7796 17.5057 96.9308 17.3897 97.0651 17.2404C98.6273 15.7316 100.693 15.284 102.625 16.1295C104.657 17.0249 105.749 18.6 105.766 20.8052C105.8 25.5637 105.783 30.3057 105.783 35.0643C105.783 36.7555 104.725 37.8166 103.028 37.8166C102.356 37.8166 101.684 37.7669 101.012 37.8332C100.324 37.8995 100.122 37.684 100.122 36.971C100.156 32.3285 100.139 27.686 100.139 23.0435C100.139 22.8446 100.139 22.6622 100.139 22.4632C100.122 21.3855 99.6855 20.9378 98.644 20.8881C97.7034 20.8384 97.0483 21.4021 96.9476 22.3472C96.9308 22.5627 96.9476 22.7948 96.9476 23.0104C96.9476 27.0228 96.9476 31.0187 96.9476 35.0311C96.9476 36.7886 95.923 37.8166 94.1425 37.8C93.2355 37.7834 92.0093 38.1979 91.4886 37.6176C91.0351 37.1202 91.3374 35.943 91.3374 35.0643C91.3374 30.9523 91.3374 26.8238 91.3374 22.7119C91.3374 21.2529 90.38 20.5068 89.137 21.0042C88.3644 21.3192 88.1124 21.9327 88.1124 22.7285C88.1292 26.5751 88.1124 30.4052 88.1124 34.2518C88.1124 34.5503 88.1124 34.8653 88.1124 35.1637C88.062 36.772 87.0206 37.7834 85.4081 37.8C84.7362 37.8166 84.0644 37.7503 83.3925 37.8166C82.6702 37.8829 82.4519 37.684 82.4687 36.9213C82.5023 30.4052 82.4855 23.8891 82.4855 17.3565C82.4855 17.0746 82.5023 16.8093 82.4855 16.5275C82.4519 16.1627 82.603 16.0466 82.9726 16.0466C84.5179 16.0632 86.0464 16.0632 87.5917 16.0466C87.978 16.0466 88.1628 16.1461 88.1292 16.5606C88.0956 16.8591 88.1292 17.1244 88.146 17.5555Z" fill="#02B9EF"/>
<path d="M52.5367 26.5421C52.5367 28.8136 52.5367 31.0685 52.5367 33.34C52.5199 36.2913 50.9578 37.8167 47.968 37.8333C46.6578 37.8333 45.3308 37.8498 44.0207 37.8333C41.3668 37.8001 39.4183 36.0592 39.284 33.4395C39.1832 31.5659 39.1664 29.6758 39.2672 27.8022C39.4015 25.1162 41.4844 23.226 44.239 23.1929C44.9613 23.1763 45.7004 23.1929 46.4226 23.1929C47.1281 23.1763 47.3969 22.7783 47.3801 22.1151C47.3801 21.4519 47.0777 21.1535 46.4058 21.1866C45.65 21.2032 44.8941 21.2032 44.1383 21.1866C42.2906 21.1535 41.266 20.1587 41.2828 18.368C41.2828 17.6384 40.9469 16.6602 41.434 16.2291C41.8539 15.8644 42.8113 16.0965 43.5336 16.0965C45.4148 16.0799 47.2793 16.0965 49.1605 16.0965C51.1594 16.0965 52.5199 17.4395 52.5367 19.4291C52.5535 21.7835 52.5367 24.1711 52.5367 26.5421ZM47.3969 30.3058C47.3969 30.0239 47.3969 29.7587 47.3969 29.4768C47.3969 27.7856 47.3969 27.7856 45.6836 27.8519C44.8269 27.8851 44.3566 28.3162 44.3398 29.1949C44.323 29.8913 44.323 30.5711 44.3398 31.2675C44.3566 32.4612 44.8941 32.7763 46.641 32.826C47.9344 32.8592 47.2793 31.9638 47.3969 31.4664C47.464 31.1017 47.3801 30.6872 47.3969 30.3058Z" fill="#06306F"/>
<path d="M67.486 24.7348C67.486 27.2716 67.5196 29.8249 67.4692 32.3617C67.4356 34.3182 66.9653 36.0923 65.0504 37.1368C64.2778 37.5513 63.4379 37.7835 62.5645 37.8C60.6329 37.8332 58.7012 37.8001 56.7696 37.8332C56.2993 37.8332 56.1985 37.6674 56.2153 37.2529C56.2489 36.5565 56.1985 35.8767 56.2321 35.1804C56.2657 33.8539 57.2903 32.8425 58.634 32.7928C59.5075 32.7596 60.3641 32.7762 61.2375 32.7928C61.943 32.7928 62.3293 32.5109 62.3293 31.7648C62.3293 31.0021 61.9598 30.7368 61.2543 30.7203C60.0786 30.6871 58.9028 30.8529 57.7438 30.5213C55.745 29.941 54.2836 28.2995 54.2332 26.2602C54.1325 23.027 54.1997 19.7938 54.1829 16.5607C54.1829 16.1959 54.3004 16.0798 54.67 16.0964C56.0473 16.113 57.4079 16.1296 58.7852 16.0964C59.3899 16.0798 59.3059 16.4114 59.3059 16.7762C59.3059 19.2135 59.3059 21.6342 59.3059 24.0716C59.3059 25.1327 59.8098 25.6964 60.7504 25.7296C61.859 25.7627 62.3461 25.3151 62.3461 24.2042C62.3461 21.7503 62.3629 19.2798 62.3293 16.826C62.3293 16.2456 62.4805 16.0798 63.0684 16.0964C64.2946 16.1462 65.5375 16.1627 66.7637 16.0964C67.4356 16.0633 67.5364 16.312 67.5196 16.8923C67.4692 19.4954 67.486 22.1151 67.486 24.7348Z" fill="#06306F"/>
<path d="M24.6875 28.4985C24.6875 25.7959 24.6875 23.0767 24.6875 20.3741C24.6875 17.7213 26.3336 16.0632 29.0379 16.0964C30.8016 16.113 32.5652 15.8974 34.3121 16.229C36.5461 16.6601 37.957 18.3679 37.9738 20.6394C37.9906 23.0436 37.9738 25.4477 37.9738 27.8518C37.9738 30.8695 36.1766 32.7099 33.1195 32.7928C32.1957 32.8259 31.2719 32.8094 30.348 32.7928C29.9281 32.7762 29.7434 32.9088 29.7601 33.3565C29.7937 34.0197 29.7769 34.6829 29.7601 35.3461C29.7266 36.772 28.7019 37.8 27.2742 37.8166C26.4344 37.8332 25.3762 38.1648 24.8387 37.684C24.3348 37.2363 24.7043 36.1752 24.6875 35.3793C24.6707 33.0912 24.6875 30.7866 24.6875 28.4985ZM29.7601 24.4363C29.7601 24.9669 29.7601 25.4809 29.7601 26.0114C29.7601 27.885 29.7602 27.885 31.6582 27.7192C32.4812 27.6529 32.8676 27.2549 32.8844 26.4425C32.9012 25.514 32.8508 24.5689 32.9012 23.6404C33.0019 20.9544 32.498 21.2197 30.2809 21.2031C29.8777 21.2031 29.7434 21.3192 29.7434 21.7171C29.7769 22.6125 29.7601 23.5244 29.7601 24.4363Z" fill="#06306F"/>
<path d="M72.2393 28.5317C72.2393 26.3265 72.2225 24.1047 72.2561 21.8996C72.2561 21.3856 72.1386 21.17 71.5675 21.1866C70.8116 21.2198 69.8038 21.4353 69.3839 21.0706C68.8632 20.5897 69.2663 19.5617 69.1991 18.7659C69.1991 18.7161 69.1991 18.6498 69.1991 18.6001C69.1991 17.8208 68.9471 16.9089 69.2831 16.3286C69.619 15.7483 70.6436 16.113 71.3659 15.9307C72.7936 15.5659 73.8686 14.7535 74.7421 13.626C75.3468 12.8633 76.1026 12.3161 77.0768 12.1338C77.5975 12.0343 77.9167 12.1006 77.8831 12.7638C77.8327 13.6923 77.8831 14.6374 77.8663 15.5825C77.8495 15.9804 78.0007 16.113 78.4038 16.0965C79.0757 16.0799 79.7475 16.113 80.4194 16.0799C80.8225 16.0633 80.9569 16.2125 80.9401 16.6104C80.9233 17.97 80.9233 19.313 80.9401 20.6726C80.9401 21.054 80.8393 21.2529 80.4194 21.2032C80.3354 21.1866 80.2514 21.2032 80.1675 21.2032C79.4284 21.2695 78.4038 20.8716 78.0175 21.369C77.6479 21.8332 77.8831 22.7949 77.8831 23.541C77.8831 28.0509 77.8663 32.5441 77.8999 37.054C77.8999 37.684 77.7319 37.883 77.0936 37.8332C76.4889 37.7835 75.8675 37.8332 75.246 37.8167C73.4319 37.7503 72.2393 36.54 72.2393 34.7493C72.2393 32.6768 72.2393 30.6042 72.2393 28.5317Z" fill="#02B9EF"/>
</svg>
