<svg width="53" height="52" viewBox="0 0 53 52" fill="none" xmlns="http://www.w3.org/2000/svg">
<path d="M26.5728 48.286C14.2358 48.286 4.19897 38.2491 4.19897 25.9121C4.19897 13.5751 14.2358 3.53833 26.5728 3.53833C38.9098 3.53833 48.9458 13.5751 48.9458 25.9121C48.9458 38.2491 38.909 48.286 26.5728 48.286ZM26.5728 5.04958C15.0686 5.04958 5.70941 14.4088 5.70941 25.9121C5.70941 37.4163 15.0686 46.7747 26.5728 46.7747C38.0762 46.7747 47.4353 37.4155 47.4353 25.9121C47.4353 14.4088 38.0762 5.04958 26.5728 5.04958Z" fill="#F4F4F4"/>
<path d="M26.5759 8.83545C22.2973 8.83545 18.8149 12.3113 18.8149 16.5899V20.4217H20.4324V16.5899C20.4324 13.7421 23.1165 10.6328 25.9643 10.6328C28.7303 10.6328 30.1196 11.9713 31.0879 12.9396C32.0561 13.9079 32.6009 15.2206 32.6026 16.5899V20.4217H34.3304V16.5899C34.3304 12.3113 30.8546 8.83545 26.5759 8.83545Z" fill="#F4F4F4"/>
<path d="M26.5287 30.1849C27.7129 30.1849 28.6729 29.2249 28.6729 28.0407C28.6729 26.8565 27.7129 25.8965 26.5287 25.8965C25.3445 25.8965 24.3845 26.8565 24.3845 28.0407C24.3845 29.2249 25.3445 30.1849 26.5287 30.1849Z" fill="#F4F4F4"/>
<path d="M28.1824 32.7691H24.8723L25.697 29.0308H27.3578L28.1824 32.7691Z" fill="#F4F4F4"/>
<path d="M16.557 19.9851V36.4797L15.1416 35.9982V21.3095C15.1416 20.5742 15.7307 19.9851 16.466 19.9851H16.557ZM37.8884 21.3095V35.46L36.092 35.9983V19.9852L36.5697 19.9851C37.2993 19.9851 37.8884 20.5742 37.8884 21.3095ZM16.557 35.46V38.4817H16.466C15.7307 38.4817 15.1416 37.8926 15.1416 37.1622V35.46L16.557 35.46ZM37.8884 35.46V37.1622C37.8884 37.8926 37.2993 38.4817 36.5689 38.4817L36.092 38.4817V35.4601L37.8884 35.46Z" fill="#F4F4F4"/>
<path d="M16.4033 19.9851H36.1441V21.696H16.4033V19.9851Z" fill="#F4F4F4"/>
<path d="M16.4033 36.6319L36.1441 36.6318V38.5221H16.4033V36.6319Z" fill="#F4F4F4"/>
</svg>
