<svg width="52" height="23" viewBox="0 0 52 23" fill="none" xmlns="http://www.w3.org/2000/svg">
<path fill-rule="evenodd" clip-rule="evenodd" d="M7.5 12.1588L2.86475 15L4.0023 9.48675L0 5.72949L5.3383 5.16336L7.5 0L9.6617 5.16336L15 5.72949L10.9977 9.48675L12.1353 15L7.5 12.1588Z" fill="#FDCC0D"/>
<g filter="url(#filter0_d_1_22447)">
<path d="M22.752 10.728V8.968L27.984 1.48H30.592V8.776H32V10.728H30.592V13H28.352V10.728H22.752ZM28.496 3.88L25.216 8.776H28.496V3.88ZM34.6741 13.112C34.2688 13.112 33.9328 12.9893 33.6661 12.744C33.4101 12.488 33.2821 12.1733 33.2821 11.8C33.2821 11.4267 33.4101 11.1173 33.6661 10.872C33.9328 10.616 34.2688 10.488 34.6741 10.488C35.0688 10.488 35.3941 10.616 35.6501 10.872C35.9061 11.1173 36.0341 11.4267 36.0341 11.8C36.0341 12.1733 35.9061 12.488 35.6501 12.744C35.3941 12.9893 35.0688 13.112 34.6741 13.112ZM45.4224 3.272H40.2384V6.008C40.4624 5.73067 40.7824 5.50667 41.1984 5.336C41.6144 5.15467 42.057 5.064 42.5264 5.064C43.3797 5.064 44.0784 5.25067 44.6224 5.624C45.1664 5.99733 45.561 6.47733 45.8064 7.064C46.0517 7.64 46.1744 8.25867 46.1744 8.92C46.1744 10.1467 45.8224 11.1333 45.1184 11.88C44.425 12.6267 43.433 13 42.1424 13C40.9264 13 39.9557 12.696 39.2304 12.088C38.505 11.48 38.0944 10.6853 37.9984 9.704H40.1744C40.2704 10.1307 40.4837 10.472 40.8144 10.728C41.1557 10.984 41.5877 11.112 42.1104 11.112C42.7397 11.112 43.2144 10.9147 43.5344 10.52C43.8544 10.1253 44.0144 9.60267 44.0144 8.952C44.0144 8.29067 43.849 7.78933 43.5184 7.448C43.1984 7.096 42.7237 6.92 42.0944 6.92C41.6464 6.92 41.273 7.032 40.9744 7.256C40.6757 7.48 40.4624 7.77867 40.3344 8.152H38.1904V1.304H45.4224V3.272Z" fill="white"/>
</g>
<defs>
<filter id="filter0_d_1_22447" x="17.8091" y="1.30402" width="33.3081" height="21.6937" filterUnits="userSpaceOnUse" color-interpolation-filters="sRGB">
<feFlood flood-opacity="0" result="BackgroundImageFix"/>
<feColorMatrix in="SourceAlpha" type="matrix" values="0 0 0 0 0 0 0 0 0 0 0 0 0 0 0 0 0 0 127 0" result="hardAlpha"/>
<feOffset dy="4.94286"/>
<feGaussianBlur stdDeviation="2.47143"/>
<feComposite in2="hardAlpha" operator="out"/>
<feColorMatrix type="matrix" values="0 0 0 0 0 0 0 0 0 0 0 0 0 0 0 0 0 0 0.8 0"/>
<feBlend mode="normal" in2="BackgroundImageFix" result="effect1_dropShadow_1_22447"/>
<feBlend mode="normal" in="SourceGraphic" in2="effect1_dropShadow_1_22447" result="shape"/>
</filter>
</defs>
</svg>
