<svg width="131" height="51" viewBox="0 0 131 51" fill="none" xmlns="http://www.w3.org/2000/svg">
<rect width="131" height="51" rx="8" fill="#FEFEFE"/>
<g clip-path="url(#clip0_1_23796)">
<path d="M15.438 19.2251L14.4827 23.0622L19.9506 19.2032L16.3745 33.7639L20.0064 33.7672L25.2894 12.2605" fill="#3395FF"/>
<path d="M9.5528 27.6459L8.04858 33.7672H15.4927L18.5387 21.3147L9.5528 27.6459ZM35.4108 22.2566C35.2289 22.9946 34.8783 23.5367 34.3554 23.8829C33.8338 24.2284 33.1017 24.4019 32.1567 24.4019H29.1544L30.2085 20.1127H33.2109C34.1547 20.1127 34.8031 20.2848 35.1549 20.6356C35.5067 20.9864 35.5916 21.5226 35.4108 22.2639M38.5193 22.1712C38.9015 20.6224 38.7438 19.4309 38.045 18.5969C37.3475 17.7695 36.1235 17.3525 34.3767 17.3525H27.6762L23.6427 33.7745H26.898L28.5236 27.1554H30.6586C31.1377 27.1554 31.515 27.2414 31.7904 27.4069C32.0664 27.579 32.2283 27.8769 32.278 28.3071L32.8591 33.7745H36.3467L35.7814 28.6778C35.6662 27.5393 35.1888 26.8708 34.35 26.6722C35.4193 26.3346 36.3152 25.772 37.037 24.991C37.7537 24.2156 38.2658 23.2439 38.5193 22.1778M46.4323 27.8967C46.1593 29.0087 45.7408 29.8494 45.1749 30.4385C44.6084 31.0276 43.9315 31.3188 43.1418 31.3188C42.3375 31.3188 41.7922 31.0342 41.5041 30.4583C41.2154 29.8825 41.2057 29.0485 41.4738 27.9563C41.7419 26.8642 42.1695 26.0103 42.7578 25.3947C43.3462 24.7791 44.034 24.4714 44.8237 24.4714C45.6122 24.4714 46.152 24.7692 46.425 25.3603C46.704 25.954 46.7101 26.8033 46.4371 27.9086L46.4323 27.8967ZM47.8588 22.0852L47.4512 23.7466C47.2754 23.1509 46.9339 22.6743 46.4292 22.3168C45.9234 21.966 45.2974 21.7873 44.5508 21.7873C43.6349 21.7873 42.7554 22.0455 41.9123 22.5618C41.0692 23.078 40.3293 23.8061 39.6985 24.746C39.0677 25.686 38.6067 26.7516 38.3095 27.9497C38.0183 29.1544 37.9577 30.2068 38.1336 31.1202C38.3155 32.0403 38.6977 32.7419 39.286 33.2317C39.8804 33.7281 40.6386 33.973 41.5666 33.973C42.304 33.9771 43.0331 33.8031 43.7016 33.4634C44.3626 33.138 44.9505 32.6591 45.4242 32.0601L44.9996 33.7917H48.1476L51.0219 22.0911H47.8679L47.8588 22.0852ZM62.3339 22.0852H53.1794L52.5395 24.6931H57.8661L50.8242 31.332L50.2225 33.7811H59.6724L60.3123 31.1732H54.6048L61.7547 24.435M70.3918 27.8769C70.1086 29.0286 69.6882 29.8944 69.1332 30.4583C68.5783 31.0276 67.9062 31.3122 67.1171 31.3122C65.4673 31.3122 64.9251 30.1671 65.4879 27.8769C65.7669 26.7384 66.1891 25.8825 66.7532 25.306C67.3173 24.7275 68.0008 24.4389 68.8045 24.4389C69.593 24.4389 70.1255 24.7255 70.3997 25.3027C70.6738 25.8786 70.6714 26.7371 70.3918 27.8756M72.2345 22.5253C71.5097 22.0329 70.5847 21.7867 69.4565 21.7867C68.3144 21.7867 67.2572 22.0316 66.2843 22.5214C65.3155 23.0081 64.464 23.7347 63.7975 24.6435C63.1121 25.5635 62.619 26.6424 62.3163 27.8736C62.0191 29.1001 61.9827 30.177 62.2132 31.099C62.4437 32.0191 62.9289 32.7273 63.6568 33.2171C64.3907 33.7109 65.3248 33.9565 66.4711 33.9565C67.5993 33.9565 68.6486 33.7089 69.613 33.2165C70.5774 32.7214 71.4023 32.0184 72.0877 31.0918C72.7731 30.1691 73.2644 29.0928 73.5676 27.8616C73.8709 26.6305 73.9073 25.5556 73.6768 24.6315C73.4463 23.7115 72.9672 23.0032 72.2454 22.5101M83.4725 25.2107L84.2791 22.0269C84.0062 21.8747 83.6484 21.7953 83.1995 21.7953C82.4777 21.7953 81.7863 21.9899 81.1191 22.3844C80.5453 22.7193 80.0576 23.1919 79.6452 23.7836L80.0637 22.0693L79.1496 22.0733H76.9054L74.0122 33.7692H77.2045L78.7057 27.6551C78.924 26.7662 79.317 26.0666 79.8842 25.5701C80.4482 25.0717 81.1518 24.8222 82.001 24.8222C82.5226 24.8222 83.0078 24.9526 83.4688 25.2127M92.3546 27.9331C92.0817 29.0253 91.6692 29.8593 91.1051 30.4351C90.5411 31.0137 89.8617 31.3022 89.0732 31.3022C88.2847 31.3022 87.7449 31.011 87.4598 30.4285C87.1687 29.8427 87.1626 28.9988 87.4356 27.8895C87.7085 26.7808 88.127 25.9302 88.7033 25.3411C89.2795 24.7474 89.9588 24.4508 90.7473 24.4508C91.5237 24.4508 92.0453 24.7553 92.3243 25.3709C92.6033 25.9865 92.6094 26.8403 92.3413 27.9325M94.5733 22.5445C93.982 22.0283 93.2268 21.7701 92.311 21.7701C91.5085 21.7701 90.7437 21.9687 90.0182 22.3698C89.2934 22.7703 88.7051 23.3163 88.2532 24.0074L88.2641 23.9279L88.7997 22.068H85.6821L84.8875 25.3047L84.8632 25.4172L81.5879 38.7507H84.7844L86.4342 32.039C86.598 32.636 86.9315 33.1046 87.441 33.4435C87.9505 33.7811 88.5795 33.9486 89.3274 33.9486C90.2554 33.9486 91.1409 33.7036 91.981 33.2138C92.8241 32.7227 93.5519 32.0158 94.1706 31.1024C94.7893 30.1889 95.2484 29.1299 95.5414 27.9318C95.8386 26.7318 95.8992 25.6615 95.7294 24.7249C95.5565 23.7869 95.1738 23.0608 94.5831 22.5472M105.176 27.8855C104.903 28.9909 104.485 29.8381 103.921 30.4206C103.357 31.007 102.677 31.2989 101.889 31.2989C101.082 31.2989 100.536 31.0143 100.251 30.4385C99.96 29.8626 99.954 29.0286 100.221 27.9364C100.488 26.8443 100.914 25.9904 101.502 25.3749C102.09 24.7593 102.779 24.4522 103.568 24.4522C104.357 24.4522 104.891 24.75 105.17 25.3391C105.449 25.9302 105.45 26.7794 105.179 27.8875L105.176 27.8855ZM106.602 22.0706L106.193 23.732C106.018 23.133 105.678 22.6564 105.174 22.3023C104.665 21.9488 104.04 21.7728 103.294 21.7728C102.378 21.7728 101.494 22.0309 100.65 22.5472C99.8066 23.0635 99.0666 23.7876 98.4358 24.7249C97.805 25.6621 97.344 26.7304 97.0468 27.9285C96.7526 29.1312 96.695 30.1856 96.8709 31.103C97.0486 32.0164 97.4314 32.722 98.0233 33.2145C98.6141 33.7043 99.3759 33.9519 100.304 33.9519C101.05 33.9519 101.763 33.7824 102.439 33.4422C103.098 33.1154 103.685 32.6359 104.157 32.037L103.733 33.7698H106.881L109.754 22.0739H106.606L106.602 22.0706ZM122.97 22.0746L122.972 22.0713H121.037C120.975 22.0713 120.921 22.0746 120.864 22.0759H119.861L119.345 22.857L119.218 23.0423L119.163 23.135L115.084 29.3357L114.241 22.0746H110.9L112.592 33.1086L108.856 38.7547H112.186L113.09 37.3561C113.115 37.315 113.138 37.2806 113.169 37.2369L114.224 35.602L114.254 35.5557L118.981 28.2416L122.966 22.0858L122.972 22.0819H122.97V22.0746Z" fill="#072654"/>
</g>
<defs>
<clipPath id="clip0_1_23796">
<rect width="115" height="26.6087" fill="white" transform="translate(8 12.1956)"/>
</clipPath>
</defs>
</svg>
