<svg width="49" height="48" viewBox="0 0 49 48" fill="none" xmlns="http://www.w3.org/2000/svg">
<path d="M46.4458 32.5102C46.3483 32.5099 46.2515 32.4932 46.1595 32.4607C46.0541 32.4231 45.9571 32.3652 45.8741 32.2901C45.791 32.215 45.7236 32.1243 45.6757 32.0232C45.6277 31.922 45.6002 31.8124 45.5946 31.7007C45.589 31.5889 45.6055 31.4771 45.6431 31.3717C46.0229 30.3024 46.3189 29.2051 46.5285 28.0899C46.5708 27.8679 46.6995 27.6717 46.8864 27.5446C47.0733 27.4174 47.3031 27.3697 47.5251 27.412C47.7472 27.4543 47.9433 27.583 48.0705 27.7699C48.1976 27.9568 48.2453 28.1866 48.203 28.4086C47.9769 29.6101 47.6578 30.7922 47.2486 31.9443C47.1895 32.1099 47.0806 32.2532 46.9369 32.3545C46.7932 32.4558 46.6217 32.5102 46.4458 32.5102Z" fill="#F4F4F4"/>
<path d="M41.0952 41.0316C40.9277 41.031 40.7641 40.9809 40.6249 40.8878C40.4857 40.7946 40.377 40.6625 40.3124 40.5079C40.2479 40.3533 40.2303 40.1831 40.2619 40.0186C40.2935 39.8541 40.3729 39.7026 40.4902 39.5829C41.4875 38.5775 42.3859 37.4786 43.1729 36.3012C43.2983 36.1132 43.4933 35.9827 43.7149 35.9384C43.9366 35.8941 44.1668 35.9397 44.3548 36.0652C44.5429 36.1906 44.6734 36.3856 44.7176 36.6072C44.7619 36.8289 44.7163 37.0591 44.5909 37.2471C43.7428 38.5135 42.7748 39.6952 41.7003 40.776C41.6214 40.8565 41.5272 40.9206 41.4234 40.9645C41.3195 41.0083 41.208 41.0312 41.0952 41.0316Z" fill="#F4F4F4"/>
<path d="M44.7097 4.4648C44.5606 4.39698 44.3952 4.37353 44.2332 4.39726C44.0712 4.42098 43.9194 4.49088 43.7961 4.59859L41.2899 6.79551C38.1094 3.74229 34.1449 1.63043 29.8366 0.694486C25.5283 -0.241458 21.0449 0.0351478 16.8843 1.49358C12.7238 2.95202 9.04888 5.53519 6.26787 8.95621C3.48685 12.3772 1.70855 16.5022 1.13047 20.8729C0.552394 25.2436 1.19717 29.689 2.99318 33.7154C4.78919 37.7418 7.66614 41.1915 11.3045 43.6814C14.9428 46.1714 19.2002 47.604 23.6037 47.8203C28.0071 48.0366 32.3844 47.028 36.2492 44.9066C36.4474 44.7979 36.5943 44.6149 36.6576 44.3979C36.7209 44.1809 36.6954 43.9476 36.5867 43.7494C36.478 43.5512 36.295 43.4043 36.0779 43.341C35.8609 43.2777 35.6276 43.3032 35.4294 43.4119C31.8436 45.3855 27.7814 46.3275 23.693 46.1337C19.6046 45.9398 15.6497 44.6176 12.2668 42.3136C8.88382 40.0096 6.20495 36.8139 4.5271 33.0806C2.84925 29.3473 2.23796 25.2223 2.761 21.1628C3.28404 17.1034 4.92097 13.2681 7.49034 10.082C10.0597 6.89594 13.4612 4.48359 17.3176 3.11237C21.1741 1.74115 25.335 1.46462 29.339 2.31342C33.343 3.16223 37.0338 5.10322 40.0022 7.92123L36.9821 10.563C36.8514 10.6769 36.7585 10.828 36.7158 10.996C36.6732 11.1641 36.6829 11.3412 36.7435 11.5037C36.8042 11.6661 36.913 11.8062 37.0553 11.9052C37.1977 12.0042 37.3669 12.0574 37.5403 12.0577H44.3577C44.5837 12.0577 44.8005 11.9679 44.9603 11.8081C45.1201 11.6483 45.2099 11.4315 45.2099 11.2055V5.24028C45.2098 5.07663 45.1625 4.91649 45.0738 4.77897C44.9851 4.64145 44.8587 4.53238 44.7097 4.4648Z" fill="#F4F4F4"/>
<path d="M47.7674 23.9887C47.5467 23.9888 47.3346 23.9034 47.1757 23.7503C47.0167 23.5973 46.9233 23.3885 46.9152 23.168C46.8759 22.0675 46.7511 20.9717 46.5419 19.8905C46.5021 19.6701 46.5506 19.4428 46.6771 19.2578C46.8036 19.0729 46.9978 18.9452 47.2177 18.9024C47.4376 18.8596 47.6656 18.9052 47.8522 19.0292C48.0388 19.1532 48.169 19.3457 48.2148 19.565C48.4409 20.7328 48.5763 21.9163 48.6195 23.105C48.6238 23.2169 48.6059 23.3286 48.5669 23.4336C48.5279 23.5386 48.4686 23.6349 48.3924 23.7169C48.3162 23.799 48.2245 23.8653 48.1227 23.9119C48.0209 23.9585 47.9108 23.9846 47.7989 23.9887H47.7674Z" fill="#F4F4F4"/>
<path d="M33.7186 16.8525L27.5684 11.6209C27.2234 11.3258 26.7882 11.1571 26.3344 11.1426C25.8807 11.1281 25.4356 11.2686 25.0724 11.541L22.4067 13.5378L20.7293 11.8605C20.3552 11.4886 19.8491 11.2799 19.3216 11.2799C18.7941 11.2799 18.288 11.4886 17.9138 11.8605L12.9218 16.9025C12.2088 17.0008 11.5551 17.3526 11.0803 17.8934C10.6054 18.4343 10.3412 19.1281 10.3359 19.8478V33.8254C10.3359 34.6198 10.6515 35.3817 11.2132 35.9434C11.7749 36.5051 12.5368 36.8206 13.3312 36.8206H33.2993C34.0936 36.8206 34.8555 36.5051 35.4172 35.9434C35.9789 35.3817 36.2945 34.6198 36.2945 33.8254V19.8478C36.3016 19.121 36.0443 18.4164 35.5703 17.8653C35.0964 17.3142 34.4383 16.9543 33.7186 16.8525ZM34.2977 28.8334H32.3008C31.7713 28.8334 31.2634 28.623 30.8889 28.2486C30.5144 27.8741 30.304 27.3662 30.304 26.8366C30.304 26.307 30.5144 25.7991 30.8889 25.4246C31.2634 25.0502 31.7713 24.8398 32.3008 24.8398H34.2977V28.8334ZM26.3104 13.1385L30.6036 16.8525H25.7214L23.8344 14.9656L26.3104 13.1385ZM19.3216 13.2683L22.9059 16.8525H15.7373L19.3216 13.2683ZM33.2993 34.8238H13.3312C13.0664 34.8238 12.8124 34.7186 12.6252 34.5314C12.4379 34.3442 12.3327 34.0902 12.3327 33.8254V19.8478C12.3327 19.583 12.4379 19.329 12.6252 19.1418C12.8124 18.9545 13.0664 18.8494 13.3312 18.8494H33.2993C33.564 18.8494 33.818 18.9545 34.0052 19.1418C34.1925 19.329 34.2977 19.583 34.2977 19.8478V22.843H32.3008C31.2417 22.843 30.2259 23.2637 29.4769 24.0127C28.728 24.7616 28.3072 25.7774 28.3072 26.8366C28.3072 27.8958 28.728 28.9116 29.4769 29.6605C30.2259 30.4095 31.2417 30.8302 32.3008 30.8302H34.2977V33.8254C34.2977 34.0902 34.1925 34.3442 34.0052 34.5314C33.818 34.7186 33.564 34.8238 33.2993 34.8238Z" fill="#F4F4F4"/>
<path d="M31.592 26.1279C31.4096 26.3192 31.3062 26.5724 31.3025 26.8367C31.3025 27.1015 31.4077 27.3555 31.5949 27.5427C31.7822 27.7299 32.0361 27.8351 32.3009 27.8351C32.5657 27.8351 32.8196 27.7299 33.0069 27.5427C33.1941 27.3555 33.2993 27.1015 33.2993 26.8367C33.3005 26.6384 33.2425 26.4443 33.1329 26.279C33.0233 26.1138 32.8669 25.9849 32.6838 25.9088C32.5006 25.8328 32.299 25.813 32.1045 25.852C31.9101 25.891 31.7317 25.9871 31.592 26.1279Z" fill="#F4F4F4"/>
</svg>
