<svg width="274" height="42" viewBox="0 0 274 42" fill="none" xmlns="http://www.w3.org/2000/svg">
<path opacity="0.804766" fill-rule="evenodd" clip-rule="evenodd" d="M21.1603 30.6595C20.9021 30.5089 20.5828 30.5089 20.3246 30.6595L10.1786 36.5742C9.55513 36.9376 8.79692 36.3868 8.94994 35.6815L11.4399 24.2044C11.5033 23.9122 11.4046 23.6086 11.1816 23.4095L2.42116 15.5879C1.8828 15.1073 2.1724 14.2159 2.89048 14.1435L14.5753 12.965C14.8727 12.935 15.131 12.7473 15.2514 12.4738L19.983 1.72505C20.2738 1.06449 21.211 1.06449 21.5018 1.72505L26.2335 12.4738C26.3539 12.7473 26.6122 12.935 26.9096 12.965L38.5944 14.1435C39.3124 14.2159 39.6021 15.1073 39.0637 15.5879L30.3032 23.4095C30.0802 23.6086 29.9816 23.9122 30.045 24.2044L32.5349 35.6815C32.6879 36.3868 31.9297 36.9376 31.3062 36.5742L21.1603 30.6595Z" fill="#984100"/>
<path opacity="0.804766" fill-rule="evenodd" clip-rule="evenodd" d="M79.2391 30.6595C78.9809 30.5089 78.6617 30.5089 78.4034 30.6595L68.2575 36.5742C67.634 36.9376 66.8758 36.3868 67.0288 35.6815L69.5187 24.2044C69.5821 23.9122 69.4835 23.6086 69.2605 23.4095L60.5 15.5879C59.9617 15.1073 60.2513 14.2159 60.9693 14.1435L72.6541 12.965C72.9515 12.935 73.2098 12.7473 73.3303 12.4738L78.0619 1.72505C78.3527 1.06449 79.2899 1.06449 79.5807 1.72505L84.3123 12.4738C84.4327 12.7473 84.691 12.935 84.9884 12.965L96.6732 14.1435C97.3913 14.2159 97.6809 15.1073 97.1425 15.5879L88.3821 23.4095C88.1591 23.6086 88.0604 23.9122 88.1238 24.2044L90.6138 35.6815C90.7668 36.3868 90.0086 36.9376 89.3851 36.5742L79.2391 30.6595Z" fill="#984100"/>
<path opacity="0.804766" fill-rule="evenodd" clip-rule="evenodd" d="M137.334 33.8927C137.068 33.7296 136.733 33.7296 136.467 33.8927L125.714 40.4837C125.095 40.8633 124.321 40.3201 124.468 39.6087L127.133 26.6919C127.191 26.4093 127.099 26.1168 126.888 25.9193L117.478 17.0849C116.96 16.599 117.252 15.7298 117.958 15.6549L130.433 14.3319C130.734 14.2999 130.994 14.1065 131.111 13.8272L136.135 1.82805C136.419 1.149 137.381 1.149 137.665 1.82804L142.689 13.8272C142.806 14.1065 143.066 14.2999 143.367 14.3319L155.842 15.6549C156.548 15.7298 156.84 16.599 156.323 17.0849L146.912 25.9193C146.702 26.1168 146.609 26.4093 146.667 26.6919L149.333 39.6087C149.479 40.3201 148.706 40.8633 148.086 40.4837L137.334 33.8927Z" fill="#984100"/>
<path opacity="0.804766" fill-rule="evenodd" clip-rule="evenodd" d="M195.397 30.6595C195.138 30.5089 194.819 30.5089 194.561 30.6595L184.415 36.5742C183.791 36.9376 183.033 36.3868 183.186 35.6815L185.676 24.2044C185.74 23.9122 185.641 23.6086 185.418 23.4095L176.657 15.5879C176.119 15.1073 176.409 14.2159 177.127 14.1435L188.812 12.965C189.109 12.935 189.367 12.7473 189.488 12.4738L194.219 1.72505C194.51 1.06449 195.447 1.06449 195.738 1.72505L200.47 12.4738C200.59 12.7473 200.848 12.935 201.146 12.965L212.831 14.1435C213.549 14.2159 213.838 15.1073 213.3 15.5879L204.54 23.4095C204.317 23.6086 204.218 23.9122 204.281 24.2044L206.771 35.6815C206.924 36.3868 206.166 36.9376 205.543 36.5742L195.397 30.6595Z" fill="#984100"/>
<path opacity="0.804766" fill-rule="evenodd" clip-rule="evenodd" d="M253.475 30.6595C253.217 30.5089 252.898 30.5089 252.64 30.6595L242.494 36.5742C241.87 36.9376 241.112 36.3868 241.265 35.6815L243.755 24.2044C243.818 23.9122 243.72 23.6086 243.497 23.4095L234.736 15.5879C234.198 15.1073 234.487 14.2159 235.205 14.1435L246.89 12.965C247.188 12.935 247.446 12.7473 247.566 12.4738L252.298 1.72505C252.589 1.06449 253.526 1.06449 253.817 1.72505L258.548 12.4738C258.669 12.7473 258.927 12.935 259.225 12.965L270.909 14.1435C271.627 14.2159 271.917 15.1073 271.379 15.5879L262.618 23.4095C262.395 23.6086 262.297 23.9122 262.36 24.2044L264.85 35.6815C265.003 36.3868 264.245 36.9376 263.621 36.5742L253.475 30.6595Z" fill="#FFA867"/>
</svg>
