<svg width="48" height="44" viewBox="0 0 48 44" fill="none" xmlns="http://www.w3.org/2000/svg">
<g clip-path="url(#clip0_1_23847)">
<path d="M40.8981 5.3111C40.8981 5.14016 40.8253 4.97622 40.6958 4.85534C40.5663 4.73447 40.3907 4.66657 40.2075 4.66657H35.1433C34.9602 4.66657 34.7845 4.73447 34.655 4.85534C34.5255 4.97622 34.4528 5.14016 34.4528 5.3111C34.4528 5.48204 34.5255 5.64598 34.655 5.76685C34.7845 5.88772 34.9602 5.95563 35.1433 5.95563H36.0641C36.4923 5.95614 36.9099 6.0803 37.2596 6.31109C37.6092 6.54189 37.8738 6.868 38.017 7.24469H35.1433C34.9602 7.24469 34.7845 7.3126 34.655 7.43347C34.5255 7.55434 34.4528 7.71828 34.4528 7.88922C34.4528 8.06016 34.5255 8.2241 34.655 8.34497C34.7845 8.46585 34.9602 8.53375 35.1433 8.53375H38.017C37.8738 8.91044 37.6092 9.23654 37.2596 9.46733C36.9099 9.69812 36.4923 9.8223 36.0641 9.82282H35.1433C35.0081 9.82281 34.8758 9.85987 34.763 9.92938C34.6501 9.9989 34.5616 10.0978 34.5084 10.2139C34.4552 10.3299 34.4397 10.458 34.4638 10.5822C34.4879 10.7064 34.5505 10.8212 34.6439 10.9125L38.327 14.5116C38.4535 14.6352 38.6274 14.7068 38.8106 14.7108C38.9937 14.7147 39.171 14.6505 39.3034 14.5325C39.4359 14.4144 39.5126 14.252 39.5168 14.0811C39.521 13.9102 39.4523 13.7447 39.3258 13.6211L36.7015 11.0568C37.3754 10.9373 37.9961 10.6337 38.4848 10.1845C38.9736 9.73528 39.3083 9.16071 39.4467 8.53367H40.2075C40.3907 8.53367 40.5663 8.46576 40.6958 8.34489C40.8253 8.22402 40.8981 8.06008 40.8981 7.88914C40.8981 7.7182 40.8253 7.55426 40.6958 7.43338C40.5663 7.31251 40.3907 7.2446 40.2075 7.2446H39.4475C39.3451 6.77703 39.1323 6.33665 38.8245 5.95554H40.2075C40.3907 5.95554 40.5663 5.88764 40.6958 5.76676C40.8253 5.64589 40.8981 5.48204 40.8981 5.3111ZM24.5546 21.6337V17.963C24.5546 17.792 24.4818 17.6281 24.3523 17.5072C24.2228 17.3864 24.0472 17.3185 23.864 17.3185C23.6809 17.3185 23.5052 17.3864 23.3757 17.5072C23.2462 17.6281 23.1735 17.792 23.1735 17.963V21.6218L20.1424 20.5371C19.9719 20.4779 19.7832 20.4839 19.6174 20.5538C19.4516 20.6237 19.3221 20.7519 19.2569 20.9104C19.1918 21.069 19.1963 21.2451 19.2695 21.4006C19.3428 21.556 19.4788 21.6782 19.648 21.7406L22.7631 22.8555L20.5185 25.6509C20.4086 25.7877 20.3615 25.9596 20.3874 26.1288C20.4134 26.2981 20.5103 26.4507 20.6569 26.5533C20.8035 26.6558 20.9877 26.6998 21.169 26.6755C21.3503 26.6513 21.5139 26.5609 21.6237 26.4241L23.8781 23.6165L26.262 26.4367C26.3754 26.5709 26.5413 26.6575 26.7232 26.6776C26.9051 26.6976 27.0881 26.6494 27.2319 26.5435C27.3757 26.4376 27.4685 26.2828 27.49 26.113C27.5115 25.9432 27.4598 25.7725 27.3463 25.6382L24.9947 22.8562L28.2195 21.7433C28.3889 21.6824 28.5258 21.5617 28.6006 21.4073C28.6754 21.2529 28.682 21.0772 28.619 20.9183C28.5561 20.7594 28.4286 20.63 28.2642 20.5581C28.0998 20.4863 27.9117 20.4777 27.7406 20.5343L24.5546 21.6337ZM37.6754 0.00024418C36.1713 0.000262219 34.6872 0.322701 33.3377 0.942698C31.9882 1.56269 30.8092 2.46368 29.8918 3.57619C27.9068 2.66716 26.0583 1.51885 24.3936 0.16069C24.2629 0.0534896 24.0937 -0.00372688 23.9198 0.00047935C23.7459 0.00468558 23.58 0.0700046 23.4555 0.183377C21.8068 1.67463 19.9167 2.91425 17.8548 3.85669C13.6274 5.80592 9.41328 6.26286 6.62227 6.30299C6.44099 6.3056 6.26809 6.37465 6.14089 6.49522C6.01368 6.6158 5.94239 6.77822 5.94238 6.94743V19.9721C5.94238 24.929 7.63649 29.7907 10.8417 34.0318C13.9406 38.1322 18.3652 41.5569 23.6371 43.936C23.7308 43.9783 23.8336 44.0003 23.9377 44.0003C24.0418 44.0003 24.1446 43.9783 24.2383 43.936C29.5103 41.5569 33.9348 38.1322 37.0337 34.0318C40.2389 29.7908 41.9331 24.929 41.9331 19.9721V17.4507C43.942 16.5502 45.5636 15.0396 46.5322 13.1662C47.5007 11.2929 47.7587 9.16808 47.2638 7.13998C46.769 5.11189 45.5507 3.30083 43.8086 2.00363C42.0665 0.706439 39.904 5.18624e-05 37.6754 0.00024418ZM40.5519 19.9721C40.5519 24.6615 38.945 29.2663 35.905 33.2888C32.9996 37.1332 28.8668 40.3608 23.9376 42.6381C19.0084 40.3608 14.8756 37.1332 11.9702 33.2888C8.93025 29.2664 7.32343 24.6615 7.32343 19.9721V7.57478C10.237 7.46925 14.3406 6.91495 18.4666 5.01246C20.4675 4.09629 22.3177 2.9176 23.9608 1.51223C25.545 2.74272 27.2762 3.79819 29.1201 4.65763C28.7387 5.28342 28.4381 5.94914 28.2244 6.64089C26.9074 6.03363 25.6407 5.33554 24.435 4.55244C24.3157 4.47472 24.1731 4.43416 24.0276 4.43655C23.8822 4.43894 23.7412 4.48416 23.6249 4.56576C22.3271 5.47445 20.9417 6.26877 19.4866 6.9385C16.5742 8.26676 13.4454 9.13353 10.2282 9.5033C10.0616 9.5232 9.90848 9.5991 9.7975 9.71679C9.68652 9.83449 9.62531 9.9859 9.62533 10.1427V19.9721C9.62533 24.2154 11.0868 28.3921 13.8517 32.0508C16.2524 35.2279 19.6244 37.9939 23.6031 40.0499C23.7055 40.1028 23.8206 40.1305 23.9376 40.1305C24.0546 40.1305 24.1697 40.1028 24.2721 40.0499C28.2507 37.9939 31.6228 35.2279 34.0235 32.0509C36.7885 28.3921 38.25 24.2154 38.25 19.9721V18.3402C39.031 18.2983 39.8038 18.1692 40.5519 17.9554V19.9721ZM36.8688 18.3252V19.9721C36.8688 23.9478 35.4947 27.8677 32.8948 31.308C30.6808 34.2379 27.5894 36.8042 23.9376 38.7467C20.2859 36.8042 17.1944 34.2379 14.9804 31.3079C12.3805 27.8678 11.0064 23.9478 11.0064 19.9721V10.7046C14.1648 10.2844 17.2328 9.40351 20.0982 8.09427C21.481 7.45746 22.8043 6.71398 24.0545 5.87158C25.2919 6.64766 26.5875 7.3397 27.9313 7.94233C27.7516 9.17715 27.8432 10.4332 28.2005 11.6339C28.5578 12.8346 29.1733 13.9548 30.0095 14.9263C30.8457 15.8978 31.8851 16.7002 33.0644 17.2845C34.2437 17.8689 35.5381 18.223 36.8687 18.3253L36.8688 18.3252ZM37.6754 17.0673C36.0037 17.0673 34.3695 16.6046 32.9795 15.7377C31.5895 14.8709 30.5061 13.6388 29.8664 12.1973C29.2266 10.7558 29.0592 9.16956 29.3854 7.63925C29.7115 6.10894 30.5165 4.70326 31.6986 3.59997C32.8807 2.49667 34.3868 1.74531 36.0264 1.4409C37.666 1.13649 39.3655 1.29271 40.91 1.88979C42.4545 2.48688 43.7746 3.49802 44.7034 4.79534C45.6321 6.09267 46.1279 7.61791 46.1279 9.1782C46.1254 11.2698 45.2341 13.275 43.6495 14.754C42.0649 16.233 39.9164 17.0649 37.6754 17.0673Z" fill="#F4F4F4"/>
</g>
<defs>
<clipPath id="clip0_1_23847">
<rect width="47.1429" height="44" fill="white" transform="translate(0.365479)"/>
</clipPath>
</defs>
</svg>
