<svg width="131" height="51" viewBox="0 0 131 51" fill="none" xmlns="http://www.w3.org/2000/svg">
<rect width="131" height="51" rx="8" fill="#FEFEFE"/>
<path d="M63.6556 18.3808H68.1867V32.3128H63.6556V18.3808ZM44.4454 28.252C44.4454 23.44 37.5473 24.3064 37.5473 22.4848L37.55 22.4896C37.55 21.8608 38.1404 21.616 39.0856 21.6064C40.6534 21.6359 42.1914 21.991 43.576 22.6432V18.8416C42.1502 18.343 40.6292 18.0928 39.0965 18.1048C35.4375 18.1048 33 19.8136 33 22.6696C33 27.1432 39.8575 26.416 39.8575 28.3456C39.8575 29.0896 39.1371 29.3368 38.1296 29.3368C36.6373 29.3368 34.7062 28.7824 33.1923 28.0456V31.684C34.7467 32.2841 36.4232 32.596 38.1187 32.6008C41.8671 32.5984 44.4454 31.1608 44.4454 28.252ZM63.6421 17.1568L68.1731 16.2928V13L63.6421 13.864V17.1568ZM77.6008 18.1096C76.2812 18.1047 75.0122 18.5589 74.0665 19.3744L73.8335 18.3736H69.8604V37L74.3698 36.1432L74.3806 31.5784C75.0306 32.0056 75.9948 32.5984 77.571 32.5984C80.8021 32.5984 83.746 30.4888 83.746 25.36C83.7569 20.6656 80.7723 18.1096 77.6008 18.1096ZM76.5256 29.248C75.4667 29.2504 74.841 28.9048 74.4023 28.4848L74.3725 22.4824C74.841 22.0192 75.491 21.6808 76.5256 21.6808C78.1696 21.6808 79.3071 23.3368 79.3071 25.4464C79.3206 27.6208 78.2021 29.248 76.5256 29.248ZM91.4783 18.1096C87.191 18.1096 84.5802 21.3736 84.5802 25.4872C84.5802 30.352 87.6569 32.6008 92.0471 32.6008C94.2002 32.6008 95.8144 32.164 97.044 31.5544V28.516C95.8144 29.0704 94.4033 29.4064 92.6158 29.4064C90.8581 29.4064 89.3144 28.852 89.1112 26.9608H97.9377C97.9567 26.752 97.9973 25.9048 97.9973 25.516C97.9973 21.376 95.7656 18.1096 91.4783 18.1096ZM89.0706 23.9848C89.0706 22.1656 90.3219 21.4024 91.4485 21.4024C92.5562 21.4024 93.7344 22.168 93.7344 23.9848H89.0706ZM53.1825 21.82V18.3808H49.7592L49.7483 14.8792L45.3473 15.7168L45.3283 28.6672C45.3283 31.06 47.3406 32.6056 50.011 32.6056C51.4952 32.6056 52.5812 32.3584 53.1825 32.068V28.9936C52.6029 29.2024 49.7592 29.9488 49.7592 27.5656V21.8176H53.1825V21.82ZM62.5669 22.0936V18.3832C61.9575 18.1912 59.8558 17.8384 58.7996 19.5736L58.5233 18.3832H54.6233V32.3152H59.1246V22.9384C60.1917 21.6832 61.99 21.9304 62.5669 22.0936Z" fill="#646FDE"/>
</svg>
