<svg width="180" height="176" viewBox="0 0 180 176" fill="none" xmlns="http://www.w3.org/2000/svg">
<path d="M157.527 64.7536C155.724 65.21 153.106 65.5843 149.81 65.8976C146.551 66.2144 142.609 66.4714 138.248 67.085C133.909 67.7092 129.126 68.7641 124.39 70.8092C122.13 71.7642 120.047 72.9153 118.111 74.1707C118.119 74.1977 118.124 74.2259 118.131 74.2529C118.399 74.6084 118.649 74.9874 118.87 75.4027C120.77 74.2153 122.812 73.1124 125.017 72.1808C129.558 70.253 134.214 69.1266 138.459 68.3569C142.721 67.5813 146.636 67.139 149.895 66.6438C153.189 66.1452 155.831 65.5585 157.582 65.0129C159.373 64.4497 160.277 63.964 160.277 63.9769C160.275 63.964 159.312 64.3383 157.527 64.7536Z" fill="#A95210"/>
<path d="M111.706 65.3896C113.012 63.5592 114.485 61.7558 116.184 60.0533C119.621 56.5298 123.445 53.7525 127.098 51.4399C130.713 49.1449 134.166 47.2582 137.006 45.558C139.843 43.8731 142.032 42.3525 143.445 41.151C144.868 39.9601 145.527 39.1704 145.536 39.1798C145.529 39.1681 144.806 39.8909 143.304 40.9586C141.825 42.0439 139.529 43.3932 136.616 44.901C133.727 46.4122 130.192 48.1288 126.415 50.3475C122.661 52.5604 118.614 55.3717 115.051 58.9961C113.326 60.7491 111.844 62.6041 110.529 64.4978C110.587 64.5401 110.652 64.58 110.709 64.6222C111.041 64.8639 111.374 65.1209 111.706 65.3896Z" fill="#A95210"/>
<path d="M57.8457 95.2118C56.8787 95.2634 55.9117 95.3174 54.9494 95.342C55.7971 94.6521 56.6375 93.9528 57.4732 93.2535C57.3729 92.6305 57.2965 92.0028 57.238 91.3715C57.2165 91.3903 57.195 91.4067 57.1747 91.4255C53.7699 92.1682 50.5466 92.4509 47.6408 92.4392C44.1071 92.4474 41.0533 92.0426 38.6 91.5698C33.6671 90.5948 31.0777 89.4625 31.0598 89.4906C31.0801 89.4637 33.4892 90.7672 38.3636 92.045C40.7907 92.6774 43.8516 93.2512 47.4809 93.4448C49.8231 93.5656 52.4149 93.4917 55.1834 93.1444C54.2725 93.9164 53.3569 94.6545 52.4221 95.3937C49.822 95.4101 47.2302 95.3068 44.6431 95.0346C39.6577 94.4925 34.7463 93.2828 30.168 91.199L30.1561 91.1908L30.1322 91.1826C27.6466 90.3202 25.2255 89.175 22.7985 88.0838C20.3452 86.9891 17.8955 85.8709 15.2881 85.1071C12.7047 84.3351 9.9219 83.8998 7.21788 84.2999C4.51864 84.6847 2.03428 85.9636 -1.53918e-07 87.6697C2.13934 86.0822 4.65116 84.9675 7.27996 84.6906C9.91951 84.4172 12.5531 84.9499 15.0613 85.8099C17.5636 86.6688 19.9679 87.7846 22.3663 88.9486C24.7743 90.136 27.1619 91.3257 29.7108 92.2949L29.6535 92.2738C31.9683 93.4049 34.4013 94.306 36.8821 95.0123C39.3795 95.7175 41.926 96.1774 44.4808 96.4837C46.4721 96.7019 48.4753 96.8368 50.4678 96.8756C49.0269 97.9515 47.5716 98.9922 46.0554 99.945C41.84 102.571 37.2724 104.688 32.4028 105.718L32.3599 105.729L32.3455 105.724C29.8588 106.513 27.2503 107.007 24.6621 107.574C22.0727 108.139 19.4283 108.745 16.9678 109.84C14.5014 110.905 12.22 112.49 10.4925 114.499C8.74478 116.508 7.53901 118.897 6.689 121.372C7.67749 118.953 9.02055 116.655 10.7958 114.764C12.5758 112.852 14.8214 111.447 17.2556 110.513C19.6838 109.574 22.2613 109.015 24.8734 108.535C27.452 108.023 30.0856 107.597 32.6714 106.852C35.194 106.387 37.6569 105.634 40.0194 104.688C42.4083 103.714 44.6682 102.51 46.8386 101.165C48.9743 99.8593 51.0134 98.4114 52.9832 96.9002C54.7453 96.8955 56.4978 96.8392 58.248 96.7582C58.0999 96.2467 57.9651 95.7316 57.8457 95.2118Z" fill="#A95210"/>
<path d="M57.7167 82.8368C56.7187 82.4907 55.723 82.1387 54.7286 81.7679C55.9212 81.4159 57.1055 81.044 58.2838 80.6591C58.5226 79.9727 58.8186 79.3509 59.1624 78.7924C59.1732 78.7607 59.1803 78.7267 59.1911 78.695C58.9046 78.7935 58.618 78.885 58.3387 78.9824C54.8897 78.3876 51.775 77.4548 49.0925 76.3554C45.8298 75.0107 43.1604 73.5147 41.0736 72.1384C36.9012 69.3846 34.9516 67.3501 34.9242 67.3912C34.954 67.3524 36.6779 69.4797 40.676 72.4951C42.6829 73.9841 45.2687 75.6678 48.5517 77.2131C50.6696 78.2034 53.099 79.1127 55.7851 79.8331C54.651 80.1992 53.5121 80.5453 52.3684 80.8715C49.9652 79.9058 47.605 78.844 45.3296 77.6308C40.9196 75.2348 36.8522 72.2558 33.4367 68.629L33.42 68.6196L33.4009 68.6032C31.4561 66.8526 29.663 64.9119 27.8436 62.963C26.0099 61.0353 24.1666 59.0758 22.0738 57.3874C19.9715 55.7084 17.5886 54.2663 14.9264 53.6304C12.2857 52.9464 9.47301 53.2033 6.9421 54.0129C9.51599 53.3429 12.2797 53.269 14.819 54.0094C17.357 54.7368 19.6181 56.2317 21.5748 57.9529C23.5422 59.6871 25.333 61.636 27.0903 63.6177C28.856 65.596 30.6216 67.6012 32.5819 69.4632L32.5473 69.421C34.2425 71.3312 36.1252 73.0923 38.1559 74.6716C40.183 76.265 42.3534 77.6495 44.6204 78.8886C46.361 79.8519 48.1482 80.7154 49.9688 81.5098C48.2258 81.9556 46.478 82.3687 44.7171 82.6855C39.7986 83.5232 34.7535 83.7508 29.8588 82.8802L29.8098 82.8708L29.7979 82.8603C27.1894 82.6573 24.594 82.1352 21.9807 81.6822C19.3663 81.227 16.6825 80.8011 13.9881 80.8809C11.2996 80.9325 8.57644 81.5356 6.19237 82.7453C3.79756 83.9479 1.74776 85.7068 -1.50498e-06 87.6662C1.85998 85.8065 3.98499 84.1885 6.36071 83.1114C8.75791 82.0202 11.3855 81.552 13.9881 81.6048C16.5942 81.6647 19.2015 82.1082 21.8016 82.6362C24.3779 83.1419 26.9745 83.7426 29.657 84.0301C32.1688 84.5452 34.7403 84.7798 37.2927 84.788C39.8809 84.7787 42.4405 84.517 44.9643 84.1063C47.4355 83.698 49.8804 83.1372 52.2872 82.4778C53.9944 83.1665 55.7147 83.8001 57.435 84.4126C57.515 83.8881 57.6069 83.3636 57.7167 82.8368Z" fill="#A95210"/>
<path d="M116.702 61.6007C115.847 62.5218 114.952 63.532 114.1 64.6948C113.686 65.2415 113.299 65.8341 112.934 66.4571C113.284 66.7821 113.629 67.1189 113.964 67.4697C114.301 66.7598 114.69 66.0793 115.103 65.4457C115.852 64.3111 116.646 63.2715 117.413 62.3176C118.993 60.425 120.43 58.8786 121.654 57.6243C124.099 55.1157 125.549 53.777 125.538 53.7676C125.548 53.7793 124.019 54.9045 121.354 57.1925C120.037 58.3377 118.446 59.7703 116.702 61.6007Z" fill="#A95210"/>
<path d="M147.518 39.9993C145.638 41.784 143.482 43.2682 141.271 44.6962C139.068 46.1311 136.832 47.5203 134.718 49.1794L134.739 49.1489C132.595 50.5393 130.572 52.1573 128.775 53.9443C126.967 55.7383 125.338 57.7048 123.842 59.7675C122.387 61.7716 121.085 63.8612 119.856 65.9885C118.108 66.7042 116.393 67.4727 114.689 68.2589C115.049 68.6707 115.395 69.0943 115.718 69.5296C116.688 69.0755 117.657 68.6203 118.638 68.1885C118.044 69.2527 117.488 70.3298 116.941 71.4092C117.271 72.0006 117.562 72.6037 117.793 73.2162C117.889 73.0308 117.985 72.8454 118.075 72.6588C120.921 70.6818 123.809 69.2093 126.509 68.1192C129.759 66.777 132.731 66.0166 135.184 65.5051C140.142 64.5723 142.976 64.6286 142.953 64.5969C142.971 64.6321 140.218 64.3693 135.236 65.0006C132.727 65.342 129.68 65.9521 126.267 67.1207C124.06 67.9092 121.67 68.9441 119.256 70.3005C119.793 69.2597 120.35 68.2284 120.921 67.2064C123.327 66.2114 125.769 65.3174 128.263 64.5934C133.086 63.2077 138.07 62.5025 143.102 62.6868L143.132 62.6891L143.158 62.6868C145.8 62.5647 148.488 62.6985 151.176 62.7994C153.824 62.9109 156.544 63.0047 159.261 62.7442C161.94 62.4685 164.652 61.8408 167.016 60.441C169.374 59.0776 171.15 56.948 172.361 54.592C171.026 56.8694 169.159 58.8582 166.784 60.0902C164.474 61.3445 161.831 61.8302 159.195 61.9968C156.54 62.1411 153.863 61.9992 151.211 61.8337C148.54 61.6542 145.859 61.4536 143.131 61.5099L143.173 61.4923C140.58 61.3456 137.996 61.3973 135.422 61.6847C132.85 61.9745 130.319 62.5166 127.836 63.2159C125.903 63.7439 124.017 64.3787 122.148 65.0791C123.059 63.5468 124.007 62.0438 125.03 60.5959C127.902 56.5808 131.305 52.9071 135.427 50.131L135.451 50.1017L135.459 50.0864C137.444 48.4355 139.645 46.9924 141.837 45.4975C144.004 43.9898 146.227 42.4387 148.069 40.5144C149.927 38.5937 151.408 36.2987 152.223 33.7584C153.092 31.2498 153.258 28.5888 153.078 25.9922C153.093 28.5852 152.744 31.2252 151.841 33.6458C150.937 36.0781 149.416 38.2241 147.518 39.9993Z" fill="#A95210"/>
<path d="M22.206 53.6824C24.6068 54.7103 26.8333 56.1089 29.0144 57.5626C31.2122 59.0175 33.4041 60.5476 35.7667 61.8323L35.7094 61.8007C37.8439 63.2251 40.1241 64.4184 42.5142 65.3946C44.8947 66.3544 47.3635 67.0771 49.8777 67.6438C52.3238 68.1918 54.7879 68.5907 57.2722 68.8864C58.7395 70.3261 60.2508 71.7153 61.7706 73.0728C62.0464 72.6082 62.3353 72.1518 62.6349 71.7012C61.6763 70.8658 60.7379 70.0257 59.8056 69.1621C61.1808 69.3006 62.5573 69.405 63.9398 69.5024L63.6115 70.3167C64.2012 69.527 64.822 68.7597 65.4834 68.024L65.1241 68.004C64.816 67.9853 64.4997 67.9571 64.1929 67.9372C61.2441 66.0962 58.7478 64.057 56.6992 62.0295C54.2089 59.5667 52.3262 57.1789 50.9342 55.1221C48.1514 51.0049 47.1462 48.3989 47.0961 48.4224C47.1474 48.4013 47.9115 51.0084 50.4221 55.3004C51.7031 57.4324 53.4377 59.9597 55.8659 62.6138C57.4418 64.3315 59.322 66.0892 61.5282 67.7623C60.3416 67.6743 59.1489 67.5652 57.9683 67.4338C56.1178 65.6386 54.3474 63.773 52.7238 61.7913C49.584 57.9264 46.9898 53.6449 45.2397 49.0091L45.2337 48.988L45.223 48.9645C44.1055 46.6214 43.203 44.1468 42.273 41.6676C41.3394 39.1977 40.3975 36.6892 39.1189 34.3425C37.8272 32.0041 36.1905 29.7771 33.9807 28.1861C31.8056 26.5599 29.1051 25.7362 26.4465 25.5391C29.092 25.8887 31.6742 26.8555 33.7348 28.4876C35.7977 30.1209 37.2983 32.3526 38.4396 34.6734C39.5762 37.0224 40.4799 39.4899 41.3287 41.982C42.1823 44.4671 43.0311 46.9675 44.1091 49.4139C44.94 51.811 45.987 54.1471 47.2489 56.3611C48.5012 58.6022 49.9624 60.6966 51.5765 62.69C52.8181 64.2365 54.1588 65.6996 55.5364 67.1287C53.7338 66.887 51.9478 66.6054 50.1761 66.2218C45.3089 65.1669 40.5646 63.4762 36.3779 60.808L36.323 60.7916C34.0129 59.6171 31.8091 58.1669 29.5671 56.7624C27.3168 55.3579 25.0234 53.9476 22.5009 53.0019C19.9735 52.0468 17.254 51.5822 14.5536 51.8075C11.889 52.0058 9.30551 52.8611 6.93457 54.0145C9.36759 53.0043 11.9594 52.2932 14.5894 52.1982C17.217 52.0879 19.8195 52.6522 22.206 53.6824Z" fill="#A95210"/>
<path d="M124.423 21.8393C123.373 24.1953 121.973 26.3777 120.476 28.5319C119.003 30.6908 117.464 32.8134 116.164 35.1389L116.176 35.1061C114.732 37.1934 113.501 39.4497 112.531 41.7834C111.559 44.1219 110.818 46.5401 110.247 49.0193C109.681 51.4235 109.275 53.8476 108.973 56.2881C107.457 57.7829 105.998 59.3223 104.578 60.8758C105.065 61.1222 105.539 61.3862 106.013 61.649C106.895 60.6787 107.791 59.7201 108.683 58.7732C108.552 60.1284 108.446 61.4859 108.337 62.8446L107.541 62.5325C108.348 63.0206 109.124 63.5252 109.873 64.0449L109.876 64.0109C109.895 63.7129 109.908 63.4067 109.925 63.1098C111.83 60.2 113.912 57.7325 115.958 55.7272C118.445 53.282 120.897 51.4317 122.991 50.0601C127.156 47.3274 129.846 46.3242 129.819 46.2785C129.846 46.3254 127.189 47.0763 122.818 49.5438C120.629 50.8098 118.057 52.5147 115.35 54.9012C113.596 56.4547 111.817 58.3097 110.101 60.4827C110.202 59.3164 110.306 58.1455 110.433 56.9862C112.277 55.1582 114.184 53.4099 116.205 51.8072C120.127 48.7284 124.483 46.1811 129.199 44.461L129.242 44.4446L129.241 44.4434C131.625 43.3475 134.17 42.4476 136.663 41.5488C139.189 40.6219 141.739 39.6973 144.121 38.4442C146.49 37.177 148.785 35.5566 150.386 33.393C152.051 31.2493 152.871 28.6058 153.086 25.9964C152.71 28.5988 151.735 31.1273 150.059 33.1595C148.411 35.1835 146.145 36.6525 143.778 37.7789C141.389 38.8924 138.867 39.7876 136.343 40.6148C133.793 41.4678 131.247 42.2974 128.763 43.3616L128.788 43.3557C126.34 44.1712 123.952 45.2002 121.699 46.4415C119.438 47.6641 117.307 49.1038 115.28 50.6878C113.698 51.9116 112.198 53.2363 110.756 54.5938C110.991 52.8244 111.285 51.0703 111.659 49.3303C112.746 44.5431 114.467 39.8686 117.193 35.7526L117.22 35.7091L117.221 35.7009C118.403 33.4294 119.878 31.2622 121.308 29.0587C122.737 26.8541 124.178 24.586 125.127 22.1115C126.096 19.6369 126.574 16.9606 126.349 14.3065C126.172 11.6654 125.286 9.14976 124.093 6.8125C125.122 9.20491 125.829 11.7686 125.944 14.3535C126.047 16.9383 125.471 19.4926 124.423 21.8393Z" fill="#A95210"/>
<path d="M104.344 53.3974C103.921 54.5684 103.478 55.8297 103.146 57.2319C102.94 58.0954 102.758 59.0036 102.674 59.9692C103.156 60.1863 103.632 60.4198 104.106 60.6533C104.078 59.5938 104.191 58.5389 104.369 57.5451C104.621 56.2157 104.954 54.9568 105.283 53.7846C106.009 51.4415 106.749 49.4668 107.386 47.8488C108.674 44.6127 109.483 42.8387 109.47 42.834C109.483 42.8399 108.507 44.4543 106.932 47.5648C106.16 49.123 105.246 51.0473 104.344 53.3974Z" fill="#A95210"/>
<path d="M66.6022 16.9663C67.5644 19.3364 68.147 21.8743 68.6532 24.4228C69.1475 26.9806 69.576 29.5854 70.3413 32.1292L70.3162 32.0775C70.7854 34.5744 71.5649 36.9961 72.5415 39.3252C73.5419 41.6741 74.7596 43.8988 76.1158 46.0284C77.4529 48.1239 78.9129 50.1244 80.4566 52.0581C80.4637 54.1595 80.5413 56.248 80.6416 58.3354C81.1657 58.1746 81.6958 58.0291 82.2294 57.8954C82.153 56.6 82.0933 55.2988 82.0575 54.007C82.9314 55.0536 83.8243 56.0967 84.7352 57.1221L83.6441 57.5856C84.703 57.3721 85.7751 57.2184 86.8567 57.1175L86.6609 56.9121C86.4532 56.6798 86.2538 56.4522 86.0544 56.2281C85.288 52.87 84.9967 49.6833 85.0086 46.8145C84.9907 43.3473 85.4038 40.3483 85.8706 37.9406C86.8853 33.0819 88.0374 30.5381 87.9968 30.5241C88.0397 30.5452 86.7206 32.9036 85.4121 37.6931C84.7675 40.0902 84.1825 43.095 83.9819 46.6584C83.8733 48.9605 83.9306 51.5184 84.284 54.2311C83.5116 53.337 82.7559 52.4394 82.0073 51.5231C81.9918 48.964 82.0897 46.4132 82.3715 43.873C82.923 38.9732 84.1515 34.1414 86.2514 29.6511L86.2717 29.63L86.2801 29.6065C87.173 27.1625 88.331 24.783 89.4628 22.3894C90.5587 19.9841 91.7 17.5787 92.4915 15.0068C93.2615 12.4771 93.6997 9.75032 93.2926 7.09157C92.9297 4.42577 91.5914 1.99231 89.84 1.49846e-06C91.4768 2.09439 92.6252 4.55367 92.8724 7.15493C93.1708 9.74094 92.6109 12.3352 91.7537 14.7933C90.8811 17.2537 89.7266 19.625 88.5591 21.9693C87.3605 24.3383 86.1499 26.6849 85.1579 29.1888L85.1626 29.1395C84.0213 31.4158 83.0854 33.8094 82.3679 36.2475C81.6599 38.6986 81.1955 41.2025 80.9066 43.704C80.6595 45.6693 80.5354 47.6276 80.484 49.5824C79.3929 48.1709 78.3363 46.7441 77.3634 45.2575C74.6868 41.1239 72.5427 36.6253 71.4957 31.8405L71.485 31.7983L71.4897 31.7842C70.6911 29.3319 70.167 26.7882 69.6166 24.2221C69.0376 21.6795 68.4132 19.0888 67.303 16.6706C66.2262 14.2442 64.6145 12.0043 62.5587 10.317C60.5316 8.57583 58.0855 7.4025 55.5593 6.57648C58.0294 7.53743 60.374 8.84335 62.2913 10.6022C64.2205 12.3645 65.6746 14.5668 66.6022 16.9663Z" fill="#A95210"/>
<path d="M40.6975 30.9778C42.5145 32.8258 44.0211 34.953 45.4776 37.1178C46.9245 39.2732 48.3451 41.492 50.0105 43.55C51.4324 45.676 53.0703 47.6343 54.8957 49.4295C56.727 51.2106 58.7231 52.8075 60.8194 54.2706C62.8585 55.6986 64.9823 56.9857 67.1443 58.1919C67.9812 60.1525 68.8813 62.085 69.8018 64.0046C70.2435 63.6596 70.6936 63.324 71.152 63.0014L71.1138 63.019C70.5169 61.8186 69.9474 60.6101 69.3887 59.3969C70.6172 60.0375 71.8516 60.67 73.0943 61.2801L71.9101 62.4804C72.969 61.7752 74.0685 61.1287 75.2026 60.5468L74.7753 60.3449C74.4911 60.2065 74.213 60.0692 73.93 59.939C71.9196 57.1265 70.4226 54.2988 69.3147 51.653C67.9501 48.4498 67.1682 45.5235 66.6584 43.1241C65.7046 38.2583 65.7798 35.4693 65.7284 35.474C65.7846 35.4752 65.4825 38.155 66.1427 43.0771C66.4794 45.5223 67.1037 48.519 68.3083 51.8923C69.1034 54.0618 70.1516 56.3955 71.5292 58.7645C70.4691 58.2341 69.4186 57.6932 68.3787 57.1289C67.3676 54.7728 66.4638 52.3781 65.7296 49.9247C64.3293 45.1903 63.5867 40.2623 63.7801 35.3285L63.7897 35.298L63.7873 35.278C63.6631 32.6838 63.8004 30.0427 63.9186 27.4132C63.9974 24.7803 64.1108 22.1274 63.8458 19.4557C63.564 16.8216 62.9086 14.1371 61.5011 11.8315C60.1187 9.50947 57.9435 7.76475 55.5559 6.57617C57.8731 7.89734 59.9002 9.74297 61.1358 12.0521C62.4203 14.3225 62.9158 16.9366 63.0793 19.5285C63.2321 22.1274 63.0793 24.7545 62.9194 27.3675C62.7296 30.0004 62.5314 32.6252 62.5887 35.3121L62.5708 35.264C62.4048 37.796 62.4693 40.3527 62.757 42.8812C63.0602 45.4109 63.6034 47.896 64.3078 50.3189C64.8474 52.2197 65.4944 54.0806 66.2084 55.9016C64.6528 55.0134 63.1247 54.0911 61.6539 53.0774C57.5698 50.2673 53.8403 46.9291 51.0122 42.8894L50.993 42.8694L50.9728 42.846C49.2883 40.8971 47.8198 38.7264 46.2918 36.5793C44.7672 34.4403 43.1914 32.2743 41.224 30.4592C39.2721 28.6276 36.9369 27.168 34.3571 26.3631C31.8142 25.5441 29.0983 25.3634 26.4468 25.5394C29.0923 25.5171 31.7712 25.8363 34.2317 26.7339C36.7077 27.6256 38.8924 29.1251 40.6975 30.9778Z" fill="#A95210"/>
<path d="M96.0098 13.7455C95.9716 16.2975 95.5215 18.8635 94.9998 21.4085C94.4602 23.9581 93.8358 26.5218 93.5517 29.1665L93.5517 29.102C93.018 31.5859 92.7876 34.1191 92.7817 36.6476C92.79 39.1867 93.0574 41.7035 93.4741 44.1827C93.8979 46.6197 94.4769 49.0145 95.1395 51.3799C94.3396 53.3018 93.6114 55.2378 92.9082 57.1691C93.1099 57.1926 93.3117 57.2031 93.5135 57.2301C93.8465 57.2747 94.1844 57.351 94.5211 57.4096C94.9461 56.1882 95.4021 54.982 95.8629 53.7758C96.2664 55.0817 96.6795 56.3806 97.1296 57.6713L95.993 57.69C97.0424 57.9306 98.0942 58.2438 99.1424 58.597L98.986 58.1993C98.8893 57.9177 98.7962 57.6361 98.7066 57.3627C99.3119 53.9518 100.272 50.8765 101.372 48.2471C102.729 45.0568 104.269 42.4169 105.67 40.3647C108.457 36.2792 110.549 34.3327 110.5 34.3115C110.545 34.3362 108.38 36.0375 105.31 39.9599C103.786 41.9452 102.06 44.4866 100.496 47.7133C99.4874 49.8006 98.5514 52.186 97.8387 54.8201C97.4686 53.7031 97.1176 52.5826 96.7857 51.4562C97.7635 49.0907 98.8475 46.7687 100.094 44.5312C102.509 40.211 105.534 36.2205 109.218 32.8566L109.252 32.8249L109.249 32.8238C111.034 30.9089 113.036 29.129 114.982 27.3584C116.957 25.5574 118.955 23.7434 120.665 21.6877C122.365 19.6285 123.861 17.2631 124.488 14.663C125.195 12.0618 124.924 9.31032 124.09 6.81584C124.769 9.36312 124.857 12.0629 124.087 14.5692C123.369 17.059 121.841 19.2742 120.084 21.2032C118.318 23.1309 116.338 24.9026 114.328 26.6157C112.305 28.3686 110.264 30.0887 108.385 32.0118L108.406 31.9942C106.459 33.665 104.659 35.5142 103.072 37.5089C101.457 39.4871 100.048 41.619 98.7842 43.8507C97.8148 45.5567 96.9386 47.3096 96.122 49.1001C95.6731 47.3918 95.2469 45.674 94.9293 43.9387C94.0626 39.1104 93.8358 34.1461 94.73 29.3378L94.7395 29.2874L94.7503 29.2768C94.9699 26.7084 95.4713 24.1682 95.9584 21.588C96.43 19.0208 96.8454 16.3855 96.775 13.7385C96.7141 11.0938 96.0921 8.41977 94.8625 6.08251C93.652 3.71591 91.8624 1.70719 89.8389 0C91.7526 1.81865 93.418 3.90951 94.5032 6.24208C95.5919 8.60281 96.0897 11.1818 96.0098 13.7455Z" fill="#A95210"/>
<path d="M53.0876 74.4996C48.4628 72.7291 44.3691 70.3027 40.8139 67.8809C37.2432 65.4428 34.1619 63.0539 31.4806 61.1355C28.8231 59.203 26.531 57.7786 24.8692 56.9561C23.2097 56.1312 22.2165 55.8332 22.2225 55.8203C22.2153 55.8309 23.1739 56.2239 24.745 57.1602C26.3316 58.0966 28.4745 59.6653 30.9959 61.7304C33.5471 63.7907 36.5018 66.3298 40.0331 68.9064C43.5704 71.4865 47.7238 74.0585 52.5122 75.9264C54.8258 76.8158 57.1633 77.4599 59.4615 77.9269C59.631 77.4658 59.8148 77.0106 60.007 76.5588C57.7173 76.066 55.3953 75.4078 53.0876 74.4996Z" fill="#A95210"/>
<path d="M66.9584 66.4918C64.9504 65.1343 62.9746 63.6008 61.1158 61.8232C57.5332 58.4417 54.6907 54.6612 52.3543 51.0919C50.0025 47.4945 48.0912 44.1294 46.3613 41.3428C44.6565 38.5585 43.0891 36.3796 41.8725 34.9986C40.6644 33.6082 39.861 32.9594 39.8717 32.957C39.861 32.957 40.5999 33.6798 41.6815 35.1359C42.7858 36.599 44.1575 38.8542 45.6832 41.7124C47.24 44.5706 48.9794 48.0319 51.2357 51.7431C53.4956 55.4579 56.3381 59.3967 60.0318 62.9191C61.9026 64.6814 63.901 66.2184 65.9281 67.549C66.2636 67.19 66.6062 66.8368 66.9584 66.4918Z" fill="#A95210"/>
<path d="M54.3119 73.4131C55.5105 73.8472 56.8046 74.2801 58.2336 74.611C59.0108 74.7905 59.8453 74.9302 60.7096 75.0252C60.9352 74.57 61.1716 74.1206 61.4211 73.6782C60.4446 73.6759 59.4752 73.5632 58.55 73.406C57.1974 73.1678 55.9128 72.837 54.7238 72.5084C52.354 71.8103 50.3233 71.0676 48.6806 70.4375C45.3857 69.1785 43.5818 68.3795 43.5818 68.3947C43.583 68.3818 45.2364 69.3463 48.3905 70.8857C49.9688 71.6331 51.9374 72.5425 54.3119 73.4131Z" fill="#A95210"/>
<path d="M57.2784 85.5879C56.6027 85.8167 55.9163 86.0115 55.2418 86.1558C53.8999 86.4515 52.5807 86.6415 51.3535 86.7729C48.8894 87.0217 46.731 87.0991 44.9701 87.1461C41.4352 87.2118 39.4582 87.1601 39.4558 87.1648C39.4606 87.1601 41.3492 87.4265 44.8579 87.6482C46.6319 87.7632 48.7927 87.8465 51.3201 87.7656C52.5915 87.7233 53.9572 87.6248 55.4137 87.3995C55.9772 87.3103 56.5622 87.193 57.1531 87.0522C57.1817 86.5653 57.2259 86.0772 57.2784 85.5879Z" fill="#A95210"/>
<path d="M57.1046 88.6352C55.0119 88.9778 52.8451 89.2019 50.609 89.25C45.6499 89.3204 40.9187 88.6258 36.6807 87.7341C32.445 86.8365 28.6605 85.7828 25.4491 85.0166C22.2282 84.2305 19.5695 83.7718 17.7024 83.6368C15.8639 83.4925 14.8217 83.5875 14.8277 83.5852C14.8217 83.5875 15.8615 83.5958 17.6905 83.8774C19.4991 84.1566 22.0849 84.7785 25.2235 85.7324C28.3764 86.6769 32.1047 87.9195 36.3822 88.9743C40.6346 90.0361 45.4923 90.841 50.6401 90.7624C52.8797 90.7296 55.0465 90.4855 57.1369 90.1194C57.113 89.6266 57.1034 89.1315 57.1046 88.6352Z" fill="#A95210"/>
<path d="M115.668 115.391C117.592 116.946 119.168 118.358 120.438 119.558C122.999 121.962 124.334 123.393 124.336 123.386C124.333 123.393 123.188 121.894 120.86 119.273C119.701 117.971 118.239 116.412 116.378 114.694C115.447 113.856 114.431 112.973 113.248 112.13C112.897 111.874 112.52 111.631 112.138 111.391C111.796 111.718 111.444 112.03 111.087 112.335C111.565 112.585 112.03 112.849 112.474 113.122C113.652 113.849 114.685 114.638 115.668 115.391Z" fill="#A95210"/>
<path d="M111.253 147.315C111.76 150.553 112.356 153.149 112.907 154.87C113.503 156.61 113.981 157.519 113.976 157.514C113.981 157.52 113.588 156.569 113.179 154.815C112.706 153.045 112.341 150.474 112.007 147.231C111.697 144.022 111.435 140.162 110.794 135.868C110.167 131.602 109.083 126.91 107.014 122.248C106.131 120.223 105.078 118.341 103.932 116.58C103.46 116.76 102.978 116.925 102.49 117.079C103.634 118.876 104.706 120.806 105.619 122.863C107.584 127.327 108.734 131.897 109.522 136.073C110.285 140.275 110.756 144.116 111.253 147.315Z" fill="#A95210"/>
<path d="M124.336 103.475C126.713 104.189 128.733 104.917 130.375 105.536C133.683 106.805 135.461 107.612 135.46 107.605C135.46 107.613 133.822 106.65 130.655 105.105C129.082 104.336 127.113 103.449 124.742 102.551C123.546 102.141 122.257 101.701 120.844 101.362C120.3 101.242 119.745 101.128 119.17 101.039C118.988 101.477 118.785 101.912 118.577 102.346C119.235 102.392 119.884 102.475 120.511 102.576C121.879 102.806 123.152 103.152 124.336 103.475Z" fill="#A95210"/>
<path d="M132.718 134.645C134.436 137.427 135.962 139.589 137.183 140.987C138.407 142.377 139.207 143.024 139.198 143.033C139.21 143.025 138.452 142.324 137.38 140.85C136.31 139.376 134.912 137.128 133.375 134.268C131.839 131.428 130.103 127.954 127.842 124.237C125.586 120.551 122.721 116.574 119.032 113.071C117.502 111.597 115.877 110.299 114.214 109.143C113.896 109.527 113.579 109.915 113.245 110.278C114.862 111.436 116.437 112.729 117.974 114.173C121.527 117.569 124.357 121.329 126.717 124.907C129.074 128.473 130.977 131.858 132.718 134.645Z" fill="#A95210"/>
<path d="M103 123.133C104.166 125.258 105.084 127.208 105.803 128.797C107.206 131.954 107.915 133.786 107.921 133.786C107.914 133.783 107.434 131.944 106.307 128.684C105.742 127.049 105.009 125.046 103.933 122.764C103.43 121.632 102.809 120.434 102.039 119.202C101.693 118.655 101.318 118.097 100.896 117.549C100.393 117.684 99.9019 117.826 99.4268 117.974C99.9843 118.563 100.495 119.199 100.95 119.846C101.717 120.932 102.387 122.054 103 123.133Z" fill="#A95210"/>
<path d="M90.1967 119.816C90.5477 121.887 90.771 124.043 90.8152 126.253C90.8892 131.119 90.1884 135.769 89.2751 139.933C88.3535 144.108 87.2898 147.817 86.5042 150.971C85.7115 154.147 85.2495 156.773 85.0955 158.563C84.9582 160.402 85.0537 161.418 85.0514 161.412C85.0549 161.419 85.0621 160.404 85.3594 158.622C85.6244 156.808 86.2667 154.292 87.2301 151.174C88.1959 148.088 89.4542 144.427 90.537 140.228C91.6138 136.04 92.4435 131.295 92.3516 126.217C92.317 124.02 92.0818 121.896 91.7129 119.852C91.2211 119.87 90.7173 119.861 90.1967 119.816Z" fill="#A95210"/>
<path d="M119.713 77.5446C119.788 77.8262 119.851 78.1031 119.924 78.3835C120.551 77.7898 121.239 77.2536 121.929 76.7608C123.05 76.0134 124.2 75.3645 125.298 74.7697C127.444 73.6034 129.448 72.7199 131.065 72.0194C134.282 70.6396 136.141 69.9426 136.139 69.9297C136.141 69.9438 134.266 70.4178 130.92 71.489C129.274 72.0616 127.239 72.7914 124.898 73.8322C123.765 74.3437 122.551 74.9515 121.291 75.6942C120.7 76.0603 120.096 76.4581 119.504 76.9039C119.577 77.114 119.652 77.3205 119.713 77.5446Z" fill="#A95210"/>
<path d="M88.9411 121.543C88.8325 120.909 88.7023 120.264 88.5328 119.611C88.2045 119.635 87.8702 119.648 87.5216 119.641C87.3676 119.637 87.216 119.623 87.062 119.617C87.3103 120.312 87.5181 121.017 87.6756 121.712C87.9693 123.008 88.1544 124.298 88.2952 125.523C88.5447 127.936 88.6331 130.067 88.682 131.803C88.7405 135.259 88.6892 137.212 88.6952 137.216C88.6904 137.21 88.9554 135.341 89.1882 131.909C89.3112 130.179 89.3983 128.052 89.298 125.534C89.2646 124.305 89.1655 122.969 88.9411 121.543Z" fill="#A95210"/>
<path d="M138.35 144.99C136.537 143.136 135.046 141.026 133.585 138.841C132.117 136.677 130.722 134.472 129 132.408L129.031 132.431C127.636 130.317 125.995 128.326 124.175 126.559C122.34 124.783 120.364 123.176 118.251 121.712C116.203 120.277 114.077 118.993 111.898 117.781C111.256 116.272 110.576 114.788 109.876 113.314C109.448 113.636 109.016 113.954 108.567 114.246C108.94 115.027 109.319 115.807 109.682 116.595C108.78 116.112 107.871 115.662 106.962 115.211C106.381 115.529 105.782 115.822 105.168 116.094C107.143 118.883 108.655 121.698 109.74 124.337C111.114 127.54 111.89 130.454 112.391 132.88C113.365 137.736 113.298 140.523 113.321 140.506C113.293 140.52 113.578 137.803 112.928 132.907C112.572 130.449 111.967 127.448 110.769 124.097C109.958 121.924 108.897 119.578 107.51 117.199C108.578 117.727 109.633 118.278 110.676 118.841C111.689 121.203 112.602 123.605 113.335 126.066C114.746 130.801 115.471 135.698 115.257 140.659L115.273 140.682L115.274 140.701C115.399 143.298 115.262 145.939 115.169 148.578C115.05 151.182 114.959 153.856 115.233 156.51C115.505 159.162 116.137 161.824 117.569 164.15C118.964 166.465 121.101 168.218 123.505 169.421C121.197 168.092 119.179 166.24 117.908 163.936C116.641 161.652 116.133 159.066 115.986 156.461C115.838 153.854 115.961 151.24 116.148 148.61C116.331 145.99 116.538 143.355 116.474 140.678L116.477 140.727C116.625 138.181 116.569 135.644 116.278 133.117C115.998 130.582 115.448 128.085 114.74 125.643C114.191 123.741 113.549 121.881 112.83 120.052C114.391 120.934 115.927 121.87 117.415 122.882C121.47 125.715 125.229 129.051 128.076 133.096L128.095 133.123L128.098 133.135C129.789 135.078 131.236 137.254 132.776 139.401C134.279 141.54 135.878 143.716 137.87 145.518C139.801 147.35 142.128 148.808 144.699 149.621C147.287 150.458 149.985 150.617 152.613 150.449C149.953 150.475 147.314 150.125 144.851 149.225C142.375 148.333 140.163 146.847 138.35 144.99Z" fill="#A95210"/>
<path d="M172.702 92.8721C170.309 93.941 167.682 94.4349 165.076 94.354C162.481 94.3153 159.879 93.8717 157.29 93.3614C154.7 92.8216 152.069 92.215 149.406 91.9322L149.43 91.9428C146.935 91.4089 144.356 91.1813 141.757 91.1872C139.191 91.1895 136.624 91.457 134.107 91.8665C131.626 92.2795 129.181 92.8498 126.772 93.5033C124.985 92.7864 123.187 92.1305 121.377 91.5028C121.344 92.0414 121.291 92.5764 121.229 93.1091C122.264 93.4681 123.299 93.8354 124.334 94.2132C123.185 94.5628 122.035 94.9195 120.898 95.2938C120.784 95.8899 120.649 96.4824 120.497 97.0726C120.563 97.0514 120.621 97.0303 120.688 97.0104C124.146 97.6111 127.277 98.5568 129.979 99.6292C133.232 100.942 135.905 102.47 138.004 103.836C142.15 106.586 144.124 108.65 144.157 108.599C144.117 108.647 142.384 106.53 138.394 103.514C136.385 102.002 133.776 100.32 130.518 98.7657C128.38 97.7871 125.966 96.8555 123.28 96.1515C124.418 95.7866 125.556 95.4417 126.693 95.1166C129.12 96.0729 131.478 97.1395 133.745 98.3703C138.136 100.746 142.227 103.715 145.626 107.339L145.655 107.371L145.656 107.371C147.604 109.123 149.424 111.09 151.235 113.004C153.055 114.948 154.894 116.91 156.987 118.589C159.085 120.256 161.489 121.726 164.13 122.341C166.783 123.042 169.583 122.777 172.127 121.955C169.519 122.63 166.782 122.71 164.243 121.942C161.689 121.255 159.46 119.728 157.484 118.011C155.519 116.289 153.732 114.32 151.974 112.362C150.177 110.386 148.44 108.368 146.48 106.52L146.504 106.541C144.796 104.636 142.929 102.866 140.907 101.282C138.874 99.7196 136.708 98.328 134.438 97.0867C132.692 96.1304 130.89 95.2844 129.071 94.4748C130.822 94.029 132.581 93.6066 134.36 93.2921C139.28 92.4379 144.303 92.2267 149.224 93.0938L149.247 93.1149L149.263 93.1173C151.877 93.3344 154.459 93.833 157.093 94.3094C159.734 94.7623 162.37 95.1859 165.099 95.1014C167.781 95.0462 170.474 94.4443 172.882 93.2205C175.29 92.039 177.326 90.279 179.07 88.2949C177.23 90.1617 175.116 91.7996 172.702 92.8721Z" fill="#A95210"/>
<path d="M147.59 114.847C150.274 116.787 152.524 118.188 154.172 119.024C155.858 119.857 156.847 120.15 156.842 120.163C156.848 120.151 155.889 119.786 154.327 118.831C152.749 117.872 150.589 116.318 148.051 114.246C145.536 112.211 142.574 109.645 139.037 107.071C135.509 104.509 131.321 101.911 126.549 100.071C124.438 99.2275 122.302 98.6279 120.193 98.1738C120.051 98.6455 119.909 99.1172 119.742 99.5842C121.806 100.056 123.896 100.684 125.996 101.485C130.6 103.282 134.684 105.696 138.258 108.115C141.817 110.515 144.892 112.928 147.59 114.847Z" fill="#A95210"/>
<path d="M156.819 122.292C154.433 121.257 152.227 119.872 150.027 118.404C147.84 116.958 145.687 115.429 143.295 114.182L143.317 114.192C141.205 112.762 138.927 111.547 136.543 110.598C134.173 109.641 131.712 108.904 129.181 108.35C126.74 107.795 124.271 107.397 121.797 107.099C120.555 105.88 119.271 104.706 117.971 103.555C117.721 104.024 117.462 104.492 117.183 104.958C117.88 105.576 118.582 106.196 119.26 106.82C118.223 106.718 117.187 106.642 116.15 106.561C115.791 107.09 115.407 107.617 115.007 108.141C117.884 109.985 120.341 111.994 122.361 113.962C124.869 116.393 126.734 118.811 128.142 120.862C130.902 124.963 131.933 127.616 131.965 127.582C131.928 127.613 131.14 125.005 128.62 120.711C127.376 118.547 125.613 116.031 123.195 113.359C121.616 111.647 119.731 109.897 117.541 108.212C118.723 108.307 119.904 108.408 121.096 108.538C122.952 110.339 124.731 112.211 126.344 114.211C129.483 118.056 132.102 122.327 133.832 126.971L133.848 127.012L133.849 127.012C134.954 129.354 135.87 131.855 136.813 134.311C137.716 136.79 138.666 139.301 139.95 141.636C141.228 143.963 142.886 146.218 145.081 147.79C147.264 149.441 149.947 150.238 152.607 150.448C149.947 150.085 147.389 149.12 145.336 147.464C143.261 145.857 141.779 143.618 140.634 141.296C139.467 138.963 138.588 136.464 137.726 133.991C136.843 131.49 136.023 128.989 134.932 126.539L134.945 126.565C134.109 124.163 133.07 121.813 131.828 119.588C130.548 117.38 129.107 115.281 127.484 113.289C126.242 111.736 124.907 110.263 123.531 108.848C125.311 109.078 127.098 109.366 128.865 109.742C133.717 110.819 138.489 112.495 142.689 115.162L142.734 115.207C145.052 116.356 147.232 117.82 149.488 119.219C151.714 120.639 154.038 122.042 156.584 122.972C159.064 123.925 161.805 124.394 164.478 124.183C167.199 123.981 169.758 123.11 172.129 121.956C169.68 122.983 167.085 123.661 164.467 123.758C161.84 123.861 159.221 123.319 156.819 122.292Z" fill="#A95210"/>
<path d="M62.2075 145.054C60.2544 147.674 58.7896 149.92 57.9396 151.532C57.1135 153.182 56.8102 154.152 56.7971 154.146C56.8079 154.155 57.1899 153.201 58.1605 151.675C59.1299 150.131 60.7081 148.002 62.808 145.517C64.9068 143.016 67.4974 140.124 70.1166 136.648C72.7383 133.166 75.3527 129.081 77.2473 124.369C78.0663 122.352 78.6811 120.296 79.1455 118.272C78.6656 118.122 78.1929 117.958 77.7237 117.785C77.2402 119.783 76.6146 121.803 75.8207 123.835C73.9882 128.34 71.5158 132.37 69.072 135.871C66.6008 139.394 64.1571 142.402 62.2075 145.054Z" fill="#A95210"/>
<path d="M54.1368 102.16C55.2984 101.645 56.5208 101.035 57.7744 100.284C58.2244 100.01 58.6817 99.7204 59.1353 99.3989C58.9622 98.9507 58.7975 98.5002 58.6459 98.0449C58.1552 98.4615 57.6442 98.8498 57.1321 99.1983C56.0015 99.9657 54.859 100.634 53.7786 101.228C51.6011 102.38 49.6337 103.266 48.028 103.97C44.7915 105.364 42.9387 106.058 42.9375 106.063C42.9411 106.056 44.7939 105.595 48.1223 104.475C49.796 103.909 51.8291 103.185 54.1368 102.16Z" fill="#A95210"/>
<path d="M61.6637 113.676C60.1021 115.558 58.6242 117.12 57.4029 118.367C54.9532 120.885 53.5134 122.191 53.5218 122.195C53.5146 122.191 55.0439 121.064 57.7037 118.779C59.0229 117.65 60.6227 116.202 62.3513 114.385C63.2156 113.463 64.1229 112.459 64.9873 111.295C65.2869 110.883 65.5866 110.447 65.8767 109.989C65.5424 109.641 65.2213 109.281 64.9037 108.918C64.6148 109.48 64.2949 110.02 63.9642 110.538C63.2324 111.693 62.4265 112.707 61.6637 113.676Z" fill="#A95210"/>
<path d="M42.0779 130.431C39.2497 132.11 37.0244 133.63 35.611 134.825C34.2034 136.027 33.5444 136.81 33.5337 136.799C33.5397 136.811 34.2667 136.06 35.7578 135.014C37.2549 133.966 39.541 132.596 42.4468 131.083C45.3573 129.558 48.8851 127.861 52.6576 125.639C56.4349 123.413 60.4413 120.614 64.0264 116.977C65.5545 115.438 66.9131 113.788 68.1188 112.109C67.7392 111.782 67.3643 111.448 67.0002 111.104C65.7849 112.759 64.4275 114.369 62.909 115.933C59.4612 119.422 55.6135 122.214 51.9843 124.525C48.3383 126.857 44.9037 128.721 42.0779 130.431Z" fill="#A95210"/>
<path d="M69.578 133.131C69.5696 133.128 70.5462 131.515 72.1125 128.408C72.8909 126.873 73.8053 124.926 74.7019 122.612C75.1388 121.429 75.5829 120.152 75.9339 118.762C76.0497 118.255 76.1584 117.734 76.2467 117.197C75.8014 117.006 75.3621 116.805 74.9275 116.594C74.8798 117.219 74.7938 117.837 74.6935 118.437C74.4595 119.782 74.1121 121.028 73.7803 122.199C73.0687 124.527 72.3154 126.525 71.6803 128.137C70.3946 131.388 69.5672 133.129 69.578 133.131Z" fill="#A95210"/>
<path d="M54.6077 154.142C55.6619 151.796 57.0933 149.62 58.57 147.464C60.0504 145.315 61.6239 143.166 62.9036 140.822L62.8654 140.871C64.3267 138.787 65.5456 136.557 66.5377 134.197C67.513 131.859 68.2532 129.438 68.8262 126.963C69.3801 124.563 69.7872 122.138 70.0881 119.712C71.3261 118.492 72.5187 117.237 73.691 115.964C73.2123 115.703 72.7396 115.434 72.2764 115.15C71.646 115.841 71.0181 116.535 70.3698 117.209C70.4785 116.161 70.5573 115.116 70.6372 114.069C70.1155 113.703 69.607 113.32 69.108 112.924C67.2325 115.793 65.1647 118.235 63.1173 120.252C60.621 122.729 58.1845 124.554 56.0893 125.94C51.8978 128.657 49.2487 129.654 49.2654 129.689C49.2499 129.651 51.8954 128.875 56.2612 126.412C58.4435 125.185 61.0031 123.452 63.7142 121.087C65.4513 119.527 67.2408 117.682 68.9408 115.534C68.8513 116.697 68.745 117.856 68.6137 119.025C66.7919 120.844 64.8973 122.585 62.8774 124.175C58.9425 127.257 54.5982 129.831 49.873 131.532L49.8492 131.539L49.8253 131.55C47.4376 132.636 44.9246 133.526 42.4116 134.463C39.8867 135.352 37.3355 136.284 34.949 137.547C32.5661 138.805 30.3014 140.421 28.6886 142.589C27.0315 144.728 26.1911 147.383 25.9929 149.984C26.3391 147.381 27.3288 144.856 28.999 142.846C30.6488 140.797 32.9267 139.342 35.2916 138.221C37.6721 137.071 40.1947 136.217 42.722 135.359C45.2505 134.499 47.8244 133.685 50.3195 132.61L50.273 132.633C52.7131 131.812 55.096 130.792 57.3619 129.571C59.629 128.311 61.7647 126.888 63.7871 125.297C65.3617 124.079 66.8492 122.772 68.3033 121.422C68.0586 123.174 67.7721 124.934 67.3805 126.669C66.2893 131.438 64.5881 136.116 61.8829 140.24L61.8638 140.259L61.8507 140.281C60.6688 142.571 59.1694 144.707 57.7487 146.926C56.3101 149.112 54.8883 151.389 53.9476 153.895C52.9567 156.344 52.4851 159.036 52.6976 161.654C52.9352 164.317 53.8043 166.845 54.9611 169.177C53.9165 166.77 53.2205 164.232 53.1202 161.654C53.0176 159.068 53.5727 156.494 54.6077 154.142Z" fill="#A95210"/>
<path d="M29.2461 110.084C32.5231 109.774 36.4424 109.527 40.8083 108.886C45.1574 108.272 49.9566 107.189 54.6793 105.176C56.7148 104.32 58.6082 103.299 60.3787 102.188C60.1566 101.746 59.9441 101.299 59.7436 100.846C57.9671 101.925 56.0737 102.927 54.0633 103.786C49.5089 105.731 44.8697 106.861 40.6101 107.635C36.3338 108.387 32.4336 108.849 29.1625 109.345C25.8843 109.83 23.2519 110.413 21.4671 110.979C19.7134 111.546 18.7965 112.019 18.8013 112.015C18.7965 112.019 19.754 111.634 21.5519 111.212C23.3331 110.779 25.9678 110.391 29.2461 110.084Z" fill="#A95210"/>
<path d="M83.045 162.243C83.1071 159.682 83.5524 157.128 84.0944 154.571C84.6197 152.036 85.219 149.455 85.521 146.835L85.4983 146.868C86.0391 144.411 86.2815 141.879 86.2779 139.317C86.2743 136.794 86.0021 134.274 85.5891 131.798C85.1724 129.358 84.5958 126.955 83.9273 124.587C84.6221 122.923 85.2608 121.245 85.872 119.556C85.3217 119.515 84.7773 119.456 84.2353 119.386C83.8986 120.321 83.562 121.253 83.2038 122.186C82.8815 121.138 82.5388 120.094 82.1926 119.056C81.5754 118.933 80.9666 118.788 80.3637 118.627C80.3649 118.632 80.3661 118.635 80.3673 118.639C79.7548 122.017 78.8022 125.08 77.6895 127.739C76.3465 130.957 74.8017 133.568 73.4132 135.631C70.6042 139.719 68.5305 141.628 68.5758 141.668C68.5305 141.624 70.6877 139.92 73.7535 135.998C75.2875 134.04 76.9875 131.476 78.5634 128.274C79.5662 126.173 80.501 123.803 81.2388 121.158C81.6112 122.28 81.9634 123.389 82.2953 124.521C81.3164 126.89 80.2371 129.203 78.9932 131.433C76.5506 135.762 73.5422 139.783 69.8377 143.124L69.8186 143.139L69.8091 143.159C68.0303 145.069 66.0545 146.842 64.0895 148.638C62.1077 150.423 60.1116 152.234 58.3973 154.291C56.6937 156.361 55.2229 158.71 54.5806 161.314C53.8799 163.908 54.1401 166.676 54.9639 169.17C54.2655 166.624 54.207 163.917 54.9626 161.436C55.6933 158.91 57.2285 156.719 58.9751 154.782C60.7276 152.847 62.7321 151.102 64.7353 149.361C66.7254 147.622 68.7633 145.909 70.6519 143.99C72.5835 142.316 74.3814 140.485 76.0014 138.5C77.5976 136.484 79.0135 134.359 80.2741 132.13C81.2591 130.409 82.1222 128.645 82.934 126.841C83.3936 128.565 83.8138 130.295 84.1409 132.046C84.9969 136.889 85.2178 141.82 84.3343 146.657L84.3212 146.678L84.3176 146.693C84.1123 149.273 83.5727 151.805 83.1131 154.385C82.6642 156.982 82.2129 159.58 82.3108 162.257C82.3562 164.892 82.9614 167.541 84.2078 169.911C85.4255 172.266 87.215 174.272 89.2123 175.998C87.3165 174.186 85.6798 172.092 84.5743 169.728C83.4605 167.383 82.9901 164.795 83.045 162.243Z" fill="#A95210"/>
<path d="M31.5158 135.976C33.4021 134.195 35.5689 132.724 37.7727 131.291C39.9657 129.86 42.2316 128.494 44.3125 126.813C46.4745 125.432 48.4753 123.836 50.3007 122.035C52.1117 120.227 53.7365 118.284 55.2252 116.214C56.6829 114.211 57.9973 112.117 59.2269 109.975C60.8446 109.309 62.4407 108.597 64.0273 107.866C63.693 107.45 63.3707 107.026 63.0579 106.594C62.1852 107.001 61.3126 107.409 60.4327 107.8C60.9449 106.853 61.4415 105.9 61.9357 104.945C61.6003 104.416 61.2779 103.88 60.9735 103.332C60.9723 103.336 60.9711 103.338 60.9699 103.34C58.1059 105.291 55.2419 106.782 52.557 107.852C49.2883 109.202 46.3193 109.971 43.8588 110.453C38.9259 111.41 36.087 111.331 36.0858 111.374C36.0918 111.326 38.8292 111.632 43.8373 110.983C46.3181 110.645 49.3743 110.041 52.7994 108.857C55.0115 108.066 57.3849 107.027 59.8 105.667C59.2592 106.717 58.7076 107.755 58.131 108.783C55.7338 109.774 53.2912 110.665 50.7985 111.383C45.9814 112.76 40.9638 113.498 35.9294 113.291L35.9151 113.289L35.8888 113.29C33.2552 113.413 30.5691 113.278 27.9081 113.18C25.2172 113.086 22.512 112.98 19.8032 113.249C17.1135 113.518 14.3773 114.155 12.0374 115.546C9.69269 116.913 7.89598 119.024 6.68066 121.372C8.03446 119.103 9.92072 117.133 12.2451 115.888C14.5707 114.633 17.2198 114.135 19.8701 113.989C22.5132 113.846 25.1694 113.969 27.8424 114.149C30.5238 114.33 33.1956 114.533 35.9306 114.469L35.8709 114.475C38.446 114.637 41.0438 114.562 43.6153 114.284C46.1963 114.002 48.7344 113.471 51.2032 112.782C53.1372 112.241 55.033 111.609 56.8954 110.902C55.9893 112.435 55.0366 113.94 54.0087 115.401C51.1411 119.383 47.7543 123.072 43.6487 125.868L43.6236 125.879L43.595 125.89C41.6192 127.554 39.3975 128.975 37.2223 130.491C35.0376 131.966 32.8398 133.533 30.9953 135.494C29.1306 137.397 27.6467 139.683 26.8181 142.207C26.0028 144.741 25.8201 147.402 25.9896 149.985C25.9586 147.382 26.2976 144.786 27.2145 142.365C28.1134 139.932 29.6391 137.755 31.5158 135.976Z" fill="#A95210"/>
<path d="M112.448 159.038C111.496 156.651 110.931 154.106 110.433 151.539C109.925 149.016 109.482 146.401 108.728 143.862L108.725 143.913C108.27 141.427 107.505 138.995 106.512 136.643C105.53 134.316 104.297 132.084 102.94 129.952C101.612 127.857 100.138 125.861 98.6012 123.916C98.5964 122.032 98.5332 120.157 98.4389 118.287C97.904 118.46 97.3799 118.633 96.8654 118.798C96.9239 119.862 96.9764 120.922 97.0098 121.981C96.278 121.101 95.5355 120.248 94.7941 119.394C94.1984 119.543 93.5991 119.666 92.9878 119.748C93.0022 119.764 93.0153 119.78 93.0296 119.796C93.7853 123.147 94.0742 126.31 94.0623 129.16C94.0707 132.637 93.654 135.631 93.1789 138.061C92.1868 142.909 91.03 145.472 91.0598 145.465C91.0288 145.468 92.3503 143.06 93.6612 138.275C94.2987 135.875 94.8872 132.887 95.089 129.337C95.2084 127.024 95.132 124.473 94.7786 121.762C95.5629 122.639 96.3127 123.546 97.0648 124.465C97.0827 127.023 96.98 129.573 96.703 132.108C96.1574 137.027 94.9123 141.831 92.7909 146.325L92.792 146.35L92.7837 146.368C91.8943 148.818 90.7423 151.198 89.6416 153.598C88.5098 155.974 87.3816 158.394 86.6044 160.963C85.8177 163.513 85.3653 166.217 85.7831 168.887C86.1687 171.554 87.4736 173.994 89.2142 176.001C87.6001 173.898 86.466 171.439 86.1735 168.833C85.9013 166.25 86.4373 163.654 87.3112 161.189C88.1863 158.723 89.3216 156.36 90.5214 154.01C91.72 151.652 92.9305 149.286 93.9155 146.792L93.894 146.856C95.0341 144.551 95.9629 142.189 96.6768 139.733C97.3967 137.291 97.8599 134.777 98.1691 132.257C98.3911 130.303 98.5308 128.34 98.5726 126.397C99.6673 127.795 100.726 129.234 101.692 130.717C104.373 134.867 106.506 139.342 107.576 144.14L107.563 144.167L107.573 144.196C108.377 146.648 108.865 149.19 109.451 151.742C110.048 154.311 110.631 156.878 111.775 159.323C112.846 161.736 114.443 163.962 116.515 165.688C118.546 167.394 120.978 168.581 123.504 169.421C121.048 168.458 118.714 167.147 116.772 165.388C114.828 163.627 113.396 161.417 112.448 159.038Z" fill="#A95210"/>
<path d="M123.841 89.8029C125.17 89.5318 126.485 89.3617 127.735 89.2291C130.179 88.9487 132.359 88.8959 134.126 88.8536C137.643 88.7844 139.632 88.8443 139.63 88.8302C139.629 88.8454 137.714 88.585 134.215 88.3116C132.464 88.2177 130.302 88.1297 127.729 88.213C126.488 88.2576 125.123 88.3644 123.677 88.585C122.944 88.707 122.199 88.8489 121.443 89.0519C121.447 89.5459 121.444 90.0375 121.427 90.5256C122.223 90.2264 123.043 89.9941 123.841 89.8029Z" fill="#A95210"/>
<path d="M153.617 90.9766C156.847 91.7486 159.52 92.2097 161.342 92.3623C163.224 92.5101 164.249 92.3892 164.248 92.4021C164.252 92.3892 163.217 92.3822 161.402 92.0947C159.556 91.8425 156.997 91.1948 153.823 90.255C150.687 89.3057 146.96 88.0679 142.686 87.0084C138.427 85.9465 133.594 85.1193 128.431 85.2237C125.955 85.2613 123.572 85.5441 121.291 85.9758C121.336 86.4581 121.363 86.9344 121.39 87.412C123.663 87.0189 126.029 86.7631 128.47 86.7326C133.421 86.6599 138.156 87.3592 142.39 88.2509C146.628 89.1297 150.408 90.1975 153.617 90.9766Z" fill="#A95210"/>
<path d="M164.014 90.1721C161.501 89.3109 159.091 88.1821 156.713 87.0323C154.31 85.8542 151.904 84.6657 149.365 83.6895L149.426 83.6942C147.079 82.5807 144.675 81.6526 142.173 80.9509C139.692 80.2516 137.14 79.7999 134.566 79.5183C132.59 79.2778 130.595 79.1499 128.618 79.0994C130.041 78.027 131.501 76.9874 133.005 76.0312C137.215 73.3947 141.782 71.3097 146.662 70.2596L146.689 70.2701L146.72 70.2596C149.225 69.4781 151.788 68.9678 154.406 68.4269C157.016 67.8449 159.621 67.2465 162.11 66.1307C164.566 65.084 166.83 63.5165 168.576 61.469C170.335 59.4873 171.529 57.0832 172.365 54.5957C171.403 57.0186 170.07 59.3254 168.28 61.2168C166.479 63.1187 164.245 64.5467 161.807 65.456C159.394 66.4005 156.803 66.9684 154.212 67.4706C151.625 67.9387 148.958 68.3752 146.379 69.1215L146.417 69.1168C143.891 69.565 141.431 70.3276 139.033 71.305C136.661 72.2765 134.389 73.4839 132.227 74.8086C130.098 76.1168 128.07 77.5588 126.096 79.0689C124.105 79.0736 122.118 79.1428 120.139 79.2355C120.264 79.7612 120.379 80.2833 120.487 80.8019C121.703 80.7327 122.907 80.6752 124.109 80.6447C123.034 81.5059 121.987 82.3812 120.944 83.2741C121.042 83.8983 121.124 84.519 121.194 85.135C121.42 84.9426 121.638 84.7619 121.857 84.5683C125.28 83.815 128.513 83.5287 131.425 83.5416C134.96 83.5217 138.01 83.9347 140.474 84.3864C145.406 85.3838 148.024 86.5101 148.012 86.4785C148.018 86.5101 145.573 85.2324 140.706 83.9359C138.26 83.314 135.223 82.7285 131.596 82.5314C129.255 82.4234 126.657 82.4821 123.899 82.8282C124.789 82.0703 125.71 81.3287 126.64 80.5942C129.248 80.579 131.845 80.6717 134.426 80.9474C139.431 81.4848 144.32 82.7062 148.884 84.7713L148.91 84.783L148.936 84.7912C151.428 85.6689 153.849 86.8058 156.301 87.9087C158.703 89.0046 161.172 90.1169 163.789 90.8949C166.379 91.6528 169.133 92.0916 171.848 91.6904C174.571 91.3255 177.041 90.0125 179.074 88.2959C176.945 89.8964 174.436 91.0227 171.786 91.2762C169.163 91.5648 166.515 91.0145 164.014 90.1721Z" fill="#A95210"/>
<path d="M88.2642 49.7345C88.1807 44.8605 88.8934 40.2047 89.8007 36.05C90.7044 31.887 91.7824 28.1629 92.5703 25.0066C93.363 21.8398 93.8215 19.2292 93.9755 17.3953C94.1343 15.5766 94.0113 14.5664 94.0244 14.5664C94.0113 14.5652 93.9993 15.5837 93.7224 17.3812C93.4454 19.1588 92.8055 21.7014 91.835 24.7931C90.8799 27.8883 89.6097 31.5468 88.5304 35.752C87.456 39.9302 86.6155 44.7091 86.7182 49.7638C86.7576 52.2888 87.0656 54.727 87.5372 57.0549C88.0254 57.0208 88.5161 57.0044 89.008 56.9938C88.5722 54.6707 88.2917 52.2489 88.2642 49.7345Z" fill="#A95210"/>
<path d="M103.265 52.1606C105.08 47.6104 107.532 43.6035 110.013 40.0929C112.464 36.6128 114.907 33.5716 116.868 30.9363C118.835 28.3163 120.259 26.0811 121.102 24.4478C121.956 22.8122 122.255 21.8313 122.267 21.836C122.257 21.8278 121.865 22.7641 120.914 24.3152C119.951 25.8746 118.356 27.9819 116.246 30.4682C114.177 32.9556 111.575 35.8748 108.953 39.3408C106.343 42.8045 103.696 46.917 101.825 51.6068C100.855 54.0121 100.186 56.4139 99.7124 58.7875C100.18 58.9541 100.644 59.1301 101.107 59.3167C101.606 56.9583 102.303 54.5542 103.265 52.1606Z" fill="#A95210"/>
<path d="M90.7945 50.4598C90.5116 48.0497 90.4519 45.919 90.4173 44.1836C90.3504 40.7106 90.4017 38.7676 90.3886 38.7676C90.4017 38.7711 90.1224 40.6296 89.8598 44.0933C89.7654 45.8275 89.6819 47.9512 89.7487 50.4433C89.8072 51.6906 89.9147 53.0223 90.1379 54.4573C90.2716 55.2774 90.4435 56.1363 90.7181 57.0081C91.2446 57.028 91.7711 57.0597 92.2999 57.1078C91.9 56.1903 91.6099 55.2258 91.3711 54.2977C91.1013 52.9718 90.9223 51.6695 90.7945 50.4598Z" fill="#A95210"/>
<path d="M75.1066 53.2273C75.6486 54.356 76.267 55.5482 77.0346 56.786C77.4942 57.5287 78.0183 58.2902 78.6463 59.02C79.1477 58.8311 79.6551 58.6586 80.166 58.4944C79.3996 57.7739 78.7132 56.9714 78.121 56.17C77.3403 55.0472 76.6705 53.9161 76.0796 52.8436C74.8845 50.7258 74.0023 48.7722 73.2908 47.1882C71.8737 44.0085 71.167 42.1875 71.155 42.1934C71.1682 42.1922 71.6397 44.0179 72.7416 47.3126C73.3266 48.9447 74.0811 50.9428 75.1066 53.2273Z" fill="#A95210"/>
<path d="M62.6716 61.2752C63.6099 62.1271 64.6449 63.0165 65.8304 63.8589C66.5527 64.374 67.3537 64.8691 68.2228 65.3127C68.6132 64.9677 69.0096 64.6286 69.4155 64.3012C68.4139 63.9164 67.4636 63.4095 66.5909 62.8628C65.4364 62.1318 64.3811 61.3503 63.407 60.5994C61.4897 59.0635 59.9043 57.6145 58.6245 56.4165C56.0757 54.01 54.7183 52.5938 54.7087 52.6055C54.7195 52.5962 55.8679 54.1015 58.1851 56.7157C59.3551 58.004 60.8152 59.5821 62.6716 61.2752Z" fill="#A95210"/>
<path d="M73.4606 53.1288C71.4801 48.6537 70.34 44.0836 69.5544 39.9042C68.7689 35.7155 68.3176 31.8716 67.8055 28.6579C67.3101 25.4336 66.7263 22.8476 66.1425 21.0958C65.579 19.3605 65.086 18.4664 65.0967 18.4629C65.0848 18.4641 65.4656 19.4098 65.9049 21.1803C66.3359 22.9262 66.7525 25.5157 67.0438 28.7377C67.3697 31.9502 67.6264 35.8093 68.2615 40.1014C68.8955 44.3758 69.9866 49.1007 72.046 53.733C73.0834 56.1043 74.3441 58.2762 75.7265 60.2849C76.1635 60.0702 76.6016 59.859 77.0481 59.663C75.7134 57.6484 74.4861 55.4789 73.4606 53.1288Z" fill="#A95210"/>
<path d="M100.791 83.4859C101.32 83.5305 101.87 83.2278 102.127 82.9051C102.203 82.8277 102.236 82.7409 102.265 82.6552C101.549 82.6247 100.751 82.6142 99.9347 82.6658C99.8165 82.6822 99.7007 82.6869 99.5837 82.7069C99.875 83.0718 100.283 83.4601 100.791 83.4859Z" fill="#A95210"/>
<path d="M106.658 83.0361C106.671 83.0445 106.689 83.054 106.696 83.0576L106.928 83.029C106.846 83.0409 106.756 83.0445 106.658 83.0361Z" fill="#A95210"/>
<path d="M105.407 81.9878C104.998 81.509 104.547 80.9963 104.003 80.5927C103.431 80.1855 102.773 79.9039 102.084 79.769C101.385 79.6341 100.685 79.6505 100.006 79.7315C99.3421 79.8136 98.6449 80.0412 98.0348 80.3334C97.4212 80.6455 96.8541 81.0209 96.3611 81.448C95.3237 82.2987 94.4772 83.3124 93.8517 84.4377C94.7793 83.5389 95.732 82.6941 96.7813 81.9901C97.3054 81.6416 97.8307 81.3119 98.4001 81.0773C98.5864 80.9916 98.7631 80.9282 98.9374 80.859C99.0078 80.8332 99.0902 80.8133 99.1702 80.791C99.4674 80.6936 99.8041 80.6197 100.138 80.5868C100.796 80.4859 101.444 80.4753 102.085 80.5903C102.142 80.5915 102.202 80.6126 102.26 80.6185C102.727 80.7194 103.192 80.8801 103.612 81.1383C104.135 81.4492 104.618 81.8575 105.117 82.2799C105.234 82.3656 105.349 82.4618 105.471 82.551C105.292 82.4864 105.059 82.4231 104.825 82.3656C104.41 82.2506 103.9 82.1391 103.368 82.0499C103.251 82.0323 103.134 82.0218 103.005 81.9924C102.078 81.8646 101.016 81.7918 99.8781 81.8775C99.4042 81.9056 98.9374 81.9655 98.4706 82.057C98.3536 82.0804 98.2378 82.1133 98.1208 82.1415C97.7817 82.2212 97.4713 82.3081 97.1574 82.4219C96.3551 82.7082 95.6723 83.0907 95.147 83.4814C94.7315 83.8181 94.4235 84.1349 94.2146 84.3978C93.9102 84.7697 93.8027 85.0372 93.8493 85.0701C93.9137 85.117 94.1561 84.8718 94.6241 84.5116C95.5493 84.975 96.5318 85.2848 97.5179 85.5359C98.5864 85.7905 99.6835 85.9606 100.801 85.9724C101.909 85.9606 103.03 85.8011 104.056 85.313C104.546 85.0759 105.013 84.7556 105.407 84.3673C105.757 83.9953 106.049 83.5847 106.282 83.1353C106.555 83.1634 106.716 83.1634 106.735 83.1165C106.744 83.1059 106.712 83.0778 106.689 83.0484C106.682 83.0449 106.664 83.0355 106.651 83.0273C106.749 83.0426 105.82 82.4547 105.407 81.9878ZM99.1702 82.7422C99.1702 82.7692 99.1702 82.7903 99.1702 82.8056C99.2287 83.0566 99.3445 83.3699 99.5784 83.668C99.6178 83.7149 99.6596 83.7606 99.7038 83.8041C99.9545 84.0493 100.3 84.2487 100.716 84.2746C101.21 84.3156 101.632 84.1279 101.93 83.8862C102.078 83.7759 102.183 83.6574 102.26 83.5318C102.377 83.3723 102.439 83.2186 102.493 83.059C102.53 82.9182 102.537 82.795 102.509 82.6835C102.678 82.6847 102.846 82.7035 103.018 82.7117C102.973 82.9862 102.901 83.2467 102.778 83.4767C102.657 83.7032 102.494 83.912 102.318 84.0704C101.91 84.4494 101.361 84.6629 100.836 84.6829C100.278 84.704 99.7492 84.5163 99.2872 84.1725C99.1797 84.0868 99.0854 83.9941 98.9959 83.8862C98.7547 83.5999 98.5792 83.2362 98.4909 82.8548C98.7034 82.8103 98.9362 82.7715 99.1702 82.7422ZM103.905 85.0255C102.933 85.4056 101.85 85.5488 100.801 85.5488C99.7301 85.5488 98.6437 85.3927 97.5943 85.2132C97.0583 85.1194 96.5306 85.0079 96.0065 84.8823C95.5541 84.7756 95.098 84.6453 94.6778 84.4928C94.7387 84.4423 94.8127 84.3825 94.9106 84.325C95.0813 84.2018 95.2628 84.0857 95.4765 83.9472C96.1223 83.553 97.0046 83.1986 98.0074 82.9487C98.0325 83.2937 98.1196 83.641 98.2557 83.9648C98.393 84.2358 98.5661 84.4905 98.7762 84.7181C99.052 84.9762 99.3576 85.205 99.7229 85.347C100.075 85.4807 100.477 85.5488 100.844 85.5429C101.632 85.5113 102.373 85.1487 102.854 84.5761C103.146 84.2335 103.347 83.8311 103.426 83.4016C103.482 83.1951 103.495 82.9722 103.482 82.768C103.943 82.8079 104.353 82.8595 104.706 82.9135C105.289 82.9992 105.755 83.0742 106.105 83.1141C106.165 83.1235 106.209 83.1353 106.259 83.1435C105.661 83.9848 104.86 84.6594 103.905 85.0255Z" fill="#A95210"/>
<path d="M106.952 76.9212C106.191 76.7441 105.085 76.5117 103.691 76.3393C102.299 76.1809 100.608 76.0612 98.7191 76.3146C96.8603 76.5575 94.795 77.2603 93.1081 78.7317C92.282 79.4685 91.6457 80.3931 91.2577 81.367C90.8924 82.3408 90.7539 83.344 90.7169 84.2698C90.6739 86.1377 91.001 87.7545 91.1849 89.1086C91.4093 90.452 91.5132 91.5373 91.4666 92.2812C91.4177 93.0275 91.2422 93.4252 91.3043 93.4581C91.3592 93.4698 91.6326 93.1178 91.7675 92.3235C91.8606 91.8647 91.8845 91.2921 91.8749 90.6421C91.8893 90.6843 91.937 90.7184 91.9597 90.7759C92.2343 91.122 92.6664 91.6242 92.9912 92.1533C93.1535 92.4373 93.2239 92.6966 93.1857 92.7869C93.1857 92.8961 92.3823 93.3536 92.159 93.4428C92.1758 93.2973 92.1758 93.1988 92.1758 93.2175C92.1758 93.1941 92.0015 93.5156 91.5968 93.7326C91.2088 93.9626 90.6011 94.0705 89.9171 94.0424C89.2294 94.0424 88.605 93.9039 88.1633 93.7197C87.7168 93.5402 87.4721 93.3032 87.4685 93.3208C87.4697 93.3067 87.4828 93.3548 87.5175 93.4428C87.5151 93.4499 87.5091 93.451 87.5091 93.4581C87.5163 93.4616 87.5198 93.4616 87.527 93.4698C87.5843 93.5848 87.6965 93.8136 87.9353 94.0424C88.3149 94.4437 89.0408 94.8191 89.8908 94.8449C90.7563 94.8778 91.5359 94.4976 91.8857 94.0365C92.042 93.8148 92.1185 93.6388 92.1435 93.4792C92.2008 93.5848 92.4683 93.6974 92.9625 93.6423C93.1105 93.6423 93.255 93.6094 93.4257 93.5273C93.5928 93.451 93.7994 93.2985 93.8901 93.0533C93.9856 92.8057 93.9856 92.5534 93.9271 92.3446C93.8734 92.1451 93.8006 91.9515 93.6943 91.7732C93.286 91.0786 92.7619 90.6632 92.3536 90.3734C92.1602 90.2162 91.9824 90.1411 91.8367 90.0906C91.8284 89.7468 91.7902 89.4007 91.7663 89.044C91.6362 87.6701 91.3783 86.0649 91.4774 84.3014C91.5168 83.4297 91.6529 82.5133 92.0027 81.6544C92.3525 80.785 92.9004 79.9824 93.6418 79.3183C95.1651 77.9878 97.074 77.3108 98.8301 77.0421C100.623 76.7558 102.262 76.8133 103.645 76.8989C105.003 76.9987 106.12 77.143 106.909 77.2228C107.684 77.3026 108.107 77.3296 108.122 77.2779C108.132 77.2263 107.722 77.0984 106.952 76.9212Z" fill="#A95210"/>
<path d="M96.6139 97.9896C96.7762 97.7983 96.793 97.654 96.7739 97.6294C96.6867 97.539 96.3417 97.9403 95.74 97.8418C95.1347 97.769 94.3372 97.1753 93.3225 96.6227C92.8259 96.3493 92.2743 96.1381 91.724 96.1076C91.1939 96.0501 90.6806 96.2484 90.363 96.5089C90.0323 96.7799 89.8437 97.065 89.7494 97.2539C89.6407 97.4792 89.6205 97.5977 89.6634 97.6306C89.7494 97.7115 90.0407 97.3102 90.6209 96.9911C90.9002 96.8527 91.2512 96.7529 91.6595 96.8257C92.0678 96.8914 92.5334 97.0814 93.0002 97.3396C93.8168 97.769 94.5856 98.2759 95.3317 98.3979C94.7491 98.5939 93.9051 98.7182 92.9417 98.7675C91.9472 98.8121 90.9969 98.8637 90.326 99.0444C90.0156 99.1301 89.7804 99.2063 89.6061 99.3143C89.4306 99.2052 89.1978 99.1301 88.9006 99.0444C88.2237 98.8637 87.2746 98.8121 86.2837 98.7675C85.3155 98.7182 84.4727 98.5939 83.871 98.3979C84.6207 98.2747 85.4086 97.769 86.2145 97.3396C86.6908 97.0814 87.1409 96.8914 87.542 96.8257C87.9503 96.7529 88.3084 96.8527 88.5914 96.9911C89.1668 97.3102 89.4653 97.7115 89.5548 97.6306C89.5978 97.5977 89.5751 97.4792 89.4688 97.2539C89.3721 97.065 89.1883 96.7811 88.8552 96.5089C88.5329 96.2484 88.0315 96.0501 87.4799 96.1076C86.9463 96.1381 86.3983 96.3493 85.9017 96.6227C84.8881 97.1753 84.0799 97.769 83.4675 97.8418C82.8706 97.9403 82.5208 97.539 82.4456 97.6294C82.4074 97.6528 82.4432 97.7972 82.5936 97.9896C82.6557 98.0553 82.7536 98.1386 82.8622 98.2184C82.898 98.2618 82.9386 98.3252 82.9959 98.3944C83.0604 98.6443 83.1977 99.0468 83.4507 99.5396C83.8805 100.403 84.7067 101.514 85.9482 102.263C86.2228 102.428 86.4855 102.571 86.7708 102.675C86.0199 102.929 85.3788 103.325 84.9383 103.726C84.0799 104.475 83.7982 105.172 83.8674 105.222C83.951 105.308 84.3879 104.774 85.2343 104.184C87.2161 102.808 92.137 102.866 93.9922 104.184C94.81 104.791 95.272 105.308 95.3353 105.222C95.4189 105.172 95.1359 104.473 94.2835 103.726C93.8275 103.325 93.1936 102.929 92.4522 102.675C92.7184 102.57 93.0014 102.427 93.2747 102.263C94.5175 101.513 95.3341 100.403 95.7722 99.5396C96.0265 99.0468 96.1495 98.6443 96.2116 98.3944C96.2665 98.324 96.325 98.2618 96.3644 98.2184C96.4706 98.1386 96.5554 98.0553 96.6139 97.9896ZM95.3317 99.2251C94.8232 99.9455 94.0376 100.911 92.9321 101.562C92.2564 101.971 91.5962 102.197 90.9599 102.334C90.7558 102.296 88.4326 102.982 86.2921 101.562C85.2176 100.862 84.3867 99.9455 83.8698 99.2251C83.791 99.1019 83.7182 99.001 83.6513 98.9048C84.2709 99.2732 85.2331 99.509 86.2527 99.5489C87.2746 99.6041 88.1759 99.5783 88.8242 99.6029C89.0498 99.6029 89.2325 99.6182 89.3996 99.6287C89.4473 99.6416 89.5166 99.644 89.6049 99.6405C89.6957 99.644 89.7768 99.6416 89.8246 99.6287C89.9834 99.617 90.1684 99.6029 90.3917 99.6029C91.0328 99.5783 91.9496 99.6041 92.9715 99.5489C93.991 99.509 94.9413 99.2732 95.5657 98.9048C95.506 98.9998 95.4332 99.1019 95.3317 99.2251Z" fill="#A95210"/>
<path d="M93.5514 82.4624C93.8415 81.9109 94.1758 81.3536 94.5805 80.7975C94.9792 80.2495 95.4747 79.7743 96.0871 79.3895C97.2988 78.635 98.6765 78.3147 99.9348 78.1809C101.184 78.0425 102.325 78.1 103.298 78.2114C105.204 78.4379 106.347 78.8755 106.347 78.872C106.347 78.8767 105.24 78.337 103.316 78.0143C102.365 77.843 101.193 77.7445 99.8882 77.843C98.6013 77.9533 97.1508 78.2443 95.8543 79.0598C95.2132 79.4645 94.6664 79.9914 94.2808 80.5921C93.8726 81.1506 93.5228 81.7396 93.2434 82.3122C92.7002 83.4656 92.3576 84.5779 92.231 85.5365C92.0711 86.4951 92.1331 87.2836 92.286 87.801C92.4149 88.3278 92.5904 88.5684 92.5904 88.5707C92.5904 88.5684 92.4364 88.3079 92.348 87.7834C92.2406 87.2683 92.2406 86.4939 92.4161 85.5729C92.6011 84.6459 92.9819 83.5724 93.5514 82.4624Z" fill="#A95210"/>
<path d="M96.8427 96.9229C96.2601 96.6237 95.7933 96.2776 95.4805 95.8904C94.8585 95.1324 94.8597 94.4472 94.8597 94.4695C94.8597 94.4695 94.8227 94.6161 94.8597 94.9024C94.8955 95.1711 94.9946 95.59 95.268 96.0488C95.5486 96.5028 95.9676 96.9956 96.6087 97.3758C96.771 97.4814 96.9453 97.567 97.1328 97.6527C96.9167 97.892 96.783 98.1678 96.6684 98.4259C96.4917 98.8929 96.4332 99.3141 96.4117 99.6579C96.3747 100.345 96.549 100.695 96.549 100.689C96.549 100.69 96.4881 100.335 96.6564 99.7154C96.7245 99.4221 96.8594 99.0478 97.0743 98.6841C97.2975 98.3485 98.908 97.0801 98.908 97.0801C98.5331 97.1939 97.6067 97.3195 96.8427 96.9229Z" fill="#A95210"/>
<path d="M77.6928 82.9032C77.9423 83.2259 78.5034 83.5286 79.0347 83.484C79.5277 83.4571 79.9492 83.0828 80.2166 82.7132C80.0447 82.6967 79.874 82.6826 79.6997 82.6639C78.9523 82.6181 78.2336 82.6252 77.5496 82.6533C77.5818 82.7354 77.6212 82.8223 77.6928 82.9032Z" fill="#A95210"/>
<path d="M84.5026 83.485C83.9809 83.0943 83.3064 82.7118 82.4934 82.4255C82.183 82.3105 81.8559 82.2248 81.5324 82.1451C81.413 82.1181 81.2937 82.084 81.1647 82.0606C80.717 81.9691 80.2502 81.9104 79.7644 81.8811C78.641 81.7954 77.582 81.8682 76.6532 81.9961C76.5219 82.0242 76.4025 82.0359 76.2855 82.0535C75.7376 82.1427 75.2445 82.2542 74.8267 82.3692C74.5831 82.4267 74.3623 82.4888 74.1641 82.5546C74.2883 82.4654 74.4124 82.3692 74.5318 82.2835C75.0332 81.8611 75.5048 81.4528 76.0253 81.1419C76.461 80.8837 76.9254 80.723 77.3934 80.6221C77.4531 80.615 77.5116 80.5951 77.5677 80.5939C78.2088 80.4789 78.8606 80.4907 79.5208 80.5904C79.8503 80.6221 80.1691 80.6972 80.483 80.7946C80.5595 80.8169 80.6299 80.8368 80.7111 80.8626C80.8901 80.9318 81.068 80.9952 81.2531 81.0808C81.8237 81.3155 82.3478 81.644 82.8719 81.9937C83.9105 82.6977 84.8799 83.5425 85.8087 84.4413C85.1748 83.3149 84.3116 82.3011 83.2957 81.4516C82.7859 81.0245 82.2308 80.6491 81.6196 80.337C81.0059 80.0448 80.3111 79.8184 79.6378 79.7351C78.9609 79.6541 78.2673 79.6377 77.5677 79.7726C76.8753 79.9075 76.2056 80.1891 75.654 80.5963C75.0917 80.9999 74.6536 81.5115 74.2381 81.9913C73.8155 82.4572 72.9046 83.045 72.9918 83.0379C72.987 83.0462 72.9751 83.0556 72.9667 83.0591C72.9333 83.0872 72.9046 83.1166 72.9166 83.1271C72.9333 83.1741 73.098 83.1741 73.3702 83.1459C73.5839 83.5953 73.8824 84.0048 74.2345 84.3779C74.6249 84.7651 75.0905 85.0866 75.5979 85.3236C76.6067 85.8117 77.7444 85.9713 78.8499 85.983C79.9709 85.9713 81.0644 85.8011 82.1293 85.5465C83.1238 85.2954 84.1027 84.9857 85.0088 84.5222C85.4852 84.8813 85.7371 85.1265 85.8099 85.0807C85.8457 85.0479 85.7418 84.7804 85.4374 84.4084C85.2357 84.1385 84.9181 83.8217 84.5026 83.485ZM77.3075 82.6625C77.3767 83.187 77.89 83.8863 77.89 83.8863C78.1813 84.1291 78.6171 84.3157 79.1077 84.2746C79.5041 84.25 79.8491 84.0576 80.0939 83.8264C80.144 83.7725 80.1965 83.715 80.2491 83.668C80.4819 83.3712 80.5917 83.0567 80.649 82.8056C80.6526 82.7974 80.6549 82.7857 80.6561 82.7693C80.8245 82.7974 80.9928 82.8268 81.1528 82.8549C81.0728 83.2362 80.9045 83.6 80.6561 83.8863C80.5642 83.9942 80.4556 84.0869 80.3517 84.1726C79.9076 84.5163 79.374 84.7041 78.8188 84.683C78.2936 84.663 77.742 84.4495 77.3337 84.0705C77.157 83.9109 76.9983 83.7032 76.8705 83.4768C76.75 83.2468 76.664 82.9875 76.6342 82.7118C76.8502 82.693 77.1045 82.5487 77.3075 82.6625ZM83.6491 84.8813C83.1262 85.0068 82.5913 85.1183 82.0577 85.2121C81.0012 85.3917 79.9255 85.5477 78.8523 85.5477C77.7898 85.5477 76.7225 85.4046 75.734 85.0244C74.798 84.6595 73.985 83.9837 73.3965 83.1412C73.4419 83.133 73.4896 83.1213 73.5481 83.1119C73.8979 83.072 74.3647 82.9969 74.9449 82.9112C75.2994 82.8573 75.7125 82.8045 76.1578 82.7657C76.1423 82.9687 76.1709 83.1917 76.2103 83.3993C76.3023 83.8288 76.4921 84.2312 76.7834 84.5738C77.2776 85.1464 78.0082 85.509 78.8045 85.5407C79.1722 85.5477 79.5781 85.4796 79.9315 85.3447C80.2813 85.2027 80.6012 84.9739 80.8639 84.7158C81.0931 84.4882 81.259 84.2336 81.388 83.9625C81.5324 83.6399 81.6208 83.2914 81.6232 82.9464C82.6498 83.1964 83.5285 83.5507 84.1731 83.9449C84.3892 84.0846 84.5731 84.1995 84.739 84.3227C84.8274 84.3802 84.9133 84.4401 84.9826 84.4905C84.5373 84.6442 84.0979 84.7745 83.6491 84.8813Z" fill="#A95210"/>
<path d="M86.454 92.7887C86.4242 92.6984 86.4958 92.4391 86.657 92.1551C86.9793 91.6259 87.4031 91.1238 87.6777 90.7776C87.7123 90.7201 87.7434 90.6861 87.7744 90.6439C87.7625 91.2939 87.7899 91.8665 87.8783 92.3252C88.0191 93.1196 88.289 93.4716 88.326 93.4599C88.3892 93.427 88.2281 93.0292 88.1815 92.283C88.1349 91.5391 88.2388 90.4538 88.4573 89.1103C88.6483 87.7563 88.9611 86.1383 88.9288 84.2715C88.8978 83.3446 88.7545 82.3426 88.3773 81.3687C88.0024 80.3949 87.3721 79.4703 86.54 78.7334C84.8555 77.2633 82.7818 76.5593 80.9159 76.3164C79.0463 76.0641 77.3499 76.1838 75.9603 76.341C74.5623 76.5135 73.4545 76.7458 72.694 76.923C71.9347 77.1002 71.5133 77.2281 71.53 77.2785C71.5312 77.3302 71.967 77.3032 72.7441 77.2234C73.513 77.1436 74.6328 76.9993 76.014 76.8995C77.3881 76.8139 79.0308 76.7564 80.8013 77.0427C82.5705 77.3114 84.4735 77.9884 85.992 79.3189C86.7453 79.9819 87.2981 80.7856 87.6479 81.655C87.9929 82.5139 88.1338 83.4314 88.1755 84.302C88.2615 86.0656 88.0204 87.6718 87.8878 89.0446C87.8532 89.4013 87.8222 89.7475 87.7995 90.0912C87.6694 90.1417 87.4903 90.2168 87.2885 90.374C86.8886 90.6638 86.3645 91.0803 85.9562 91.7738C85.8512 91.9521 85.7652 92.1457 85.7175 92.3452C85.6649 92.554 85.653 92.8063 85.7533 93.0539C85.85 93.2991 86.0458 93.4516 86.2201 93.5279C86.3944 93.6089 86.5424 93.6429 86.6868 93.6429C87.2276 93.7004 87.5094 93.5502 87.513 93.4599C87.3267 93.3719 86.454 92.8978 86.454 92.7887Z" fill="#A95210"/>
<path d="M87.0655 88.5702C87.0584 88.5679 87.2386 88.3273 87.3747 87.8005C87.5108 87.2831 87.5681 86.4946 87.4273 85.536C87.29 84.5786 86.9581 83.4651 86.3958 82.3117C86.1248 81.7391 85.7822 81.1501 85.3751 80.5916C84.9883 79.9909 84.4343 79.464 83.7909 79.0592C82.4908 78.2438 81.0427 77.9528 79.7545 77.8425C78.4652 77.7451 77.2964 77.8425 76.3342 78.0138C74.4014 78.3365 73.3079 78.8762 73.3079 78.8715C73.3079 78.875 74.4456 78.4374 76.3653 78.2109C77.3143 78.0995 78.4688 78.042 79.7211 78.1804C80.9758 78.3142 82.3606 78.6345 83.5688 79.389C84.1824 79.7726 84.6767 80.2478 85.0563 80.7969C85.4646 81.3519 85.8108 81.9104 86.1021 82.4619C86.6775 83.5718 87.0393 84.6454 87.2339 85.5724C87.4165 86.4934 87.4165 87.2667 87.3091 87.7829C87.2124 88.3062 87.0584 88.5679 87.0655 88.5702Z" fill="#A95210"/>
<path d="M82.5292 98.426C82.4325 98.1679 82.2857 97.8921 82.0827 97.6527C82.2666 97.5671 82.4397 97.4815 82.6056 97.3759C83.2384 96.9957 83.6634 96.5029 83.9439 96.0488C84.2101 95.5901 84.3211 95.1723 84.357 94.9025C84.3844 94.6162 84.357 94.4695 84.357 94.4695C84.357 94.4461 84.3582 95.1313 83.7302 95.8904C83.4246 96.2776 82.9626 96.6789 82.3752 96.9229C82.1173 97.0309 81.8428 97.1353 81.5467 97.1646C81.5133 97.1377 80.6848 97.194 80.3027 97.0802L81.1778 97.8029C81.1778 97.8029 81.9192 98.3485 82.1185 98.6841C82.3442 99.0467 82.4791 99.4221 82.5555 99.7155C82.725 100.335 82.657 100.69 82.657 100.689C82.6522 100.695 82.8408 100.346 82.7978 99.658C82.7823 99.3142 82.7155 98.8918 82.5292 98.426Z" fill="#A95210"/>
<path d="M95.1909 99.0278C95.1766 99.0102 94.7754 99.6039 93.9362 100.46C93.5243 100.877 92.9608 101.356 92.2266 101.697C91.484 102.047 90.5839 102.237 89.6575 102.242C87.7331 102.294 86.1644 101.378 85.2965 100.575C84.4166 99.733 84.191 99.0008 84.1826 99.0289C84.1898 99.0078 84.5527 99.6602 85.491 100.347C86.3984 101.031 87.9133 101.722 89.636 101.664C90.5063 101.664 91.3241 101.515 92.0201 101.256C92.7137 100.977 93.2903 100.604 93.7571 100.246C94.6596 99.53 95.1825 99.0055 95.1909 99.0278Z" fill="#A95210"/>
<path d="M104.801 81.3003C104.8 81.3003 104.441 81.2228 103.486 81.1806C102.501 81.136 101.16 81.1618 99.7384 81.3648C98.3034 81.5655 97.0786 81.9104 96.3193 82.2601C95.5123 82.6027 95.1541 82.9124 95.1362 82.9042C95.1565 82.9124 95.4383 82.5687 96.1749 82.1603C96.9043 81.7379 98.1363 81.3073 99.6441 81.0996C101.126 80.8802 102.54 80.9342 103.499 81.0504C104.483 81.1653 104.8 81.3003 104.801 81.3003Z" fill="#A95210"/>
<path d="M75.0662 81.3094C75.0626 81.3094 75.6106 81.1381 76.5752 81.0454C77.5338 80.9515 78.902 80.8835 80.3883 81.1005C80.7476 81.1592 81.1093 81.2261 81.4388 81.3387C81.7337 81.4537 82.0214 81.5675 82.2864 81.6696C82.8332 81.8831 83.3036 82.1025 83.639 82.3149C84.298 82.7631 84.6192 83.0623 84.6359 83.0576C84.624 83.0658 84.2049 82.7995 83.4898 82.4217C83.1281 82.2281 82.6541 82.0556 82.1014 81.8597L81.2323 81.5675C80.941 81.4818 80.6211 81.4138 80.2713 81.3633C78.8852 81.1662 77.5493 81.151 76.599 81.1733C75.644 81.1944 75.065 81.3094 75.0662 81.3094Z" fill="#A95210"/>
<path d="M95.8158 99.9993C95.7979 99.9993 95.3383 100.651 94.3976 101.601C93.9272 102.062 93.2933 102.577 92.4707 102.934C91.6542 103.322 90.6633 103.517 89.6282 103.551C87.502 103.594 85.7531 102.595 84.7837 101.718C83.7785 100.802 83.5218 99.9887 83.5146 99.9993C83.5206 99.9934 83.911 100.744 84.9508 101.504C85.968 102.279 87.6704 103.075 89.6151 103.036C90.5952 102.997 91.5276 102.852 92.2964 102.531C93.0891 102.233 93.7255 101.797 94.2221 101.392C95.2368 100.572 95.8039 99.9958 95.8158 99.9993Z" fill="#A95210"/>
<path d="M122.515 89.6496L122.516 87.1516L122.535 87.1563L122.516 86.9991L122.516 86.8419L122.502 86.8419L122.289 84.3462L122.311 84.3474L122.27 84.196L122.245 84.0388L121.803 81.5689L121.808 81.5689L121.782 81.4234L121.733 81.2662L121.08 78.8398L121.092 78.8398L121.035 78.7142L120.99 78.5441L120.97 78.557L120.111 76.1939L120.136 76.1939L120.065 76.0672L120.008 75.9041L119.991 75.91L118.911 73.6408L118.911 73.6373L118.854 73.5152L118.782 73.358L118.766 73.358L117.496 71.1885L117.5 71.1838L117.421 71.0677L117.323 70.9245L117.315 70.9316L115.85 68.8829L115.868 68.8736L115.776 68.7574L115.672 68.6248L115.659 68.6319L114.034 66.7064L114.038 66.7064L113.927 66.6067L113.823 66.4729L113.81 66.4894L112.003 64.7141L112.018 64.7024L111.914 64.6097L111.799 64.4912L111.78 64.4994L109.814 62.8955L109.829 62.8826L109.714 62.7981L109.576 62.689L109.566 62.7077L107.492 61.261L107.497 61.2587L107.369 61.1871L107.23 61.0862L107.222 61.0979L105.003 59.8413L105.012 59.839L104.877 59.7756L104.747 59.6852L104.747 59.7064L102.43 58.641L102.44 58.6363L102.3 58.5776L102.126 58.5143L102.12 58.5225L99.7464 57.6659L99.7464 57.6589L99.6091 57.6202L99.4204 57.5627L99.4204 57.5686L96.9779 56.9256L96.9838 56.9092L96.8382 56.8869L96.6687 56.8458L96.6687 56.8575L94.1593 56.4234L94.1616 56.4058L94.0148 56.4046L93.8465 56.3706L93.8465 56.38L91.2917 56.1606L91.2964 56.1524L91.1532 56.1524L90.9765 56.1348L90.9801 56.1524L88.4384 56.1524L88.4396 56.1359L88.2797 56.1524L88.1197 56.1524L88.1233 56.1617L85.5816 56.3788L85.5828 56.3706L85.4264 56.3976L85.2652 56.4035L85.2664 56.4222L82.757 56.854L82.7558 56.8446L82.6054 56.8787L82.4454 56.908L82.4454 56.9244L79.9814 57.5674L79.9814 57.5615L79.831 57.6108L79.6769 57.6554L79.6877 57.6636L77.2881 58.5178L77.2881 58.5119L77.1377 58.5753L76.9908 58.6316L76.998 58.6375L74.6891 59.7005L74.6855 59.6806L74.5399 59.7686L74.4026 59.8354L74.4026 59.8378L72.194 61.0944L72.1893 61.0827L72.0615 61.173L71.9254 61.2563L71.9338 61.2587L69.8506 62.7054L69.8398 62.6866L69.7192 62.7922L69.5867 62.8802L69.5951 62.8943L67.6384 64.4982L67.6384 64.4888L67.5166 64.5956L67.3972 64.6977L67.4152 64.7106L65.6089 66.4858L65.5958 66.4682L65.4919 66.5879L65.3833 66.7029L65.3952 66.7029L63.7608 68.6283L63.7453 68.6201L63.6534 68.7539L63.5483 68.87L63.5675 68.8806L62.0955 70.9292L62.0931 70.921L62.0047 71.0559L61.9164 71.1815L61.9319 71.1862L60.6497 73.3557L60.5769 73.4965L60.491 73.6349L60.5112 73.6396L59.432 75.9088L59.4225 75.9018L59.3676 76.0496L59.3031 76.1916L59.3055 76.1916L58.4376 78.55L58.428 78.5406L58.3803 78.6943L58.3313 78.8386L58.3397 78.8386L57.6831 81.265L57.6676 81.265L57.6377 81.4199L57.6043 81.5677L57.6126 81.5677L57.1733 84.0376L57.1506 84.0341L57.1471 84.1948L57.122 84.345L57.1268 84.3439L56.9059 86.8407L56.894 86.8407L56.894 86.9979L56.8796 87.1551L56.894 87.1493L56.894 89.6473L56.8796 89.6449L56.894 89.8197L56.894 89.9594L56.9047 89.9547L57.1268 92.4668L57.122 92.4668L57.1471 92.6099L57.1506 92.7812L57.1721 92.7742L57.6115 95.2393L57.6031 95.2393L57.6377 95.3837L57.6676 95.555L57.6831 95.5432L58.3397 97.9497L58.3301 97.9497L58.3815 98.1105L58.4268 98.2653L58.4364 98.2653L59.3043 100.598L59.3019 100.603L59.3664 100.756L59.4213 100.912L59.4308 100.904L60.5101 103.176L60.4886 103.182L60.5793 103.307L60.6485 103.443L60.6485 103.433L61.9307 105.613L61.914 105.622L62.0071 105.754L62.0919 105.89L62.0931 105.879L63.5663 107.916L63.546 107.927L63.6534 108.049L63.7429 108.178L63.7585 108.161L65.3928 110.094L65.3797 110.111L65.4895 110.213L65.5922 110.328L65.6053 110.314L67.4128 112.088L67.3937 112.101L67.5178 112.194L67.636 112.317L67.636 112.309L69.5927 113.905L69.5831 113.917L69.7204 114.018L69.8374 114.112L69.8494 114.092L71.9326 115.531L71.923 115.54L72.0603 115.632L72.1881 115.72L72.1917 115.712L74.4014 116.959L74.4014 116.98L74.5447 117.043L74.6844 117.107L74.6891 117.107L76.998 118.164L76.9896 118.178L77.146 118.241L77.2869 118.305L77.2869 118.28L79.6865 119.124L79.6757 119.145L79.8393 119.187L79.9802 119.25L79.9802 119.235L82.4442 119.88L82.4442 119.882L82.609 119.923L82.7534 119.95L82.7546 119.943L85.2664 120.384L85.264 120.384L85.43 120.402L85.5804 120.447L85.5804 120.422L88.1233 120.636L88.1197 120.644L88.2797 120.644L88.4396 120.664L88.436 120.644L90.9789 120.644L90.9765 120.664L91.1532 120.644L91.2964 120.644L91.2917 120.636L93.8465 120.421L93.8465 120.446L93.9897 120.399L94.1604 120.383L94.1581 120.383L96.6675 119.941L96.6675 119.948L96.8107 119.918L96.9826 119.879L96.9779 119.879L99.4192 119.233L99.4192 119.249L99.5828 119.186L99.7464 119.143L99.7464 119.122L102.12 118.279L102.124 118.303L102.276 118.232L102.44 118.177L102.43 118.163L104.741 117.105L104.748 117.105L104.876 117.042L105.015 116.979L105.004 116.958L107.223 115.71L107.232 115.719L107.357 115.629L107.498 115.539L107.493 115.53L109.566 114.091L109.576 114.111L109.691 114.017L109.832 113.916L109.815 113.903L111.781 112.308L111.792 112.316L111.891 112.194L112.019 112.099L112.002 112.086L113.81 110.312L113.822 110.326L113.909 110.213L114.036 110.109L114.032 110.091L115.656 108.159L115.67 108.175L115.775 108.051L115.868 107.927L115.847 107.916L117.314 105.878L117.321 105.888L117.407 105.755L117.499 105.621L117.494 105.613L118.766 103.431L118.782 103.442L118.854 103.306L118.911 103.18L118.911 103.175L119.992 100.903L120.008 100.911L120.058 100.763L120.136 100.603L120.109 100.597L120.97 98.2642L120.989 98.2642L121.035 98.1163L121.092 97.9485L121.079 97.9485L121.733 95.5432L121.733 95.5538L121.776 95.3907L121.809 95.2382L121.803 95.2382L122.245 92.773L122.245 92.78L122.266 92.6181L122.317 92.4644L122.289 92.4644L122.503 89.9535L122.516 89.9582L122.516 89.8174L122.539 89.6438L122.515 89.6496ZM121.605 89.7599L115.087 90.5766L121.349 92.4949L114.808 92.7484L120.872 95.183L114.315 94.8756L120.145 97.8253L113.653 96.9629L119.197 100.408L112.804 98.9811L118.013 102.881L111.778 100.911L116.623 105.26L110.576 102.76L115.029 107.499L109.235 104.503L113.24 109.608L107.722 106.108L111.28 111.53L106.084 107.591L109.138 113.286L104.318 108.914L106.854 114.854L102.436 110.09L104.439 116.223L100.472 111.098L101.924 117.381L98.4176 111.938L99.2879 118.313L96.295 112.582L96.6054 119.026L94.1294 113.073L93.8715 119.501L91.9196 113.341L91.0875 119.754L89.7051 113.452L88.3119 119.754L87.4786 113.341L85.5374 119.501L85.2784 113.073L82.7988 119.027L83.114 112.582L80.1055 118.312L80.9925 111.938L77.4887 117.38L78.9368 111.098L74.9685 116.223L76.9634 110.088L72.5546 114.853L75.0903 108.913L70.2696 113.285L73.327 107.59L68.1446 111.529L71.6855 106.104L66.1676 109.606L70.186 104.5L64.3805 107.496L68.831 102.758L62.7879 105.257L67.6324 100.909L61.3887 102.879L66.6069 98.9787L60.2176 100.405L65.7641 96.9583L59.2661 97.8207L65.0967 94.8721L58.5403 95.1783L64.6192 92.7448L58.0556 92.4902L64.3255 90.573L57.8228 89.7552L64.2288 88.3953L57.8228 87.0261L64.3255 86.2094L58.0556 84.3016L64.6192 84.0458L58.5403 81.6065L65.0967 81.9221L59.2649 78.9595L65.7629 79.8336L60.2164 76.3899L66.6069 77.8143L61.3887 73.9142L67.6336 75.8724L62.7879 71.5417L68.831 74.0338L64.3816 69.2959L70.1872 72.3008L66.1688 67.2039L71.6867 70.6887L68.1446 65.2656L73.3282 69.215L70.2708 63.5091L75.0915 67.8821L72.5558 61.9427L76.9634 66.7053L74.9697 60.5688L78.938 65.6974L77.4898 59.4166L80.9937 64.8678L80.1055 58.4802L83.1152 64.2154L82.7988 57.7692L85.2808 63.7391L85.5398 57.2928L87.481 63.454L88.3131 57.0593L89.7063 63.3578L91.0887 57.0593L91.9208 63.4528L93.8727 57.2881L94.1306 63.7379L96.6066 57.7657L96.2962 64.2143L99.2891 58.4791L98.4188 64.8667L101.925 59.413L100.473 65.6962L104.443 60.5641L102.437 66.7041L106.856 61.9392L104.319 67.8821L109.142 63.5068L106.086 69.2162L111.286 65.2644L107.722 70.6887L113.243 67.2039L109.235 72.302L115.031 69.2959L110.576 74.035L116.627 71.5405L111.778 75.8724L118.013 73.9142L112.804 77.8155L119.197 76.3911L113.653 79.8359L120.145 78.9618L114.315 81.9244L120.874 81.6088L114.808 84.0493L121.349 84.3051L115.087 86.2129L121.605 87.0296L115.193 88.3989L121.605 89.7599Z" fill="#A95210"/>
</svg>
