<svg width="40" height="40" viewBox="0 0 40 40" fill="none" xmlns="http://www.w3.org/2000/svg">
<circle cx="20.0316" cy="20.2181" r="18.9297" transform="rotate(-1 20.0316 20.2181)" fill="#F9F9F9"/>
<g clip-path="url(#clip0_1_22813)">
<path d="M30.5206 14.1267C29.7298 14.4882 28.8911 14.7339 28.0302 14.8562C28.9299 14.301 29.5948 13.4351 29.8989 12.4224C29.0563 12.9422 28.1311 13.314 27.1632 13.5218C26.5566 12.8963 25.776 12.4678 24.9227 12.2918C24.0693 12.1158 23.1828 12.2005 22.3783 12.5349C21.5737 12.8693 20.8883 13.438 20.4112 14.1669C19.934 14.8959 19.6871 15.7516 19.7025 16.6227C19.7085 16.967 19.7434 17.2975 19.8204 17.6113C18.0912 17.5568 16.3929 17.1379 14.8367 16.382C13.2805 15.6261 11.9013 14.5503 10.7893 13.2248C10.2484 14.1903 10.0957 15.3257 10.3625 16.3998C10.6293 17.4739 11.2954 18.4059 12.2253 19.0061C11.5375 18.9997 10.8613 18.828 10.2537 18.5054L10.2546 18.5531C10.2732 19.556 10.6368 20.5218 11.2841 21.2879C11.9314 22.0541 12.823 22.5739 13.8086 22.7597C13.4388 22.8641 13.0567 22.9189 12.6724 22.9226C12.3966 22.9323 12.1205 22.9123 11.8489 22.8628C12.1446 23.7199 12.6987 24.4642 13.4349 24.9934C14.1711 25.5225 15.0533 25.8104 15.9599 25.8174C14.4436 27.0465 12.559 27.7318 10.6074 27.7637C10.2512 27.7699 9.90932 27.76 9.56696 27.7223C11.5752 28.9673 13.9011 29.6039 16.2635 29.5549C24.2554 29.4155 28.5091 22.719 28.409 16.9807C28.4056 16.7887 28.3958 16.6034 28.3833 16.4195C29.2292 15.7915 29.9535 15.0146 30.5206 14.1267Z" fill="#03A9F4"/>
</g>
<defs>
<clipPath id="clip0_1_22813">
<rect width="21.1878" height="21.1878" fill="white" transform="translate(9.25439 9.81079) rotate(-1)"/>
</clipPath>
</defs>
</svg>
