<svg width="44" height="44" viewBox="0 0 44 44" fill="none" xmlns="http://www.w3.org/2000/svg">
<g clip-path="url(#clip0_1_23840)">
<path d="M30.6795 42.0171H6.13159V42.8644C6.13159 43.0329 6.39196 43.1946 6.85541 43.3137C7.31886 43.4329 7.94744 43.4998 8.60286 43.4998H33.5626" fill="#F4F4F4"/>
<mask id="path-2-outside-1_1_23840" maskUnits="userSpaceOnUse" x="-0.0461426" y="-0.499756" width="45" height="45" fill="black">
<rect fill="white" x="-0.0461426" y="-0.499756" width="45" height="45"/>
<path d="M9.61188 34.5536L6.91573 37.2499L6.13056 36.4646C6.07206 36.4061 6.00261 36.3597 5.92618 36.3281C5.84975 36.2964 5.76784 36.2801 5.68511 36.2801C5.60239 36.2801 5.52048 36.2964 5.44405 36.3281C5.36763 36.3598 5.29818 36.4062 5.23969 36.4647C5.1812 36.5232 5.1348 36.5926 5.10315 36.669C5.07149 36.7455 5.0552 36.8274 5.05521 36.9101C5.05521 36.9928 5.07151 37.0747 5.10317 37.1512C5.13483 37.2276 5.18124 37.297 5.23973 37.3555L6.47027 38.5861C6.58842 38.7042 6.74863 38.7705 6.91568 38.7705C7.08273 38.7705 7.24295 38.7042 7.36109 38.5861L10.5028 35.4445C10.6209 35.3263 10.6873 35.1661 10.6873 34.999C10.6873 34.832 10.6209 34.6717 10.5027 34.5536C10.3846 34.4355 10.2244 34.3691 10.0573 34.3691C9.89023 34.3691 9.73001 34.4355 9.61188 34.5536ZM13.8114 9.82251H31.1332C31.6342 9.82193 32.1145 9.62266 32.4688 9.2684C32.823 8.91415 33.0223 8.43385 33.0229 7.93286V6.16919C33.0223 5.6682 32.823 5.1879 32.4688 4.83364C32.1145 4.47939 31.6342 4.28012 31.1332 4.27954H13.8114C13.3104 4.28012 12.8301 4.47939 12.4759 4.83364C12.1216 5.1879 11.9224 5.6682 11.9218 6.16919V7.93286C11.9224 8.43385 12.1216 8.91415 12.4759 9.2684C12.8301 9.62266 13.3104 9.82193 13.8114 9.82251ZM13.1815 6.16919C13.1817 6.00219 13.2481 5.84208 13.3662 5.72399C13.4843 5.6059 13.6444 5.53948 13.8114 5.53931H31.1332C31.3002 5.53948 31.4603 5.6059 31.5784 5.72399C31.6965 5.84208 31.7629 6.00219 31.7631 6.16919V7.93286C31.7629 8.09986 31.6965 8.25997 31.5784 8.37806C31.4603 8.49615 31.3002 8.56256 31.1332 8.56274H13.8114C13.6444 8.56256 13.4843 8.49615 13.3662 8.37806C13.2481 8.25997 13.1817 8.09986 13.1815 7.93286V6.16919ZM33.0912 12.9719C33.0912 12.8049 33.0249 12.6447 32.9067 12.5265C32.7886 12.4084 32.6284 12.342 32.4613 12.342H12.4099C12.2428 12.342 12.0826 12.4084 11.9645 12.5265C11.8464 12.6447 11.78 12.8049 11.78 12.9719C11.78 13.139 11.8464 13.2992 11.9645 13.4173C12.0826 13.5354 12.2428 13.6018 12.4099 13.6018H32.4613C32.6284 13.6018 32.7886 13.5354 32.9067 13.4173C33.0249 13.2992 33.0912 13.139 33.0912 12.9719ZM42.9597 9.85241C42.7422 9.733 42.5032 9.65763 42.2565 9.63063C42.0098 9.60362 41.7602 9.62549 41.5219 9.69501C41.2837 9.76451 41.0615 9.8803 40.868 10.0357C40.6745 10.1912 40.5135 10.3832 40.3943 10.6009L39.7082 11.853L36.8702 17.0318V7.63892H41.5629C41.7299 7.63892 41.8902 7.57255 42.0083 7.45443C42.1264 7.3363 42.1928 7.17609 42.1928 7.00903V3.79126C42.1918 2.91873 41.8447 2.08221 41.2278 1.46524C40.6108 0.848267 39.7743 0.501222 38.9018 0.500244C38.8702 0.500244 38.8389 0.501756 38.8075 0.502596C38.7919 0.501504 38.7762 0.500244 38.7602 0.500244H11.1293C10.2943 0.501178 9.49379 0.83329 8.90336 1.42372C8.31294 2.01414 7.98083 2.81467 7.97989 3.64966L7.97956 29.6403C6.65097 29.6209 5.34487 29.9842 4.21708 30.6868C3.0893 31.3894 2.18746 32.4016 1.61917 33.6026C1.05088 34.8037 0.84014 36.1429 1.01209 37.4605C1.18404 38.778 1.73142 40.0183 2.58893 41.0333C3.44643 42.0483 4.57784 42.7951 5.84816 43.1847C7.11848 43.5743 8.47407 43.5902 9.75319 43.2305C11.0323 42.8708 12.1809 42.1507 13.062 41.1562C13.9431 40.1616 14.5194 38.9345 14.7222 37.6213H30.3198V40.2248C30.3198 41.0935 30.6649 41.9266 31.2792 42.5409C31.8934 43.1552 32.7265 43.5002 33.5952 43.5002C34.4639 43.5002 35.297 43.1552 35.9113 42.5409C36.5255 41.9266 36.8706 41.0935 36.8706 40.2248L36.8702 24.8959L43.0219 13.6695L43.7074 12.4182C43.8269 12.2007 43.9024 11.9617 43.9295 11.715C43.9566 11.4683 43.9348 11.2187 43.8653 10.9804C43.7959 10.7421 43.6802 10.5198 43.5248 10.3263C43.3694 10.1328 43.1774 9.97168 42.9597 9.85241ZM36.8705 3.79126C36.8705 3.25254 37.0845 2.73588 37.4655 2.35495C37.8464 1.97402 38.363 1.76001 38.9018 1.76001C39.4405 1.76001 39.9571 1.97402 40.3381 2.35495C40.719 2.73588 40.933 3.25254 40.933 3.79126V6.37915H36.8705V3.79126ZM12.8767 39.2313C12.439 40.0544 11.8051 40.7569 11.0311 41.2765C10.257 41.7961 9.36682 42.1168 8.43926 42.2102C7.5117 42.3036 6.57542 42.1668 5.71336 41.8119C4.8513 41.457 4.09007 40.895 3.49708 40.1757C2.9041 39.4563 2.49767 38.6018 2.31379 37.6879C2.12992 36.774 2.17428 35.8288 2.44293 34.9361C2.71159 34.0434 3.19626 33.2307 3.85401 32.5701C4.51175 31.9094 5.32228 31.4212 6.21378 31.1486C6.92543 30.929 7.67355 30.8527 8.41487 30.9241C9.15619 30.9955 9.876 31.2131 10.5327 31.5645C11.19 31.914 11.7721 32.3895 12.2456 32.964C12.7191 33.5384 13.0749 34.2005 13.2926 34.9124C13.5102 35.6244 13.5855 36.3722 13.5142 37.1132C13.4428 37.8543 13.2262 38.574 12.8767 39.2313ZM33.5951 42.2405C33.0607 42.2399 32.5484 42.0273 32.1705 41.6494C31.7927 41.2716 31.5801 40.7592 31.5795 40.2248V36.9915C31.5795 36.8244 31.5131 36.6642 31.395 36.5461C31.2769 36.4279 31.1167 36.3616 30.9496 36.3616C30.9355 36.3616 30.9216 36.3627 30.9076 36.3637C30.8937 36.3628 30.8799 36.3616 30.8656 36.3616H14.7978C14.7786 35.7451 14.6775 35.134 14.4972 34.5441C14.2334 33.6729 13.7995 32.8627 13.2205 32.1603C12.6415 31.4579 11.9289 30.8773 11.124 30.4522C10.5317 30.1367 9.89693 29.9086 9.23932 29.775L9.23966 3.64966C9.24024 3.14867 9.43951 2.66837 9.79376 2.31411C10.148 1.95986 10.6283 1.76059 11.1293 1.76001H36.3153C35.8585 2.33847 35.6102 3.05417 35.6107 3.79126V7.00089L35.6104 7.00903V19.3306L30.0215 29.5291C30.0159 29.5394 30.0114 29.5498 30.0065 29.5601C30.0031 29.5671 29.9994 29.5739 29.9963 29.5812C29.9775 29.6242 29.9637 29.6693 29.955 29.7155L29.9541 29.7194L29.3277 33.1708C28.1035 33.2782 26.8704 33.221 25.6614 33.0005C25.0925 32.8901 24.5301 32.7483 23.9768 32.576C23.2089 32.3481 22.5455 32.1517 21.6032 32.1829C20.2391 32.2286 18.8973 32.736 17.6152 33.6913C17.4833 33.7918 17.3964 33.9403 17.3733 34.1046C17.3502 34.2688 17.3929 34.4355 17.4919 34.5685C17.591 34.7015 17.7386 34.7901 17.9025 34.8149C18.0665 34.8398 18.2337 34.799 18.3678 34.7015C19.4401 33.9027 20.5428 33.4789 21.6454 33.4419C22.3838 33.4167 22.9014 33.571 23.6185 33.7837C24.2134 33.9689 24.818 34.1208 25.4297 34.2389C26.9158 34.5092 28.4339 34.5559 29.9338 34.3774C29.9416 34.3765 29.9489 34.3748 29.9565 34.3736C29.9664 34.3721 29.9764 34.3706 29.9863 34.3687C29.9971 34.3665 30.0078 34.3639 30.0184 34.3611C30.0579 34.3511 30.0964 34.3372 30.1333 34.3197C30.1404 34.3164 30.1475 34.3128 30.1545 34.3091C30.2005 34.2851 30.2434 34.2554 30.2821 34.2207C30.285 34.2182 30.288 34.2159 30.2908 34.2133L33.2118 31.5048L33.2172 31.4992C33.2309 31.4862 33.2439 31.4725 33.2563 31.4582C33.2591 31.4551 33.2622 31.4523 33.2649 31.449C33.2796 31.4315 33.2933 31.4133 33.3061 31.3943C33.31 31.3884 33.3134 31.3822 33.3171 31.3762C33.3234 31.3661 33.3302 31.3562 33.3359 31.3456L35.6104 27.1948L35.6107 40.2248C35.6101 40.7592 35.3976 41.2716 35.0197 41.6494C34.6418 42.0273 34.1295 42.2399 33.5951 42.2405ZM31.0375 30.8043L31.6051 31.1154L31.7145 31.1753L30.8197 32.0049L31.0375 30.8043ZM35.6874 24.4328L35.6857 24.436L32.5338 30.1878L31.9814 29.885L31.4289 29.5822L40.5101 13.0109L41.6145 13.6163L35.6874 24.4328ZM42.6032 11.8118L42.2198 12.5115L41.9718 12.3756L41.1156 11.9062L41.4991 11.2063C41.5664 11.0837 41.6726 10.987 41.8009 10.9315C41.9292 10.8759 42.0724 10.8646 42.2079 10.8994C42.3433 10.9342 42.4634 11.0131 42.549 11.1236C42.6347 11.2342 42.6811 11.3701 42.6811 11.5099C42.6813 11.6156 42.6545 11.7195 42.6032 11.8118Z"/>
</mask>
<path d="M9.61188 34.5536L6.91573 37.2499L6.13056 36.4646C6.07206 36.4061 6.00261 36.3597 5.92618 36.3281C5.84975 36.2964 5.76784 36.2801 5.68511 36.2801C5.60239 36.2801 5.52048 36.2964 5.44405 36.3281C5.36763 36.3598 5.29818 36.4062 5.23969 36.4647C5.1812 36.5232 5.1348 36.5926 5.10315 36.669C5.07149 36.7455 5.0552 36.8274 5.05521 36.9101C5.05521 36.9928 5.07151 37.0747 5.10317 37.1512C5.13483 37.2276 5.18124 37.297 5.23973 37.3555L6.47027 38.5861C6.58842 38.7042 6.74863 38.7705 6.91568 38.7705C7.08273 38.7705 7.24295 38.7042 7.36109 38.5861L10.5028 35.4445C10.6209 35.3263 10.6873 35.1661 10.6873 34.999C10.6873 34.832 10.6209 34.6717 10.5027 34.5536C10.3846 34.4355 10.2244 34.3691 10.0573 34.3691C9.89023 34.3691 9.73001 34.4355 9.61188 34.5536ZM13.8114 9.82251H31.1332C31.6342 9.82193 32.1145 9.62266 32.4688 9.2684C32.823 8.91415 33.0223 8.43385 33.0229 7.93286V6.16919C33.0223 5.6682 32.823 5.1879 32.4688 4.83364C32.1145 4.47939 31.6342 4.28012 31.1332 4.27954H13.8114C13.3104 4.28012 12.8301 4.47939 12.4759 4.83364C12.1216 5.1879 11.9224 5.6682 11.9218 6.16919V7.93286C11.9224 8.43385 12.1216 8.91415 12.4759 9.2684C12.8301 9.62266 13.3104 9.82193 13.8114 9.82251ZM13.1815 6.16919C13.1817 6.00219 13.2481 5.84208 13.3662 5.72399C13.4843 5.6059 13.6444 5.53948 13.8114 5.53931H31.1332C31.3002 5.53948 31.4603 5.6059 31.5784 5.72399C31.6965 5.84208 31.7629 6.00219 31.7631 6.16919V7.93286C31.7629 8.09986 31.6965 8.25997 31.5784 8.37806C31.4603 8.49615 31.3002 8.56256 31.1332 8.56274H13.8114C13.6444 8.56256 13.4843 8.49615 13.3662 8.37806C13.2481 8.25997 13.1817 8.09986 13.1815 7.93286V6.16919ZM33.0912 12.9719C33.0912 12.8049 33.0249 12.6447 32.9067 12.5265C32.7886 12.4084 32.6284 12.342 32.4613 12.342H12.4099C12.2428 12.342 12.0826 12.4084 11.9645 12.5265C11.8464 12.6447 11.78 12.8049 11.78 12.9719C11.78 13.139 11.8464 13.2992 11.9645 13.4173C12.0826 13.5354 12.2428 13.6018 12.4099 13.6018H32.4613C32.6284 13.6018 32.7886 13.5354 32.9067 13.4173C33.0249 13.2992 33.0912 13.139 33.0912 12.9719ZM42.9597 9.85241C42.7422 9.733 42.5032 9.65763 42.2565 9.63063C42.0098 9.60362 41.7602 9.62549 41.5219 9.69501C41.2837 9.76451 41.0615 9.8803 40.868 10.0357C40.6745 10.1912 40.5135 10.3832 40.3943 10.6009L39.7082 11.853L36.8702 17.0318V7.63892H41.5629C41.7299 7.63892 41.8902 7.57255 42.0083 7.45443C42.1264 7.3363 42.1928 7.17609 42.1928 7.00903V3.79126C42.1918 2.91873 41.8447 2.08221 41.2278 1.46524C40.6108 0.848267 39.7743 0.501222 38.9018 0.500244C38.8702 0.500244 38.8389 0.501756 38.8075 0.502596C38.7919 0.501504 38.7762 0.500244 38.7602 0.500244H11.1293C10.2943 0.501178 9.49379 0.83329 8.90336 1.42372C8.31294 2.01414 7.98083 2.81467 7.97989 3.64966L7.97956 29.6403C6.65097 29.6209 5.34487 29.9842 4.21708 30.6868C3.0893 31.3894 2.18746 32.4016 1.61917 33.6026C1.05088 34.8037 0.84014 36.1429 1.01209 37.4605C1.18404 38.778 1.73142 40.0183 2.58893 41.0333C3.44643 42.0483 4.57784 42.7951 5.84816 43.1847C7.11848 43.5743 8.47407 43.5902 9.75319 43.2305C11.0323 42.8708 12.1809 42.1507 13.062 41.1562C13.9431 40.1616 14.5194 38.9345 14.7222 37.6213H30.3198V40.2248C30.3198 41.0935 30.6649 41.9266 31.2792 42.5409C31.8934 43.1552 32.7265 43.5002 33.5952 43.5002C34.4639 43.5002 35.297 43.1552 35.9113 42.5409C36.5255 41.9266 36.8706 41.0935 36.8706 40.2248L36.8702 24.8959L43.0219 13.6695L43.7074 12.4182C43.8269 12.2007 43.9024 11.9617 43.9295 11.715C43.9566 11.4683 43.9348 11.2187 43.8653 10.9804C43.7959 10.7421 43.6802 10.5198 43.5248 10.3263C43.3694 10.1328 43.1774 9.97168 42.9597 9.85241ZM36.8705 3.79126C36.8705 3.25254 37.0845 2.73588 37.4655 2.35495C37.8464 1.97402 38.363 1.76001 38.9018 1.76001C39.4405 1.76001 39.9571 1.97402 40.3381 2.35495C40.719 2.73588 40.933 3.25254 40.933 3.79126V6.37915H36.8705V3.79126ZM12.8767 39.2313C12.439 40.0544 11.8051 40.7569 11.0311 41.2765C10.257 41.7961 9.36682 42.1168 8.43926 42.2102C7.5117 42.3036 6.57542 42.1668 5.71336 41.8119C4.8513 41.457 4.09007 40.895 3.49708 40.1757C2.9041 39.4563 2.49767 38.6018 2.31379 37.6879C2.12992 36.774 2.17428 35.8288 2.44293 34.9361C2.71159 34.0434 3.19626 33.2307 3.85401 32.5701C4.51175 31.9094 5.32228 31.4212 6.21378 31.1486C6.92543 30.929 7.67355 30.8527 8.41487 30.9241C9.15619 30.9955 9.876 31.2131 10.5327 31.5645C11.19 31.914 11.7721 32.3895 12.2456 32.964C12.7191 33.5384 13.0749 34.2005 13.2926 34.9124C13.5102 35.6244 13.5855 36.3722 13.5142 37.1132C13.4428 37.8543 13.2262 38.574 12.8767 39.2313ZM33.5951 42.2405C33.0607 42.2399 32.5484 42.0273 32.1705 41.6494C31.7927 41.2716 31.5801 40.7592 31.5795 40.2248V36.9915C31.5795 36.8244 31.5131 36.6642 31.395 36.5461C31.2769 36.4279 31.1167 36.3616 30.9496 36.3616C30.9355 36.3616 30.9216 36.3627 30.9076 36.3637C30.8937 36.3628 30.8799 36.3616 30.8656 36.3616H14.7978C14.7786 35.7451 14.6775 35.134 14.4972 34.5441C14.2334 33.6729 13.7995 32.8627 13.2205 32.1603C12.6415 31.4579 11.9289 30.8773 11.124 30.4522C10.5317 30.1367 9.89693 29.9086 9.23932 29.775L9.23966 3.64966C9.24024 3.14867 9.43951 2.66837 9.79376 2.31411C10.148 1.95986 10.6283 1.76059 11.1293 1.76001H36.3153C35.8585 2.33847 35.6102 3.05417 35.6107 3.79126V7.00089L35.6104 7.00903V19.3306L30.0215 29.5291C30.0159 29.5394 30.0114 29.5498 30.0065 29.5601C30.0031 29.5671 29.9994 29.5739 29.9963 29.5812C29.9775 29.6242 29.9637 29.6693 29.955 29.7155L29.9541 29.7194L29.3277 33.1708C28.1035 33.2782 26.8704 33.221 25.6614 33.0005C25.0925 32.8901 24.5301 32.7483 23.9768 32.576C23.2089 32.3481 22.5455 32.1517 21.6032 32.1829C20.2391 32.2286 18.8973 32.736 17.6152 33.6913C17.4833 33.7918 17.3964 33.9403 17.3733 34.1046C17.3502 34.2688 17.3929 34.4355 17.4919 34.5685C17.591 34.7015 17.7386 34.7901 17.9025 34.8149C18.0665 34.8398 18.2337 34.799 18.3678 34.7015C19.4401 33.9027 20.5428 33.4789 21.6454 33.4419C22.3838 33.4167 22.9014 33.571 23.6185 33.7837C24.2134 33.9689 24.818 34.1208 25.4297 34.2389C26.9158 34.5092 28.4339 34.5559 29.9338 34.3774C29.9416 34.3765 29.9489 34.3748 29.9565 34.3736C29.9664 34.3721 29.9764 34.3706 29.9863 34.3687C29.9971 34.3665 30.0078 34.3639 30.0184 34.3611C30.0579 34.3511 30.0964 34.3372 30.1333 34.3197C30.1404 34.3164 30.1475 34.3128 30.1545 34.3091C30.2005 34.2851 30.2434 34.2554 30.2821 34.2207C30.285 34.2182 30.288 34.2159 30.2908 34.2133L33.2118 31.5048L33.2172 31.4992C33.2309 31.4862 33.2439 31.4725 33.2563 31.4582C33.2591 31.4551 33.2622 31.4523 33.2649 31.449C33.2796 31.4315 33.2933 31.4133 33.3061 31.3943C33.31 31.3884 33.3134 31.3822 33.3171 31.3762C33.3234 31.3661 33.3302 31.3562 33.3359 31.3456L35.6104 27.1948L35.6107 40.2248C35.6101 40.7592 35.3976 41.2716 35.0197 41.6494C34.6418 42.0273 34.1295 42.2399 33.5951 42.2405ZM31.0375 30.8043L31.6051 31.1154L31.7145 31.1753L30.8197 32.0049L31.0375 30.8043ZM35.6874 24.4328L35.6857 24.436L32.5338 30.1878L31.9814 29.885L31.4289 29.5822L40.5101 13.0109L41.6145 13.6163L35.6874 24.4328ZM42.6032 11.8118L42.2198 12.5115L41.9718 12.3756L41.1156 11.9062L41.4991 11.2063C41.5664 11.0837 41.6726 10.987 41.8009 10.9315C41.9292 10.8759 42.0724 10.8646 42.2079 10.8994C42.3433 10.9342 42.4634 11.0131 42.549 11.1236C42.6347 11.2342 42.6811 11.3701 42.6811 11.5099C42.6813 11.6156 42.6545 11.7195 42.6032 11.8118Z" fill="#F4F4F4"/>
<path d="M9.61188 34.5536L6.91573 37.2499L6.13056 36.4646C6.07206 36.4061 6.00261 36.3597 5.92618 36.3281C5.84975 36.2964 5.76784 36.2801 5.68511 36.2801C5.60239 36.2801 5.52048 36.2964 5.44405 36.3281C5.36763 36.3598 5.29818 36.4062 5.23969 36.4647C5.1812 36.5232 5.1348 36.5926 5.10315 36.669C5.07149 36.7455 5.0552 36.8274 5.05521 36.9101C5.05521 36.9928 5.07151 37.0747 5.10317 37.1512C5.13483 37.2276 5.18124 37.297 5.23973 37.3555L6.47027 38.5861C6.58842 38.7042 6.74863 38.7705 6.91568 38.7705C7.08273 38.7705 7.24295 38.7042 7.36109 38.5861L10.5028 35.4445C10.6209 35.3263 10.6873 35.1661 10.6873 34.999C10.6873 34.832 10.6209 34.6717 10.5027 34.5536C10.3846 34.4355 10.2244 34.3691 10.0573 34.3691C9.89023 34.3691 9.73001 34.4355 9.61188 34.5536ZM13.8114 9.82251H31.1332C31.6342 9.82193 32.1145 9.62266 32.4688 9.2684C32.823 8.91415 33.0223 8.43385 33.0229 7.93286V6.16919C33.0223 5.6682 32.823 5.1879 32.4688 4.83364C32.1145 4.47939 31.6342 4.28012 31.1332 4.27954H13.8114C13.3104 4.28012 12.8301 4.47939 12.4759 4.83364C12.1216 5.1879 11.9224 5.6682 11.9218 6.16919V7.93286C11.9224 8.43385 12.1216 8.91415 12.4759 9.2684C12.8301 9.62266 13.3104 9.82193 13.8114 9.82251ZM13.1815 6.16919C13.1817 6.00219 13.2481 5.84208 13.3662 5.72399C13.4843 5.6059 13.6444 5.53948 13.8114 5.53931H31.1332C31.3002 5.53948 31.4603 5.6059 31.5784 5.72399C31.6965 5.84208 31.7629 6.00219 31.7631 6.16919V7.93286C31.7629 8.09986 31.6965 8.25997 31.5784 8.37806C31.4603 8.49615 31.3002 8.56256 31.1332 8.56274H13.8114C13.6444 8.56256 13.4843 8.49615 13.3662 8.37806C13.2481 8.25997 13.1817 8.09986 13.1815 7.93286V6.16919ZM33.0912 12.9719C33.0912 12.8049 33.0249 12.6447 32.9067 12.5265C32.7886 12.4084 32.6284 12.342 32.4613 12.342H12.4099C12.2428 12.342 12.0826 12.4084 11.9645 12.5265C11.8464 12.6447 11.78 12.8049 11.78 12.9719C11.78 13.139 11.8464 13.2992 11.9645 13.4173C12.0826 13.5354 12.2428 13.6018 12.4099 13.6018H32.4613C32.6284 13.6018 32.7886 13.5354 32.9067 13.4173C33.0249 13.2992 33.0912 13.139 33.0912 12.9719ZM42.9597 9.85241C42.7422 9.733 42.5032 9.65763 42.2565 9.63063C42.0098 9.60362 41.7602 9.62549 41.5219 9.69501C41.2837 9.76451 41.0615 9.8803 40.868 10.0357C40.6745 10.1912 40.5135 10.3832 40.3943 10.6009L39.7082 11.853L36.8702 17.0318V7.63892H41.5629C41.7299 7.63892 41.8902 7.57255 42.0083 7.45443C42.1264 7.3363 42.1928 7.17609 42.1928 7.00903V3.79126C42.1918 2.91873 41.8447 2.08221 41.2278 1.46524C40.6108 0.848267 39.7743 0.501222 38.9018 0.500244C38.8702 0.500244 38.8389 0.501756 38.8075 0.502596C38.7919 0.501504 38.7762 0.500244 38.7602 0.500244H11.1293C10.2943 0.501178 9.49379 0.83329 8.90336 1.42372C8.31294 2.01414 7.98083 2.81467 7.97989 3.64966L7.97956 29.6403C6.65097 29.6209 5.34487 29.9842 4.21708 30.6868C3.0893 31.3894 2.18746 32.4016 1.61917 33.6026C1.05088 34.8037 0.84014 36.1429 1.01209 37.4605C1.18404 38.778 1.73142 40.0183 2.58893 41.0333C3.44643 42.0483 4.57784 42.7951 5.84816 43.1847C7.11848 43.5743 8.47407 43.5902 9.75319 43.2305C11.0323 42.8708 12.1809 42.1507 13.062 41.1562C13.9431 40.1616 14.5194 38.9345 14.7222 37.6213H30.3198V40.2248C30.3198 41.0935 30.6649 41.9266 31.2792 42.5409C31.8934 43.1552 32.7265 43.5002 33.5952 43.5002C34.4639 43.5002 35.297 43.1552 35.9113 42.5409C36.5255 41.9266 36.8706 41.0935 36.8706 40.2248L36.8702 24.8959L43.0219 13.6695L43.7074 12.4182C43.8269 12.2007 43.9024 11.9617 43.9295 11.715C43.9566 11.4683 43.9348 11.2187 43.8653 10.9804C43.7959 10.7421 43.6802 10.5198 43.5248 10.3263C43.3694 10.1328 43.1774 9.97168 42.9597 9.85241ZM36.8705 3.79126C36.8705 3.25254 37.0845 2.73588 37.4655 2.35495C37.8464 1.97402 38.363 1.76001 38.9018 1.76001C39.4405 1.76001 39.9571 1.97402 40.3381 2.35495C40.719 2.73588 40.933 3.25254 40.933 3.79126V6.37915H36.8705V3.79126ZM12.8767 39.2313C12.439 40.0544 11.8051 40.7569 11.0311 41.2765C10.257 41.7961 9.36682 42.1168 8.43926 42.2102C7.5117 42.3036 6.57542 42.1668 5.71336 41.8119C4.8513 41.457 4.09007 40.895 3.49708 40.1757C2.9041 39.4563 2.49767 38.6018 2.31379 37.6879C2.12992 36.774 2.17428 35.8288 2.44293 34.9361C2.71159 34.0434 3.19626 33.2307 3.85401 32.5701C4.51175 31.9094 5.32228 31.4212 6.21378 31.1486C6.92543 30.929 7.67355 30.8527 8.41487 30.9241C9.15619 30.9955 9.876 31.2131 10.5327 31.5645C11.19 31.914 11.7721 32.3895 12.2456 32.964C12.7191 33.5384 13.0749 34.2005 13.2926 34.9124C13.5102 35.6244 13.5855 36.3722 13.5142 37.1132C13.4428 37.8543 13.2262 38.574 12.8767 39.2313ZM33.5951 42.2405C33.0607 42.2399 32.5484 42.0273 32.1705 41.6494C31.7927 41.2716 31.5801 40.7592 31.5795 40.2248V36.9915C31.5795 36.8244 31.5131 36.6642 31.395 36.5461C31.2769 36.4279 31.1167 36.3616 30.9496 36.3616C30.9355 36.3616 30.9216 36.3627 30.9076 36.3637C30.8937 36.3628 30.8799 36.3616 30.8656 36.3616H14.7978C14.7786 35.7451 14.6775 35.134 14.4972 34.5441C14.2334 33.6729 13.7995 32.8627 13.2205 32.1603C12.6415 31.4579 11.9289 30.8773 11.124 30.4522C10.5317 30.1367 9.89693 29.9086 9.23932 29.775L9.23966 3.64966C9.24024 3.14867 9.43951 2.66837 9.79376 2.31411C10.148 1.95986 10.6283 1.76059 11.1293 1.76001H36.3153C35.8585 2.33847 35.6102 3.05417 35.6107 3.79126V7.00089L35.6104 7.00903V19.3306L30.0215 29.5291C30.0159 29.5394 30.0114 29.5498 30.0065 29.5601C30.0031 29.5671 29.9994 29.5739 29.9963 29.5812C29.9775 29.6242 29.9637 29.6693 29.955 29.7155L29.9541 29.7194L29.3277 33.1708C28.1035 33.2782 26.8704 33.221 25.6614 33.0005C25.0925 32.8901 24.5301 32.7483 23.9768 32.576C23.2089 32.3481 22.5455 32.1517 21.6032 32.1829C20.2391 32.2286 18.8973 32.736 17.6152 33.6913C17.4833 33.7918 17.3964 33.9403 17.3733 34.1046C17.3502 34.2688 17.3929 34.4355 17.4919 34.5685C17.591 34.7015 17.7386 34.7901 17.9025 34.8149C18.0665 34.8398 18.2337 34.799 18.3678 34.7015C19.4401 33.9027 20.5428 33.4789 21.6454 33.4419C22.3838 33.4167 22.9014 33.571 23.6185 33.7837C24.2134 33.9689 24.818 34.1208 25.4297 34.2389C26.9158 34.5092 28.4339 34.5559 29.9338 34.3774C29.9416 34.3765 29.9489 34.3748 29.9565 34.3736C29.9664 34.3721 29.9764 34.3706 29.9863 34.3687C29.9971 34.3665 30.0078 34.3639 30.0184 34.3611C30.0579 34.3511 30.0964 34.3372 30.1333 34.3197C30.1404 34.3164 30.1475 34.3128 30.1545 34.3091C30.2005 34.2851 30.2434 34.2554 30.2821 34.2207C30.285 34.2182 30.288 34.2159 30.2908 34.2133L33.2118 31.5048L33.2172 31.4992C33.2309 31.4862 33.2439 31.4725 33.2563 31.4582C33.2591 31.4551 33.2622 31.4523 33.2649 31.449C33.2796 31.4315 33.2933 31.4133 33.3061 31.3943C33.31 31.3884 33.3134 31.3822 33.3171 31.3762C33.3234 31.3661 33.3302 31.3562 33.3359 31.3456L35.6104 27.1948L35.6107 40.2248C35.6101 40.7592 35.3976 41.2716 35.0197 41.6494C34.6418 42.0273 34.1295 42.2399 33.5951 42.2405ZM31.0375 30.8043L31.6051 31.1154L31.7145 31.1753L30.8197 32.0049L31.0375 30.8043ZM35.6874 24.4328L35.6857 24.436L32.5338 30.1878L31.9814 29.885L31.4289 29.5822L40.5101 13.0109L41.6145 13.6163L35.6874 24.4328ZM42.6032 11.8118L42.2198 12.5115L41.9718 12.3756L41.1156 11.9062L41.4991 11.2063C41.5664 11.0837 41.6726 10.987 41.8009 10.9315C41.9292 10.8759 42.0724 10.8646 42.2079 10.8994C42.3433 10.9342 42.4634 11.0131 42.549 11.1236C42.6347 11.2342 42.6811 11.3701 42.6811 11.5099C42.6813 11.6156 42.6545 11.7195 42.6032 11.8118Z" stroke="#F4F4F4" stroke-width="0.149057" mask="url(#path-2-outside-1_1_23840)"/>
</g>
<defs>
<clipPath id="clip0_1_23840">
<rect width="43" height="43" fill="white" transform="translate(0.940918 0.5)"/>
</clipPath>
</defs>
</svg>
