<svg width="40" height="40" viewBox="0 0 40 40" fill="none" xmlns="http://www.w3.org/2000/svg">
<circle cx="19.9144" cy="20.1556" r="18.9297" transform="rotate(-1 19.9144 20.1556)" fill="#F9F9F9"/>
<path fill-rule="evenodd" clip-rule="evenodd" d="M29.6385 13.6786C29.0371 12.6756 28.401 12.4999 27.1117 12.4505C25.8234 12.3866 22.5871 12.405 19.784 12.4516C16.9754 12.4983 13.7391 12.5876 12.4553 12.6929C11.1712 12.7864 10.5406 12.9819 9.97091 14.0056C9.38905 15.0269 9.11203 16.774 9.1682 19.8407L9.16839 19.8512C9.22432 22.9048 9.56539 24.6547 10.1841 25.6455C10.7909 26.6483 11.4269 26.8214 12.7139 26.8853C14.002 26.9374 17.2397 26.9268 20.0482 26.8801C22.8514 26.8335 26.0862 26.7364 27.3729 26.6428C28.6595 26.5362 29.2887 26.342 29.8531 25.3197C30.4405 24.3088 30.7146 22.5487 30.6587 19.4951L30.6585 19.4846C30.6023 16.4166 30.2641 14.6798 29.6385 13.6786Z" fill="#F44336"/>
<path fill-rule="evenodd" clip-rule="evenodd" d="M17.3001 23.6442L17.156 15.7761L23.9423 19.5985L17.3001 23.6442Z" fill="#FAFAFA"/>
</svg>
